AfacadFlux-SuperItalic.ufo
<glyph name="exclam" format="2">
  <advance width="480"/>
  <unicode hex="0021"/>
  <outline>
    <contour>
      <point x="134" y="330" type="line"/>
      <point x="362" y="330" type="line"/>
      <point x="564" y="900" type="line"/>
      <point x="216" y="900" type="line"/>
    </contour>
    <contour>
      <point x="178" y="-20" type="curve" smooth="yes"/>
      <point x="261" y="-20"/>
      <point x="335" y="54"/>
      <point x="335" y="137" type="curve" smooth="yes"/>
      <point x="335" y="207"/>
      <point x="284" y="260"/>
      <point x="212" y="260" type="curve" smooth="yes"/>
      <point x="129" y="260"/>
      <point x="55" y="186"/>
      <point x="55" y="105" type="curve" smooth="yes"/>
      <point x="55" y="31"/>
      <point x="111" y="-20"/>
    </contour>
  </outline>
</glyph>
<glyph name="numbersign" format="2">
  <advance width="750"/>
  <unicode hex="0023"/>
  <outline>
    <contour>
      <point x="-47" y="0" type="line"/>
      <point x="175" y="0" type="line"/>
      <point x="244" y="168" type="line"/>
      <point x="345" y="168" type="line"/>
      <point x="276" y="0" type="line"/>
      <point x="498" y="0" type="line"/>
      <point x="567" y="168" type="line"/>
      <point x="628" y="168" type="line"/>
      <point x="719" y="384" type="line"/>
      <point x="658" y="384" type="line"/>
      <point x="713" y="516" type="line"/>
      <point x="770" y="516" type="line"/>
      <point x="858" y="732" type="line"/>
      <point x="801" y="732" type="line"/>
      <point x="873" y="900" type="line"/>
      <point x="651" y="900" type="line"/>
      <point x="579" y="732" type="line"/>
      <point x="478" y="732" type="line"/>
      <point x="550" y="900" type="line"/>
      <point x="328" y="900" type="line"/>
      <point x="256" y="732" type="line"/>
      <point x="197" y="732" type="line"/>
      <point x="109" y="516" type="line"/>
      <point x="168" y="516" type="line"/>
      <point x="113" y="384" type="line"/>
      <point x="58" y="384" type="line"/>
      <point x="-33" y="168" type="line"/>
      <point x="22" y="168" type="line"/>
    </contour>
    <contour>
      <point x="319" y="372" type="line"/>
      <point x="382" y="528" type="line"/>
      <point x="507" y="528" type="line"/>
      <point x="444" y="372" type="line"/>
    </contour>
  </outline>
</glyph>
<glyph name="dollar" format="2">
  <advance width="750"/>
  <unicode hex="0024"/>
  <outline>
    <contour>
      <point x="204" y="-120" type="line"/>
      <point x="342" y="-120" type="line"/>
      <point x="368" y="-18" type="line"/>
      <point x="547" y="-3"/>
      <point x="682" y="127"/>
      <point x="682" y="298" type="curve" smooth="yes"/>
      <point x="682" y="397"/>
      <point x="637" y="475"/>
      <point x="546" y="538" type="curve" smooth="yes"/>
      <point x="441" y="610" type="line" smooth="yes"/>
      <point x="419" y="625"/>
      <point x="408" y="636"/>
      <point x="408" y="647" type="curve" smooth="yes"/>
      <point x="408" y="661"/>
      <point x="425" y="673"/>
      <point x="449" y="673" type="curve" smooth="yes"/>
      <point x="518" y="673"/>
      <point x="608" y="615"/>
      <point x="659" y="552" type="curve"/>
      <point x="785" y="806" type="line"/>
      <point x="725" y="857"/>
      <point x="661" y="889"/>
      <point x="599" y="906" type="curve"/>
      <point x="620" y="990" type="line"/>
      <point x="482" y="990" type="line"/>
      <point x="464" y="919" type="line"/>
      <point x="256" y="906"/>
      <point x="136" y="745"/>
      <point x="136" y="601" type="curve" smooth="yes"/>
      <point x="136" y="504"/>
      <point x="185" y="428"/>
      <point x="290" y="356" type="curve" smooth="yes"/>
      <point x="370" y="300" type="line" smooth="yes"/>
      <point x="397" y="281"/>
      <point x="411" y="267"/>
      <point x="411" y="254" type="curve" smooth="yes"/>
      <point x="411" y="239"/>
      <point x="397" y="228"/>
      <point x="371" y="228" type="curve" smooth="yes"/>
      <point x="283" y="228"/>
      <point x="189" y="290"/>
      <point x="136" y="378" type="curve"/>
      <point x="1" y="112" type="line"/>
      <point x="56" y="52"/>
      <point x="145" y="10"/>
      <point x="232" y="-9" type="curve"/>
    </contour>
  </outline>
</glyph>
<glyph name="ampersand" format="2">
  <advance width="860"/>
  <unicode hex="0026"/>
  <outline>
    <contour>
      <point x="301" y="-20" type="curve" smooth="yes"/>
      <point x="377" y="-20"/>
      <point x="447" y="5"/>
      <point x="498" y="48" type="curve"/>
      <point x="522" y="0" type="line"/>
      <point x="789" y="0" type="line"/>
      <point x="718" y="155" type="line"/>
      <point x="758" y="187"/>
      <point x="792" y="221"/>
      <point x="821" y="259" type="curve"/>
      <point x="724" y="479" type="line"/>
      <point x="705" y="433"/>
      <point x="673" y="386"/>
      <point x="632" y="346" type="curve"/>
      <point x="575" y="474" type="line"/>
      <point x="584" y="479" type="line" smooth="yes"/>
      <point x="701" y="544"/>
      <point x="752" y="612"/>
      <point x="752" y="700" type="curve" smooth="yes"/>
      <point x="752" y="823"/>
      <point x="651" y="918"/>
      <point x="519" y="918" type="curve" smooth="yes"/>
      <point x="370" y="918"/>
      <point x="243" y="798"/>
      <point x="243" y="660" type="curve" smooth="yes"/>
      <point x="243" y="631"/>
      <point x="249" y="603"/>
      <point x="262" y="575" type="curve" smooth="yes"/>
      <point x="268" y="562" type="line"/>
      <point x="114" y="501"/>
      <point x="23" y="384"/>
      <point x="23" y="246" type="curve" smooth="yes"/>
      <point x="23" y="88"/>
      <point x="142" y="-20"/>
    </contour>
    <contour>
      <point x="355" y="208" type="curve" smooth="yes"/>
      <point x="306" y="208"/>
      <point x="274" y="235"/>
      <point x="274" y="280" type="curve" smooth="yes"/>
      <point x="274" y="317"/>
      <point x="296" y="347"/>
      <point x="331" y="361" type="curve"/>
      <point x="396" y="217" type="line"/>
      <point x="381" y="210"/>
      <point x="368" y="208"/>
    </contour>
    <contour>
      <point x="467" y="616" type="line"/>
      <point x="458" y="638" type="line" smooth="yes"/>
      <point x="450" y="658"/>
      <point x="447" y="671"/>
      <point x="447" y="682" type="curve" smooth="yes"/>
      <point x="447" y="709"/>
      <point x="470" y="732"/>
      <point x="499" y="732" type="curve" smooth="yes"/>
      <point x="525" y="732"/>
      <point x="544" y="713"/>
      <point x="544" y="686" type="curve" smooth="yes"/>
      <point x="544" y="662"/>
      <point x="527" y="642"/>
      <point x="488" y="625" type="curve" smooth="yes"/>
    </contour>
  </outline>
</glyph>
<glyph name="quotesingle" format="2">
  <advance width="330"/>
  <unicode hex="0027"/>
  <outline>
    <contour>
      <point x="107" y="510" type="line"/>
      <point x="303" y="510" type="line"/>
      <point x="447" y="900" type="line"/>
      <point x="183" y="900" type="line"/>
    </contour>
  </outline>
</glyph>
<glyph name="parenleft" format="2">
  <advance width="480"/>
  <unicode hex="0028"/>
  <outline>
    <contour>
      <point x="104" y="-180" type="curve"/>
      <point x="352" y="-180" type="line"/>
      <point x="312" y="-81"/>
      <point x="292" y="28"/>
      <point x="292" y="144" type="curve" smooth="yes"/>
      <point x="292" y="424"/>
      <point x="415" y="736"/>
      <point x="660" y="960" type="curve"/>
      <point x="368" y="960" type="line"/>
      <point x="167" y="738"/>
      <point x="44" y="455"/>
      <point x="44" y="163" type="curve" smooth="yes"/>
      <point x="44" y="42"/>
      <point x="65" y="-73"/>
    </contour>
  </outline>
</glyph>
<glyph name="parenright" format="2">
  <advance width="480"/>
  <unicode hex="0029"/>
  <outline>
    <contour>
      <point x="-136" y="-180" type="curve"/>
      <point x="156" y="-180" type="line"/>
      <point x="357" y="42"/>
      <point x="480" y="325"/>
      <point x="480" y="617" type="curve" smooth="yes"/>
      <point x="480" y="738"/>
      <point x="459" y="853"/>
      <point x="420" y="960" type="curve"/>
      <point x="172" y="960" type="line"/>
      <point x="212" y="861"/>
      <point x="232" y="752"/>
      <point x="232" y="636" type="curve" smooth="yes"/>
      <point x="232" y="356"/>
      <point x="109" y="44"/>
    </contour>
  </outline>
</glyph>
<glyph name="asterisk" format="2">
  <advance width="660"/>
  <unicode hex="002A"/>
  <outline>
    <contour>
      <point x="249" y="329" type="line"/>
      <point x="369" y="459" type="line"/>
      <point x="416" y="314" type="line"/>
      <point x="614" y="416" type="line"/>
      <point x="537" y="548" type="line"/>
      <point x="703" y="564" type="line"/>
      <point x="688" y="769" type="line"/>
      <point x="526" y="724" type="line"/>
      <point x="584" y="900" type="line"/>
      <point x="374" y="900" type="line"/>
      <point x="348" y="746" type="line"/>
      <point x="217" y="827" type="line"/>
      <point x="105" y="638" type="line"/>
      <point x="253" y="583" type="line"/>
      <point x="113" y="472" type="line"/>
    </contour>
  </outline>
</glyph>
<glyph name="plus" format="2">
  <advance width="750"/>
  <unicode hex="002B"/>
  <outline>
    <contour>
      <point x="226" y="115" type="line"/>
      <point x="430" y="115" type="line"/>
      <point x="490" y="352" type="line"/>
      <point x="723" y="352" type="line"/>
      <point x="771" y="548" type="line"/>
      <point x="538" y="548" type="line"/>
      <point x="598" y="785" type="line"/>
      <point x="394" y="785" type="line"/>
      <point x="334" y="548" type="line"/>
      <point x="101" y="548" type="line"/>
      <point x="53" y="352" type="line"/>
      <point x="286" y="352" type="line"/>
    </contour>
  </outline>
</glyph>
<glyph name="comma" format="2">
  <advance width="330"/>
  <unicode hex="002C"/>
  <outline>
    <contour>
      <point x="-138" y="-120" type="curve"/>
      <point x="122" y="-120" type="line"/>
      <point x="202" y="-18"/>
      <point x="257" y="119"/>
      <point x="293" y="270" type="curve"/>
      <point x="53" y="270" type="line"/>
      <point x="7" y="94"/>
      <point x="-66" y="-32"/>
    </contour>
  </outline>
</glyph>
<glyph name="hyphen" format="2">
  <advance width="400"/>
  <unicode hex="002D"/>
  <outline>
    <contour>
      <point x="9" y="217" type="line"/>
      <point x="349" y="217" type="line"/>
      <point x="397" y="413" type="line"/>
      <point x="57" y="413" type="line"/>
    </contour>
  </outline>
</glyph>
<glyph name="period" format="2">
  <advance width="330"/>
  <unicode hex="002E"/>
  <outline>
    <contour>
      <point x="104" y="-20" type="curve" smooth="yes"/>
      <point x="191" y="-20"/>
      <point x="269" y="58"/>
      <point x="269" y="145" type="curve" smooth="yes"/>
      <point x="269" y="218"/>
      <point x="215" y="274"/>
      <point x="140" y="274" type="curve" smooth="yes"/>
      <point x="53" y="274"/>
      <point x="-25" y="196"/>
      <point x="-25" y="111" type="curve" smooth="yes"/>
      <point x="-25" y="34"/>
      <point x="34" y="-20"/>
    </contour>
  </outline>
</glyph>
<glyph name="slash" format="2">
  <advance width="560"/>
  <unicode hex="002F"/>
  <outline>
    <contour>
      <point x="-229" y="-180" type="line"/>
      <point x="-3" y="-180" type="line"/>
      <point x="798" y="960" type="line"/>
      <point x="572" y="960" type="line"/>
    </contour>
  </outline>
</glyph>
<glyph name="zero" format="2">
  <advance width="750"/>
  <unicode hex="0030"/>
  <outline>
    <contour>
      <point x="343" y="-20" type="curve" smooth="yes"/>
      <point x="572" y="-20"/>
      <point x="765" y="252"/>
      <point x="765" y="559" type="curve" smooth="yes"/>
      <point x="765" y="780"/>
      <point x="657" y="920"/>
      <point x="483" y="920" type="curve" smooth="yes"/>
      <point x="254" y="920"/>
      <point x="61" y="648"/>
      <point x="61" y="341" type="curve" smooth="yes"/>
      <point x="61" y="120"/>
      <point x="169" y="-20"/>
    </contour>
    <contour>
      <point x="355" y="220" type="curve" smooth="yes"/>
      <point x="326" y="220"/>
      <point x="313" y="251"/>
      <point x="313" y="313" type="curve" smooth="yes"/>
      <point x="313" y="469"/>
      <point x="403" y="681"/>
      <point x="471" y="681" type="curve" smooth="yes"/>
      <point x="500" y="681"/>
      <point x="513" y="650"/>
      <point x="513" y="588" type="curve" smooth="yes"/>
      <point x="513" y="432"/>
      <point x="423" y="220"/>
    </contour>
  </outline>
</glyph>
<glyph name="one" format="2">
  <advance width="750"/>
  <unicode hex="0031"/>
  <outline>
    <contour>
      <point x="33" y="0" type="line"/>
      <point x="615" y="0" type="line"/>
      <point x="669" y="216" type="line"/>
      <point x="541" y="216" type="line"/>
      <point x="717" y="920" type="line"/>
      <point x="657" y="920" type="line"/>
      <point x="227" y="728" type="line"/>
      <point x="167" y="486" type="line"/>
      <point x="351" y="564" type="line"/>
      <point x="265" y="216" type="line"/>
      <point x="87" y="216" type="line"/>
    </contour>
  </outline>
</glyph>
<glyph name="two" format="2">
  <advance width="750"/>
  <unicode hex="0032"/>
  <outline>
    <contour>
      <point x="-69" y="0" type="line"/>
      <point x="627" y="0" type="line"/>
      <point x="683" y="222" type="line"/>
      <point x="461" y="222" type="line"/>
      <point x="610" y="354" type="line" smooth="yes"/>
      <point x="718" y="449"/>
      <point x="772" y="541"/>
      <point x="772" y="642" type="curve" smooth="yes"/>
      <point x="772" y="803"/>
      <point x="651" y="920"/>
      <point x="476" y="920" type="curve" smooth="yes"/>
      <point x="278" y="920"/>
      <point x="108" y="759"/>
      <point x="108" y="582" type="curve" smooth="yes"/>
      <point x="108" y="555"/>
      <point x="114" y="529"/>
      <point x="127" y="500" type="curve"/>
      <point x="370" y="500" type="line"/>
      <point x="358" y="522"/>
      <point x="352" y="546"/>
      <point x="352" y="571" type="curve" smooth="yes"/>
      <point x="352" y="630"/>
      <point x="390" y="680"/>
      <point x="441" y="680" type="curve" smooth="yes"/>
      <point x="481" y="680"/>
      <point x="509" y="652"/>
      <point x="509" y="611" type="curve" smooth="yes"/>
      <point x="509" y="579"/>
      <point x="494" y="554"/>
      <point x="448" y="509" type="curve" smooth="yes"/>
      <point x="-69" y="2" type="line"/>
    </contour>
  </outline>
</glyph>
<glyph name="three" format="2">
  <advance width="750"/>
  <unicode hex="0033"/>
  <outline>
    <contour>
      <point x="296" y="-20" type="curve" smooth="yes"/>
      <point x="516" y="-20"/>
      <point x="697" y="147"/>
      <point x="697" y="349" type="curve" smooth="yes"/>
      <point x="697" y="442"/>
      <point x="659" y="517"/>
      <point x="587" y="568" type="curve"/>
      <point x="845" y="898" type="line"/>
      <point x="845" y="900" type="line"/>
      <point x="206" y="900" type="line"/>
      <point x="150" y="678" type="line"/>
      <point x="394" y="678" type="line"/>
      <point x="187" y="401" type="line"/>
      <point x="188" y="399" type="line"/>
      <point x="209" y="404"/>
      <point x="240" y="407"/>
      <point x="272" y="407" type="curve" smooth="yes"/>
      <point x="371" y="407"/>
      <point x="425" y="375"/>
      <point x="425" y="317" type="curve" smooth="yes"/>
      <point x="425" y="263"/>
      <point x="378" y="226"/>
      <point x="310" y="226" type="curve" smooth="yes"/>
      <point x="240" y="226"/>
      <point x="184" y="265"/>
      <point x="142" y="342" type="curve"/>
      <point x="-23" y="122" type="line"/>
      <point x="42" y="36"/>
      <point x="168" y="-20"/>
    </contour>
  </outline>
</glyph>
<glyph name="four" format="2">
  <advance width="750"/>
  <unicode hex="0034"/>
  <outline>
    <contour>
      <point x="338" y="0" type="line"/>
      <point x="602" y="0" type="line"/>
      <point x="650" y="194" type="line"/>
      <point x="706" y="194" type="line"/>
      <point x="757" y="398" type="line"/>
      <point x="701" y="398" type="line"/>
      <point x="761" y="638" type="line"/>
      <point x="494" y="508" type="line"/>
      <point x="467" y="398" type="line"/>
      <point x="384" y="398" type="line"/>
      <point x="728" y="900" type="line"/>
      <point x="440" y="900" type="line"/>
      <point x="-44" y="196" type="line"/>
      <point x="-44" y="194" type="line"/>
      <point x="386" y="194" type="line"/>
    </contour>
  </outline>
</glyph>
<glyph name="five" format="2">
  <advance width="750"/>
  <unicode hex="0035"/>
  <outline>
    <contour>
      <point x="296" y="-20" type="curve" smooth="yes"/>
      <point x="516" y="-20"/>
      <point x="697" y="147"/>
      <point x="697" y="349" type="curve" smooth="yes"/>
      <point x="697" y="461"/>
      <point x="623" y="560"/>
      <point x="495" y="592" type="curve" smooth="yes"/>
      <point x="478" y="596"/>
      <point x="463" y="599"/>
      <point x="436" y="602" type="curve"/>
      <point x="452" y="666" type="line"/>
      <point x="756" y="666" type="line"/>
      <point x="815" y="900" type="line"/>
      <point x="265" y="900" type="line"/>
      <point x="140" y="399" type="line"/>
      <point x="142" y="399" type="line"/>
      <point x="169" y="404"/>
      <point x="206" y="407"/>
      <point x="244" y="407" type="curve" smooth="yes"/>
      <point x="361" y="407"/>
      <point x="425" y="375"/>
      <point x="425" y="317" type="curve" smooth="yes"/>
      <point x="425" y="263"/>
      <point x="378" y="226"/>
      <point x="310" y="226" type="curve" smooth="yes"/>
      <point x="240" y="226"/>
      <point x="184" y="265"/>
      <point x="142" y="342" type="curve"/>
      <point x="-23" y="122" type="line"/>
      <point x="42" y="36"/>
      <point x="168" y="-20"/>
    </contour>
  </outline>
</glyph>
<glyph name="six" format="2">
  <advance width="750"/>
  <unicode hex="0036"/>
  <outline>
    <contour>
      <point x="344" y="-20" type="curve" smooth="yes"/>
      <point x="544" y="-20"/>
      <point x="723" y="148"/>
      <point x="723" y="352" type="curve" smooth="yes"/>
      <point x="723" y="482"/>
      <point x="642" y="580"/>
      <point x="530" y="615" type="curve" smooth="yes"/>
      <point x="527" y="616"/>
      <point x="523" y="617"/>
      <point x="520" y="618" type="curve"/>
      <point x="762" y="900" type="line"/>
      <point x="445" y="900" type="line"/>
      <point x="133" y="519" type="line" smooth="yes"/>
      <point x="66" y="437"/>
      <point x="37" y="353"/>
      <point x="37" y="271" type="curve" smooth="yes"/>
      <point x="37" y="99"/>
      <point x="174" y="-20"/>
    </contour>
    <contour>
      <point x="368" y="220" type="curve" smooth="yes"/>
      <point x="320" y="220"/>
      <point x="286" y="254"/>
      <point x="286" y="302" type="curve" smooth="yes"/>
      <point x="286" y="360"/>
      <point x="335" y="410"/>
      <point x="392" y="410" type="curve" smooth="yes"/>
      <point x="440" y="410"/>
      <point x="474" y="376"/>
      <point x="474" y="328" type="curve" smooth="yes"/>
      <point x="474" y="270"/>
      <point x="425" y="220"/>
    </contour>
  </outline>
</glyph>
<glyph name="less" format="2">
  <advance width="750"/>
  <unicode hex="003C"/>
  <outline>
    <contour>
      <point x="638" y="95" type="line"/>
      <point x="692" y="309" type="line"/>
      <point x="513" y="392" type="line" smooth="yes"/>
      <point x="482" y="406"/>
      <point x="447" y="421"/>
      <point x="416" y="434" type="curve"/>
      <point x="455" y="449"/>
      <point x="497" y="464"/>
      <point x="534" y="478" type="curve" smooth="yes"/>
      <point x="755" y="561" type="line"/>
      <point x="816" y="805" type="line"/>
      <point x="129" y="531" type="line"/>
      <point x="89" y="369" type="line"/>
    </contour>
  </outline>
</glyph>
<glyph name="equal" format="2">
  <advance width="750"/>
  <unicode hex="003D"/>
  <outline>
    <contour>
      <point x="117" y="486" type="line"/>
      <point x="727" y="486" type="line"/>
      <point x="770" y="660" type="line"/>
      <point x="160" y="660" type="line"/>
    </contour>
    <contour>
      <point x="56" y="240" type="line"/>
      <point x="666" y="240" type="line"/>
      <point x="709" y="414" type="line"/>
      <point x="99" y="414" type="line"/>
    </contour>
  </outline>
</glyph>
<glyph name="greater" format="2">
  <advance width="750"/>
  <unicode hex="003E"/>
  <outline>
    <contour>
      <point x="9" y="95" type="line"/>
      <point x="696" y="369" type="line"/>
      <point x="736" y="531" type="line"/>
      <point x="187" y="805" type="line"/>
      <point x="133" y="591" type="line"/>
      <point x="312" y="508" type="line" smooth="yes"/>
      <point x="343" y="494"/>
      <point x="378" y="479"/>
      <point x="409" y="466" type="curve"/>
      <point x="370" y="451"/>
      <point x="328" y="436"/>
      <point x="291" y="422" type="curve" smooth="yes"/>
      <point x="70" y="339" type="line"/>
    </contour>
  </outline>
</glyph>
<glyph name="question" format="2">
  <advance width="480"/>
  <unicode hex="003F"/>
  <outline>
    <contour>
      <point x="133" y="330" type="curve"/>
      <point x="365" y="330" type="line"/>
      <point x="411" y="469"/>
      <point x="582" y="547"/>
      <point x="582" y="718" type="curve" smooth="yes"/>
      <point x="582" y="863"/>
      <point x="459" y="920"/>
      <point x="329" y="920" type="curve" smooth="yes"/>
      <point x="260" y="920"/>
      <point x="213" y="904"/>
      <point x="167" y="883" type="curve"/>
      <point x="106" y="639" type="line"/>
      <point x="146" y="668"/>
      <point x="196" y="692"/>
      <point x="236" y="692" type="curve" smooth="yes"/>
      <point x="269" y="692"/>
      <point x="288" y="676"/>
      <point x="288" y="655" type="curve" smooth="yes"/>
      <point x="288" y="604"/>
      <point x="183" y="543"/>
    </contour>
    <contour>
      <point x="178" y="-20" type="curve" smooth="yes"/>
      <point x="261" y="-20"/>
      <point x="335" y="54"/>
      <point x="335" y="137" type="curve" smooth="yes"/>
      <point x="335" y="207"/>
      <point x="284" y="260"/>
      <point x="212" y="260" type="curve" smooth="yes"/>
      <point x="129" y="260"/>
      <point x="55" y="186"/>
      <point x="55" y="105" type="curve" smooth="yes"/>
      <point x="55" y="31"/>
      <point x="111" y="-20"/>
    </contour>
  </outline>
</glyph>
<glyph name="at" format="2">
  <advance width="1260"/>
  <unicode hex="0040"/>
  <outline>
    <contour>
      <point x="581" y="-192" type="curve" smooth="yes"/>
      <point x="692" y="-192"/>
      <point x="799" y="-162"/>
      <point x="866" y="-115" type="curve"/>
      <point x="866" y="59" type="line"/>
      <point x="790" y="10"/>
      <point x="700" y="-17"/>
      <point x="608" y="-17" type="curve" smooth="yes"/>
      <point x="409" y="-17"/>
      <point x="278" y="110"/>
      <point x="278" y="308" type="curve" smooth="yes"/>
      <point x="278" y="552"/>
      <point x="478" y="737"/>
      <point x="731" y="737" type="curve" smooth="yes"/>
      <point x="921" y="737"/>
      <point x="1050" y="633"/>
      <point x="1050" y="468" type="curve" smooth="yes"/>
      <point x="1050" y="367"/>
      <point x="1001" y="258"/>
      <point x="945" y="258" type="curve" smooth="yes"/>
      <point x="921" y="258"/>
      <point x="910" y="279"/>
      <point x="920" y="318" type="curve" smooth="yes"/>
      <point x="995" y="619" type="line"/>
      <point x="812" y="619" type="line"/>
      <point x="805" y="594" type="line"/>
      <point x="773" y="625"/>
      <point x="718" y="644"/>
      <point x="660" y="644" type="curve" smooth="yes"/>
      <point x="498" y="644"/>
      <point x="351" y="492"/>
      <point x="351" y="318" type="curve" smooth="yes"/>
      <point x="351" y="178"/>
      <point x="447" y="76"/>
      <point x="578" y="76" type="curve" smooth="yes"/>
      <point x="644" y="76"/>
      <point x="704" y="102"/>
      <point x="766" y="158" type="curve"/>
      <point x="793" y="113"/>
      <point x="845" y="87"/>
      <point x="911" y="87" type="curve" smooth="yes"/>
      <point x="1090" y="87"/>
      <point x="1234" y="276"/>
      <point x="1234" y="483" type="curve" smooth="yes"/>
      <point x="1234" y="736"/>
      <point x="1018" y="912"/>
      <point x="731" y="912" type="curve" smooth="yes"/>
      <point x="370" y="912"/>
      <point x="82" y="634"/>
      <point x="82" y="299" type="curve" smooth="yes"/>
      <point x="82" y="11"/>
      <point x="294" y="-192"/>
    </contour>
    <contour>
      <point x="637" y="283" type="curve" smooth="yes"/>
      <point x="597" y="283"/>
      <point x="570" y="310"/>
      <point x="570" y="350" type="curve" smooth="yes"/>
      <point x="570" y="397"/>
      <point x="609" y="437"/>
      <point x="655" y="437" type="curve" smooth="yes"/>
      <point x="694" y="437"/>
      <point x="721" y="409"/>
      <point x="721" y="370" type="curve" smooth="yes"/>
      <point x="721" y="322"/>
      <point x="683" y="283"/>
    </contour>
  </outline>
</glyph>
<glyph name="A" format="2">
  <advance width="860"/>
  <unicode hex="0041"/>
  <anchor x="368" y="0" name="bottom"/>
  <anchor x="661" y="0" name="ogonek"/>
  <anchor x="579" y="900" name="top"/>
  <anchor x="254" y="720" name="top-vertical"/>
  <outline>
    <contour>
      <point x="-91" y="0" type="line"/>
      <point x="215" y="0" type="line"/>
      <point x="265" y="75" type="line"/>
      <point x="507" y="75" type="line"/>
      <point x="521" y="0" type="line"/>
      <point x="801" y="0" type="line"/>
      <point x="654" y="900" type="line"/>
      <point x="502" y="900" type="line"/>
    </contour>
    <contour>
      <point x="363" y="237" type="line"/>
      <point x="381" y="266" type="line" smooth="yes"/>
      <point x="418" y="324"/>
      <point x="439" y="362"/>
      <point x="475" y="431" type="curve"/>
      <point x="476" y="362"/>
      <point x="479" y="322"/>
      <point x="487" y="266" type="curve" smooth="yes"/>
      <point x="491" y="237" type="line"/>
    </contour>
  </outline>
</glyph>
<glyph name="B" format="2">
  <advance width="830"/>
  <unicode hex="0042"/>
  <outline>
    <contour>
      <point x="-15" y="0" type="line"/>
      <point x="438" y="0" type="line" smooth="yes"/>
      <point x="659" y="0"/>
      <point x="803" y="127"/>
      <point x="803" y="322" type="curve" smooth="yes"/>
      <point x="803" y="380"/>
      <point x="779" y="433"/>
      <point x="737" y="476" type="curve"/>
      <point x="805" y="522"/>
      <point x="844" y="590"/>
      <point x="844" y="670" type="curve" smooth="yes"/>
      <point x="844" y="817"/>
      <point x="739" y="900"/>
      <point x="552" y="900" type="curve" smooth="yes"/>
      <point x="210" y="900" type="line"/>
    </contour>
    <contour>
      <point x="328" y="222" type="line"/>
      <point x="371" y="396" type="line"/>
      <point x="443" y="396" type="line" smooth="yes"/>
      <point x="490" y="396"/>
      <point x="519" y="367"/>
      <point x="519" y="322" type="curve" smooth="yes"/>
      <point x="519" y="267"/>
      <point x="475" y="222"/>
      <point x="421" y="222" type="curve" smooth="yes"/>
    </contour>
    <contour>
      <point x="413" y="564" type="line"/>
      <point x="449" y="708" type="line"/>
      <point x="517" y="708" type="line" smooth="yes"/>
      <point x="556" y="708"/>
      <point x="580" y="684"/>
      <point x="580" y="647" type="curve" smooth="yes"/>
      <point x="580" y="601"/>
      <point x="543" y="564"/>
      <point x="499" y="564" type="curve" smooth="yes"/>
    </contour>
  </outline>
</glyph>
<glyph name="C" format="2">
  <advance width="830"/>
  <unicode hex="0043"/>
  <anchor x="512" y="0" name="bottom"/>
  <anchor x="610" y="900" name="top"/>
  <outline>
    <contour>
      <point x="512" y="-20" type="curve" smooth="yes"/>
      <point x="603" y="-20"/>
      <point x="694" y="5"/>
      <point x="779" y="51" type="curve"/>
      <point x="779" y="373" type="line"/>
      <point x="713" y="305"/>
      <point x="638" y="268"/>
      <point x="565" y="268" type="curve" smooth="yes"/>
      <point x="466" y="268"/>
      <point x="394" y="335"/>
      <point x="394" y="429" type="curve" smooth="yes"/>
      <point x="394" y="537"/>
      <point x="491" y="631"/>
      <point x="604" y="631" type="curve" smooth="yes"/>
      <point x="675" y="631"/>
      <point x="739" y="594"/>
      <point x="777" y="531" type="curve"/>
      <point x="918" y="818" type="line"/>
      <point x="841" y="882"/>
      <point x="727" y="920"/>
      <point x="610" y="920" type="curve" smooth="yes"/>
      <point x="324" y="920"/>
      <point x="77" y="677"/>
      <point x="77" y="396" type="curve" smooth="yes"/>
      <point x="77" y="157"/>
      <point x="262" y="-20"/>
    </contour>
  </outline>
</glyph>
<glyph name="D" format="2">
  <advance width="940"/>
  <unicode hex="0044"/>
  <anchor x="357" y="0" name="bottom"/>
  <anchor x="233" y="456" name="center"/>
  <anchor x="581" y="900" name="top"/>
  <outline>
    <contour>
      <point x="-15" y="0" type="line"/>
      <point x="405" y="0" type="line" smooth="yes"/>
      <point x="706" y="0"/>
      <point x="938" y="224"/>
      <point x="938" y="505" type="curve" smooth="yes"/>
      <point x="938" y="730"/>
      <point x="758" y="900"/>
      <point x="519" y="900" type="curve" smooth="yes"/>
      <point x="209" y="900" type="line"/>
    </contour>
    <contour>
      <point x="342" y="276" type="line"/>
      <point x="428" y="624" type="line"/>
      <point x="482" y="624" type="line" smooth="yes"/>
      <point x="580" y="624"/>
      <point x="642" y="560"/>
      <point x="642" y="474" type="curve" smooth="yes"/>
      <point x="642" y="367"/>
      <point x="554" y="276"/>
      <point x="438" y="276" type="curve" smooth="yes"/>
    </contour>
  </outline>
</glyph>
<glyph name="E" format="2">
  <advance width="660"/>
  <unicode hex="0045"/>
  <anchor x="264" y="0" name="bottom"/>
  <anchor x="438" y="0" name="ogonek"/>
  <anchor x="488" y="900" name="top"/>
  <anchor x="209" y="900" name="topleft"/>
  <outline>
    <contour>
      <point x="-15" y="0" type="line"/>
      <point x="543" y="0" type="line"/>
      <point x="603" y="240" type="line"/>
      <point x="327" y="240" type="line"/>
      <point x="361" y="378" type="line"/>
      <point x="595" y="378" type="line"/>
      <point x="643" y="570" type="line"/>
      <point x="409" y="570" type="line"/>
      <point x="433" y="666" type="line"/>
      <point x="709" y="666" type="line"/>
      <point x="767" y="900" type="line"/>
      <point x="209" y="900" type="line"/>
    </contour>
  </outline>
</glyph>
<glyph name="F" format="2">
  <advance width="630"/>
  <unicode hex="0046"/>
  <outline>
    <contour>
      <point x="-15" y="0" type="line"/>
      <point x="285" y="0" type="line"/>
      <point x="372" y="351" type="line"/>
      <point x="576" y="351" type="line"/>
      <point x="626" y="549" type="line"/>
      <point x="422" y="549" type="line"/>
      <point x="449" y="660" type="line"/>
      <point x="683" y="660" type="line"/>
      <point x="743" y="900" type="line"/>
      <point x="209" y="900" type="line"/>
    </contour>
  </outline>
</glyph>
<glyph name="G" format="2">
  <advance width="910"/>
  <unicode hex="0047"/>
  <anchor x="444" y="0" name="bottom"/>
  <anchor x="758" y="270" name="center"/>
  <anchor x="669" y="900" name="top"/>
  <outline>
    <contour>
      <point x="526" y="-20" type="curve" smooth="yes"/>
      <point x="626" y="-20"/>
      <point x="721" y="5"/>
      <point x="796" y="52" type="curve"/>
      <point x="914" y="524" type="line"/>
      <point x="532" y="524" type="line"/>
      <point x="486" y="338" type="line"/>
      <point x="622" y="338" type="line"/>
      <point x="601" y="248" type="line"/>
      <point x="580" y="241"/>
      <point x="563" y="238"/>
      <point x="543" y="238" type="curve" smooth="yes"/>
      <point x="441" y="238"/>
      <point x="368" y="311"/>
      <point x="368" y="413" type="curve" smooth="yes"/>
      <point x="368" y="547"/>
      <point x="479" y="656"/>
      <point x="617" y="656" type="curve" smooth="yes"/>
      <point x="703" y="656"/>
      <point x="786" y="616"/>
      <point x="840" y="548" type="curve"/>
      <point x="968" y="806" type="line"/>
      <point x="887" y="877"/>
      <point x="756" y="920"/>
      <point x="623" y="920" type="curve" smooth="yes"/>
      <point x="325" y="920"/>
      <point x="77" y="682"/>
      <point x="77" y="395" type="curve" smooth="yes"/>
      <point x="77" y="153"/>
      <point x="264" y="-20"/>
    </contour>
  </outline>
</glyph>
<glyph name="H" format="2">
  <advance width="900"/>
  <unicode hex="0048"/>
  <anchor x="374" y="0" name="bottom"/>
  <anchor x="561" y="750" name="center"/>
  <anchor x="598" y="900" name="top"/>
  <anchor x="264" y="900" name="topleft"/>
  <outline>
    <contour>
      <point x="-15" y="0" type="line"/>
      <point x="279" y="0" type="line"/>
      <point x="373" y="378" type="line"/>
      <point x="565" y="378" type="line"/>
      <point x="471" y="0" type="line"/>
      <point x="765" y="0" type="line"/>
      <point x="989" y="900" type="line"/>
      <point x="695" y="900" type="line"/>
      <point x="628" y="630" type="line"/>
      <point x="436" y="630" type="line"/>
      <point x="503" y="900" type="line"/>
      <point x="209" y="900" type="line"/>
    </contour>
  </outline>
</glyph>
<glyph name="I" format="2">
  <advance width="420"/>
  <unicode hex="0049"/>
  <anchor x="135" y="0" name="bottom"/>
  <anchor x="135" y="0" name="ogonek"/>
  <anchor x="359" y="900" name="top"/>
  <anchor x="157" y="900" name="topleft"/>
  <outline>
    <contour>
      <point x="-15" y="0" type="line"/>
      <point x="285" y="0" type="line"/>
      <point x="509" y="900" type="line"/>
      <point x="209" y="900" type="line"/>
    </contour>
  </outline>
</glyph>
<glyph name="J" format="2">
  <advance width="580"/>
  <unicode hex="004A"/>
  <anchor x="221" y="0" name="bottom"/>
  <anchor x="531" y="900" name="top"/>
  <outline>
    <contour>
      <point x="174" y="-20" type="curve" smooth="yes"/>
      <point x="340" y="-20"/>
      <point x="468" y="86"/>
      <point x="511" y="256" type="curve" smooth="yes"/>
      <point x="672" y="900" type="line"/>
      <point x="378" y="900" type="line"/>
      <point x="235" y="325" type="line" smooth="yes"/>
      <point x="222" y="272"/>
      <point x="188" y="239"/>
      <point x="146" y="239" type="curve" smooth="yes"/>
      <point x="111" y="239"/>
      <point x="83" y="256"/>
      <point x="67" y="288" type="curve"/>
      <point x="-56" y="61" type="line"/>
      <point x="-12" y="14"/>
      <point x="85" y="-20"/>
    </contour>
  </outline>
</glyph>
<glyph name="K" format="2">
  <advance width="880"/>
  <unicode hex="004B"/>
  <anchor x="393" y="0" name="bottom"/>
  <anchor x="577" y="900" name="top"/>
  <outline>
    <contour>
      <point x="513" y="0" type="line"/>
      <point x="811" y="0" type="line"/>
      <point x="686" y="530" type="line"/>
      <point x="979" y="900" type="line"/>
      <point x="657" y="900" type="line"/>
      <point x="389" y="558" type="line"/>
    </contour>
    <contour>
      <point x="-15" y="0" type="line"/>
      <point x="273" y="0" type="line"/>
      <point x="497" y="900" type="line"/>
      <point x="209" y="900" type="line"/>
    </contour>
  </outline>
</glyph>
<glyph name="L" format="2">
  <advance width="630"/>
  <unicode hex="004C"/>
  <anchor x="252" y="0" name="bottom"/>
  <anchor x="256" y="450" name="center"/>
  <anchor x="552" y="510" name="periodcentered"/>
  <anchor x="368" y="900" name="top"/>
  <anchor x="514" y="900" name="topright"/>
  <outline>
    <contour>
      <point x="-15" y="0" type="line"/>
      <point x="519" y="0" type="line"/>
      <point x="582" y="252" type="line"/>
      <point x="354" y="252" type="line"/>
      <point x="515" y="900" type="line"/>
      <point x="209" y="900" type="line"/>
    </contour>
  </outline>
</glyph>
<glyph name="M" format="2">
  <advance width="1080"/>
  <unicode hex="004D"/>
  <outline>
    <contour>
      <point x="-15" y="0" type="line"/>
      <point x="271" y="0" type="line"/>
      <point x="301" y="122" type="line" smooth="yes"/>
      <point x="316" y="182"/>
      <point x="334" y="253"/>
      <point x="346" y="340" type="curve"/>
      <point x="372" y="276"/>
      <point x="398" y="225"/>
      <point x="420" y="187" type="curve" smooth="yes"/>
      <point x="480" y="85" type="line"/>
      <point x="590" y="187" type="line" smooth="yes"/>
      <point x="632" y="226"/>
      <point x="684" y="276"/>
      <point x="742" y="340" type="curve"/>
      <point x="710" y="253"/>
      <point x="692" y="182"/>
      <point x="677" y="122" type="curve" smooth="yes"/>
      <point x="647" y="0" type="line"/>
      <point x="945" y="0" type="line"/>
      <point x="1169" y="900" type="line"/>
      <point x="977" y="900" type="line"/>
      <point x="573" y="484" type="line"/>
      <point x="377" y="900" type="line"/>
      <point x="209" y="900" type="line"/>
    </contour>
  </outline>
</glyph>
<glyph name="N" format="2">
  <advance width="920"/>
  <unicode hex="004E"/>
  <anchor x="452" y="30" name="bottom"/>
  <anchor x="572" y="870" name="top"/>
  <outline>
    <contour>
      <point x="623" y="0" type="line"/>
      <point x="785" y="0" type="line"/>
      <point x="1009" y="900" type="line"/>
      <point x="727" y="900" type="line"/>
      <point x="628" y="500" type="line"/>
      <point x="371" y="900" type="line"/>
      <point x="209" y="900" type="line"/>
      <point x="-15" y="0" type="line"/>
      <point x="267" y="0" type="line"/>
      <point x="367" y="402" type="line"/>
    </contour>
  </outline>
</glyph>
<glyph name="O" format="2">
  <advance width="1040"/>
  <unicode hex="004F"/>
  <anchor x="445" y="0" name="bottom"/>
  <anchor x="557" y="450" name="center"/>
  <anchor x="507" y="0" name="ogonek"/>
  <anchor x="669" y="900" name="top"/>
  <anchor x="557" y="450" name="top-vertical"/>
  <anchor x="199" y="900" name="topleft"/>
  <anchor x="1139" y="900" name="topright"/>
  <outline>
    <contour>
      <point x="504" y="-17" type="curve" smooth="yes"/>
      <point x="790" y="-17"/>
      <point x="1038" y="226"/>
      <point x="1038" y="503" type="curve" smooth="yes"/>
      <point x="1038" y="741"/>
      <point x="856" y="917"/>
      <point x="612" y="917" type="curve" smooth="yes"/>
      <point x="326" y="917"/>
      <point x="77" y="675"/>
      <point x="77" y="397" type="curve" smooth="yes"/>
      <point x="77" y="159"/>
      <point x="260" y="-17"/>
    </contour>
    <contour>
      <point x="537" y="268" type="curve" smooth="yes"/>
      <point x="443" y="268"/>
      <point x="373" y="336"/>
      <point x="373" y="428" type="curve" smooth="yes"/>
      <point x="373" y="536"/>
      <point x="469" y="632"/>
      <point x="578" y="632" type="curve" smooth="yes"/>
      <point x="672" y="632"/>
      <point x="742" y="564"/>
      <point x="742" y="472" type="curve" smooth="yes"/>
      <point x="742" y="364"/>
      <point x="645" y="268"/>
    </contour>
  </outline>
</glyph>
<glyph name="P" format="2">
  <advance width="800"/>
  <unicode hex="0050"/>
  <outline>
    <contour>
      <point x="-15" y="0" type="line"/>
      <point x="273" y="0" type="line"/>
      <point x="337" y="258" type="line"/>
      <point x="476" y="258" type="line" smooth="yes"/>
      <point x="703" y="258"/>
      <point x="850" y="433"/>
      <point x="850" y="615" type="curve" smooth="yes"/>
      <point x="850" y="768"/>
      <point x="749" y="900"/>
      <point x="555" y="900" type="curve" smooth="yes"/>
      <point x="209" y="900" type="line"/>
    </contour>
    <contour>
      <point x="392" y="480" type="line"/>
      <point x="439" y="666" type="line"/>
      <point x="481" y="666" type="line" smooth="yes"/>
      <point x="531" y="666"/>
      <point x="563" y="635"/>
      <point x="563" y="587" type="curve" smooth="yes"/>
      <point x="563" y="531"/>
      <point x="519" y="480"/>
      <point x="458" y="480" type="curve" smooth="yes"/>
    </contour>
  </outline>
</glyph>
<glyph name="Q" format="2">
  <advance width="1040"/>
  <unicode hex="0051"/>
  <outline>
    <contour>
      <point x="698" y="-30" type="line"/>
      <point x="983" y="-30" type="line"/>
      <point x="883" y="143" type="line"/>
      <point x="978" y="238"/>
      <point x="1038" y="367"/>
      <point x="1038" y="503" type="curve" smooth="yes"/>
      <point x="1038" y="741"/>
      <point x="856" y="917"/>
      <point x="612" y="917" type="curve" smooth="yes"/>
      <point x="326" y="917"/>
      <point x="77" y="675"/>
      <point x="77" y="397" type="curve" smooth="yes"/>
      <point x="77" y="159"/>
      <point x="260" y="-17"/>
      <point x="504" y="-17" type="curve" smooth="yes"/>
      <point x="563" y="-17"/>
      <point x="621" y="-7"/>
      <point x="674" y="12" type="curve"/>
    </contour>
    <contour>
      <point x="532" y="248" type="curve" smooth="yes"/>
      <point x="440" y="248"/>
      <point x="373" y="325"/>
      <point x="373" y="417" type="curve" smooth="yes"/>
      <point x="373" y="531"/>
      <point x="474" y="632"/>
      <point x="589" y="632" type="curve" smooth="yes"/>
      <point x="688" y="632"/>
      <point x="762" y="560"/>
      <point x="762" y="463" type="curve" smooth="yes"/>
      <point x="762" y="431"/>
      <point x="754" y="401"/>
      <point x="740" y="373" type="curve"/>
      <point x="695" y="450" type="line"/>
      <point x="422" y="450" type="line"/>
      <point x="538" y="248" type="line"/>
      <point x="536" y="248"/>
      <point x="534" y="248"/>
    </contour>
  </outline>
</glyph>
<glyph name="R" format="2">
  <advance width="850"/>
  <unicode hex="0052"/>
  <anchor x="373" y="0" name="bottom"/>
  <anchor x="511" y="900" name="top"/>
  <outline>
    <contour>
      <point x="-15" y="0" type="line"/>
      <point x="273" y="0" type="line"/>
      <point x="346" y="294" type="line"/>
      <point x="423" y="294" type="line"/>
      <point x="485" y="0" type="line"/>
      <point x="781" y="0" type="line"/>
      <point x="696" y="347" type="line"/>
      <point x="797" y="409"/>
      <point x="856" y="519"/>
      <point x="856" y="631" type="curve" smooth="yes"/>
      <point x="856" y="775"/>
      <point x="761" y="900"/>
      <point x="578" y="900" type="curve" smooth="yes"/>
      <point x="209" y="900" type="line"/>
    </contour>
    <contour>
      <point x="398" y="504" type="line"/>
      <point x="442" y="678" type="line"/>
      <point x="489" y="678" type="line" smooth="yes"/>
      <point x="536" y="678"/>
      <point x="566" y="649"/>
      <point x="566" y="604" type="curve" smooth="yes"/>
      <point x="566" y="552"/>
      <point x="525" y="504"/>
      <point x="468" y="504" type="curve" smooth="yes"/>
    </contour>
  </outline>
</glyph>
<glyph name="S" format="2">
  <advance width="700"/>
  <unicode hex="0053"/>
  <anchor x="324" y="0" name="bottom"/>
  <anchor x="479" y="900" name="top"/>
  <outline>
    <contour>
      <point x="324" y="-20" type="curve" smooth="yes"/>
      <point x="518" y="-20"/>
      <point x="672" y="116"/>
      <point x="672" y="299" type="curve" smooth="yes"/>
      <point x="672" y="397"/>
      <point x="628" y="480"/>
      <point x="536" y="543" type="curve" smooth="yes"/>
      <point x="431" y="615" type="line" smooth="yes"/>
      <point x="409" y="630"/>
      <point x="398" y="641"/>
      <point x="398" y="651" type="curve" smooth="yes"/>
      <point x="398" y="663"/>
      <point x="411" y="673"/>
      <point x="436" y="673" type="curve" smooth="yes"/>
      <point x="497" y="673"/>
      <point x="598" y="615"/>
      <point x="649" y="552" type="curve"/>
      <point x="775" y="806" type="line"/>
      <point x="679" y="887"/>
      <point x="578" y="920"/>
      <point x="479" y="920" type="curve" smooth="yes"/>
      <point x="257" y="920"/>
      <point x="126" y="752"/>
      <point x="126" y="599" type="curve" smooth="yes"/>
      <point x="126" y="504"/>
      <point x="177" y="423"/>
      <point x="280" y="351" type="curve" smooth="yes"/>
      <point x="360" y="295" type="line" smooth="yes"/>
      <point x="387" y="276"/>
      <point x="401" y="265"/>
      <point x="401" y="251" type="curve" smooth="yes"/>
      <point x="401" y="237"/>
      <point x="386" y="228"/>
      <point x="358" y="228" type="curve" smooth="yes"/>
      <point x="284" y="228"/>
      <point x="179" y="290"/>
      <point x="126" y="378" type="curve"/>
      <point x="-9" y="112" type="line"/>
      <point x="68" y="29"/>
      <point x="208" y="-20"/>
    </contour>
  </outline>
</glyph>
<glyph name="T" format="2">
  <advance width="730"/>
  <unicode hex="0054"/>
  <anchor x="291" y="0" name="bottom"/>
  <anchor x="401" y="443" name="center"/>
  <anchor x="515" y="900" name="top"/>
  <outline>
    <contour>
      <point x="141" y="0" type="line"/>
      <point x="441" y="0" type="line"/>
      <point x="602" y="648" type="line"/>
      <point x="781" y="648" type="line"/>
      <point x="844" y="900" type="line"/>
      <point x="186" y="900" type="line"/>
      <point x="123" y="648" type="line"/>
      <point x="302" y="648" type="line"/>
    </contour>
  </outline>
</glyph>
<glyph name="U" format="2">
  <advance width="860"/>
  <unicode hex="0055"/>
  <anchor x="355" y="0" name="bottom"/>
  <anchor x="410" y="0" name="ogonek"/>
  <anchor x="583" y="900" name="top"/>
  <anchor x="535" y="720" name="top-vertical"/>
  <anchor x="926" y="802" name="topright"/>
  <outline>
    <contour>
      <point x="422" y="-15" type="curve" smooth="yes"/>
      <point x="619" y="-15"/>
      <point x="755" y="93"/>
      <point x="804" y="287" type="curve" smooth="yes"/>
      <point x="958" y="900" type="line"/>
      <point x="670" y="900" type="line"/>
      <point x="533" y="353" type="line" smooth="yes"/>
      <point x="517" y="291"/>
      <point x="482" y="256"/>
      <point x="434" y="256" type="curve" smooth="yes"/>
      <point x="374" y="256"/>
      <point x="346" y="302"/>
      <point x="364" y="374" type="curve" smooth="yes"/>
      <point x="496" y="900" type="line"/>
      <point x="202" y="900" type="line"/>
      <point x="71" y="378" type="line" smooth="yes"/>
      <point x="11" y="140"/>
      <point x="150" y="-15"/>
    </contour>
  </outline>
</glyph>
<glyph name="V" format="2">
  <advance width="880"/>
  <unicode hex="0056"/>
  <outline>
    <contour>
      <point x="290" y="1" type="line"/>
      <point x="442" y="1" type="line"/>
      <point x="1046" y="900" type="line"/>
      <point x="714" y="900" type="line"/>
      <point x="567" y="676" type="line" smooth="yes"/>
      <point x="534" y="625"/>
      <point x="512" y="589"/>
      <point x="486" y="533" type="curve"/>
      <point x="488" y="589"/>
      <point x="484" y="626"/>
      <point x="475" y="676" type="curve" smooth="yes"/>
      <point x="440" y="900" type="line"/>
      <point x="134" y="900" type="line"/>
    </contour>
  </outline>
</glyph>
<glyph name="W" format="2">
  <advance width="1280"/>
  <unicode hex="0057"/>
  <anchor x="578" y="0" name="bottom"/>
  <anchor x="777" y="900" name="top"/>
  <outline>
    <contour>
      <point x="267" y="0" type="line"/>
      <point x="447" y="0" type="line"/>
      <point x="561" y="191" type="line" smooth="yes"/>
      <point x="590" y="240"/>
      <point x="621" y="288"/>
      <point x="651" y="342" type="curve"/>
      <point x="655" y="288"/>
      <point x="660" y="240"/>
      <point x="665" y="191" type="curve" smooth="yes"/>
      <point x="685" y="0" type="line"/>
      <point x="865" y="0" type="line"/>
      <point x="1446" y="900" type="line"/>
      <point x="1112" y="900" type="line"/>
      <point x="961" y="659" type="line" smooth="yes"/>
      <point x="930" y="609"/>
      <point x="909" y="574"/>
      <point x="884" y="523" type="curve"/>
      <point x="883" y="573"/>
      <point x="880" y="610"/>
      <point x="876" y="659" type="curve" smooth="yes"/>
      <point x="855" y="900" type="line"/>
      <point x="699" y="900" type="line"/>
      <point x="557" y="659" type="line" smooth="yes"/>
      <point x="528" y="609"/>
      <point x="508" y="574"/>
      <point x="483" y="523" type="curve"/>
      <point x="483" y="574"/>
      <point x="479" y="611"/>
      <point x="473" y="659" type="curve" smooth="yes"/>
      <point x="442" y="900" type="line"/>
      <point x="134" y="900" type="line"/>
    </contour>
  </outline>
</glyph>
<glyph name="X" format="2">
  <advance width="890"/>
  <unicode hex="0058"/>
  <outline>
    <contour>
      <point x="-91" y="0" type="line"/>
      <point x="240" y="0" type="line"/>
      <point x="395" y="206" type="line" smooth="yes"/>
      <point x="414" y="231"/>
      <point x="432" y="254"/>
      <point x="451" y="280" type="curve"/>
      <point x="456" y="254"/>
      <point x="460" y="231"/>
      <point x="467" y="206" type="curve" smooth="yes"/>
      <point x="522" y="0" type="line"/>
      <point x="831" y="0" type="line"/>
      <point x="681" y="494" type="line"/>
      <point x="1009" y="900" type="line"/>
      <point x="686" y="900" type="line"/>
      <point x="586" y="769" type="line" smooth="yes"/>
      <point x="565" y="741"/>
      <point x="557" y="727"/>
      <point x="541" y="703" type="curve"/>
      <point x="533" y="729"/>
      <point x="527" y="744"/>
      <point x="520" y="768" type="curve" smooth="yes"/>
      <point x="480" y="900" type="line"/>
      <point x="179" y="900" type="line"/>
      <point x="312" y="526" type="line"/>
    </contour>
  </outline>
</glyph>
<glyph name="Y" format="2">
  <advance width="770"/>
  <unicode hex="0059"/>
  <anchor x="312" y="0" name="bottom"/>
  <anchor x="520" y="900" name="top"/>
  <anchor x="213" y="900" name="topleft"/>
  <outline>
    <contour>
      <point x="164" y="0" type="line"/>
      <point x="458" y="0" type="line"/>
      <point x="548" y="361" type="line"/>
      <point x="938" y="900" type="line"/>
      <point x="613" y="900" type="line"/>
      <point x="534" y="783" type="line" smooth="yes"/>
      <point x="514" y="754"/>
      <point x="491" y="720"/>
      <point x="466" y="681" type="curve"/>
      <point x="460" y="723"/>
      <point x="453" y="760"/>
      <point x="447" y="791" type="curve" smooth="yes"/>
      <point x="426" y="900" type="line"/>
      <point x="132" y="900" type="line"/>
      <point x="261" y="390" type="line"/>
    </contour>
  </outline>
</glyph>
<glyph name="Z" format="2">
  <advance width="730"/>
  <unicode hex="005A"/>
  <anchor x="288" y="0" name="bottom"/>
  <anchor x="409" y="450" name="center"/>
  <anchor x="542" y="900" name="top"/>
  <outline>
    <contour>
      <point x="-69" y="0" type="line"/>
      <point x="625" y="0" type="line"/>
      <point x="688" y="252" type="line"/>
      <point x="426" y="252" type="line"/>
      <point x="873" y="898" type="line"/>
      <point x="873" y="900" type="line"/>
      <point x="185" y="900" type="line"/>
      <point x="122" y="648" type="line"/>
      <point x="378" y="648" type="line"/>
      <point x="-69" y="2" type="line"/>
    </contour>
  </outline>
</glyph>
<glyph name="bracketleft" format="2">
  <advance width="480"/>
  <unicode hex="005B"/>
  <outline>
    <contour>
      <point x="-60" y="-180" type="line"/>
      <point x="312" y="-180" type="line"/>
      <point x="356" y="-3" type="line"/>
      <point x="224" y="-3" type="line"/>
      <point x="420" y="784" type="line"/>
      <point x="552" y="784" type="line"/>
      <point x="596" y="960" type="line"/>
      <point x="224" y="960" type="line"/>
    </contour>
  </outline>
</glyph>
<glyph name="backslash" format="2">
  <advance width="560"/>
  <unicode hex="005C"/>
  <outline>
    <contour>
      <point x="364" y="-180" type="line"/>
      <point x="558" y="-180" type="line"/>
      <point x="283" y="960" type="line"/>
      <point x="89" y="960" type="line"/>
    </contour>
  </outline>
</glyph>
<glyph name="bracketright" format="2">
  <advance width="480"/>
  <unicode hex="005D"/>
  <outline>
    <contour>
      <point x="-72" y="-180" type="line"/>
      <point x="300" y="-180" type="line"/>
      <point x="584" y="960" type="line"/>
      <point x="212" y="960" type="line"/>
      <point x="168" y="784" type="line"/>
      <point x="300" y="784" type="line"/>
      <point x="104" y="-3" type="line"/>
      <point x="-28" y="-3" type="line"/>
    </contour>
  </outline>
</glyph>
<glyph name="asciicircum" format="2">
  <advance width="750"/>
  <unicode hex="005E"/>
  <outline>
    <contour>
      <point x="-17" y="150" type="line"/>
      <point x="229" y="150" type="line"/>
      <point x="362" y="350" type="line" smooth="yes"/>
      <point x="384" y="384"/>
      <point x="409" y="423"/>
      <point x="431" y="457" type="curve"/>
      <point x="437" y="422"/>
      <point x="442" y="383"/>
      <point x="448" y="350" type="curve" smooth="yes"/>
      <point x="481" y="150" type="line"/>
      <point x="693" y="150" type="line"/>
      <point x="573" y="768" type="line"/>
      <point x="411" y="768" type="line"/>
    </contour>
  </outline>
</glyph>
<glyph name="underscore" format="2">
  <advance width="750"/>
  <unicode hex="005F"/>
  <outline>
    <contour>
      <point x="-137" y="-225" type="line"/>
      <point x="625" y="-225" type="line"/>
      <point x="669" y="-45" type="line"/>
      <point x="-93" y="-45" type="line"/>
    </contour>
  </outline>
</glyph>
<glyph name="a" format="2">
  <advance width="760"/>
  <unicode hex="0061"/>
  <anchor x="340" y="0" name="bottom"/>
  <anchor x="532" y="0" name="ogonek"/>
  <anchor x="473" y="630" name="top"/>
  <outline>
    <contour>
      <point x="288" y="-14" type="curve" smooth="yes"/>
      <point x="343" y="-14"/>
      <point x="386" y="2"/>
      <point x="438" y="44" type="curve"/>
      <point x="427" y="0" type="line"/>
      <point x="637" y="0" type="line"/>
      <point x="795" y="630" type="line"/>
      <point x="573" y="630" type="line"/>
      <point x="562" y="586" type="line"/>
      <point x="526" y="622"/>
      <point x="463" y="644"/>
      <point x="393" y="644" type="curve" smooth="yes"/>
      <point x="196" y="644"/>
      <point x="25" y="469"/>
      <point x="25" y="268" type="curve" smooth="yes"/>
      <point x="25" y="106"/>
      <point x="137" y="-14"/>
    </contour>
    <contour>
      <point x="362" y="220" type="curve" smooth="yes"/>
      <point x="314" y="220"/>
      <point x="280" y="254"/>
      <point x="280" y="302" type="curve" smooth="yes"/>
      <point x="280" y="360"/>
      <point x="328" y="410"/>
      <point x="385" y="410" type="curve" smooth="yes"/>
      <point x="432" y="410"/>
      <point x="466" y="376"/>
      <point x="466" y="328" type="curve" smooth="yes"/>
      <point x="466" y="269"/>
      <point x="419" y="220"/>
    </contour>
  </outline>
</glyph>
<glyph name="b" format="2">
  <advance width="760"/>
  <unicode hex="0062"/>
  <anchor x="311" y="0" name="bottom"/>
  <anchor x="539" y="914" name="top"/>
  <outline>
    <contour>
      <point x="375" y="-14" type="curve" smooth="yes"/>
      <point x="572" y="-14"/>
      <point x="743" y="161"/>
      <point x="743" y="362" type="curve" smooth="yes"/>
      <point x="743" y="524"/>
      <point x="631" y="644"/>
      <point x="480" y="644" type="curve" smooth="yes"/>
      <point x="446" y="644"/>
      <point x="417" y="638"/>
      <point x="388" y="624" type="curve"/>
      <point x="471" y="960" type="line"/>
      <point x="213" y="960" type="line"/>
      <point x="-27" y="0" type="line"/>
      <point x="195" y="0" type="line"/>
      <point x="206" y="44" type="line"/>
      <point x="242" y="8"/>
      <point x="305" y="-14"/>
    </contour>
    <contour>
      <point x="384" y="220" type="curve" smooth="yes"/>
      <point x="336" y="220"/>
      <point x="302" y="254"/>
      <point x="302" y="302" type="curve" smooth="yes"/>
      <point x="302" y="360"/>
      <point x="350" y="410"/>
      <point x="407" y="410" type="curve" smooth="yes"/>
      <point x="454" y="410"/>
      <point x="488" y="376"/>
      <point x="488" y="328" type="curve" smooth="yes"/>
      <point x="488" y="269"/>
      <point x="441" y="220"/>
    </contour>
  </outline>
</glyph>
<glyph name="c" format="2">
  <advance width="600"/>
  <unicode hex="0063"/>
  <anchor x="349" y="0" name="bottom"/>
  <anchor x="414" y="630" name="top"/>
  <outline>
    <contour>
      <point x="349" y="-20" type="curve" smooth="yes"/>
      <point x="415" y="-20"/>
      <point x="480" y="-4"/>
      <point x="534" y="35" type="curve"/>
      <point x="534" y="279" type="line"/>
      <point x="489" y="236"/>
      <point x="449" y="220"/>
      <point x="406" y="220" type="curve" smooth="yes"/>
      <point x="344" y="220"/>
      <point x="302" y="254"/>
      <point x="302" y="308" type="curve" smooth="yes"/>
      <point x="302" y="365"/>
      <point x="349" y="409"/>
      <point x="411" y="409" type="curve" smooth="yes"/>
      <point x="455" y="409"/>
      <point x="494" y="391"/>
      <point x="520" y="360" type="curve"/>
      <point x="630" y="581" type="line"/>
      <point x="574" y="624"/>
      <point x="494" y="650"/>
      <point x="414" y="650" type="curve" smooth="yes"/>
      <point x="208" y="650"/>
      <point x="31" y="477"/>
      <point x="31" y="278" type="curve" smooth="yes"/>
      <point x="31" y="104"/>
      <point x="165" y="-20"/>
    </contour>
  </outline>
</glyph>
<glyph name="e" format="2">
  <advance width="720"/>
  <unicode hex="0065"/>
  <anchor x="336" y="0" name="bottom"/>
  <anchor x="441" y="0" name="ogonek"/>
  <anchor x="419" y="630" name="top"/>
  <outline>
    <contour>
      <point x="367" y="-20" type="curve" smooth="yes"/>
      <point x="441" y="-20"/>
      <point x="521" y="0"/>
      <point x="564" y="26" type="curve"/>
      <point x="564" y="225" type="line"/>
      <point x="529" y="198"/>
      <point x="481" y="181"/>
      <point x="419" y="181" type="curve" smooth="yes"/>
      <point x="347" y="181"/>
      <point x="282" y="212"/>
      <point x="265" y="253" type="curve"/>
      <point x="293" y="249"/>
      <point x="321" y="247"/>
      <point x="345" y="247" type="curve" smooth="yes"/>
      <point x="686" y="247" type="line"/>
      <point x="698" y="295" type="line" smooth="yes"/>
      <point x="749" y="501"/>
      <point x="632" y="650"/>
      <point x="419" y="650" type="curve" smooth="yes"/>
      <point x="208" y="650"/>
      <point x="33" y="483"/>
      <point x="33" y="280" type="curve" smooth="yes"/>
      <point x="33" y="102"/>
      <point x="169" y="-20"/>
    </contour>
    <contour>
      <point x="292" y="385" type="curve"/>
      <point x="313" y="434"/>
      <point x="351" y="460"/>
      <point x="400" y="460" type="curve" smooth="yes"/>
      <point x="445" y="460"/>
      <point x="477" y="431"/>
      <point x="481" y="385" type="curve"/>
      <point x="455" y="388"/>
      <point x="420" y="391"/>
      <point x="401" y="391" type="curve" smooth="yes"/>
      <point x="373" y="391" type="line" smooth="yes"/>
      <point x="356" y="391"/>
      <point x="334" y="389"/>
    </contour>
  </outline>
</glyph>
<glyph name="g" format="2">
  <advance width="760"/>
  <unicode hex="0067"/>
  <anchor x="224" y="-375" name="bottom"/>
  <anchor x="591" y="315" name="center"/>
  <anchor x="466" y="630" name="top"/>
  <outline>
    <contour>
      <point x="261" y="-290" type="curve" smooth="yes"/>
      <point x="449" y="-290"/>
      <point x="594" y="-177"/>
      <point x="640" y="7" type="curve" smooth="yes"/>
      <point x="795" y="630" type="line"/>
      <point x="572" y="630" type="line"/>
      <point x="561" y="586" type="line"/>
      <point x="525" y="622"/>
      <point x="462" y="644"/>
      <point x="392" y="644" type="curve" smooth="yes"/>
      <point x="196" y="644"/>
      <point x="25" y="469"/>
      <point x="25" y="268" type="curve" smooth="yes"/>
      <point x="25" y="106"/>
      <point x="137" y="-8"/>
      <point x="288" y="-8" type="curve" smooth="yes"/>
      <point x="343" y="-8"/>
      <point x="386" y="8"/>
      <point x="438" y="44" type="curve"/>
      <point x="435" y="31" type="line" smooth="yes"/>
      <point x="423" y="-20"/>
      <point x="356" y="-67"/>
      <point x="274" y="-67" type="curve" smooth="yes"/>
      <point x="209" y="-67"/>
      <point x="120" y="-44"/>
      <point x="60" y="27" type="curve"/>
      <point x="-43" y="-182" type="line"/>
      <point x="40" y="-263"/>
      <point x="176" y="-290"/>
    </contour>
    <contour>
      <point x="362" y="220" type="curve" smooth="yes"/>
      <point x="314" y="220"/>
      <point x="280" y="254"/>
      <point x="280" y="302" type="curve" smooth="yes"/>
      <point x="280" y="360"/>
      <point x="328" y="410"/>
      <point x="385" y="410" type="curve" smooth="yes"/>
      <point x="432" y="410"/>
      <point x="466" y="376"/>
      <point x="466" y="328" type="curve" smooth="yes"/>
      <point x="466" y="269"/>
      <point x="419" y="220"/>
    </contour>
  </outline>
</glyph>
<glyph name="k" format="2">
  <advance width="740"/>
  <unicode hex="006B"/>
  <anchor x="319" y="0" name="bottom"/>
  <anchor x="345" y="960" name="top"/>
  <outline>
    <contour>
      <point x="401" y="0" type="line"/>
      <point x="681" y="0" type="line"/>
      <point x="568" y="355" type="line"/>
      <point x="791" y="630" type="line"/>
      <point x="503" y="630" type="line"/>
      <point x="296" y="366" type="line"/>
    </contour>
    <contour>
      <point x="-27" y="0" type="line"/>
      <point x="237" y="0" type="line"/>
      <point x="477" y="960" type="line"/>
      <point x="213" y="960" type="line"/>
    </contour>
  </outline>
</glyph>
<glyph name="l" format="2">
  <advance width="360"/>
  <unicode hex="006C"/>
  <anchor x="105" y="0" name="bottom"/>
  <anchor x="225" y="480" name="center"/>
  <anchor x="471" y="420" name="periodcentered"/>
  <anchor x="345" y="960" name="top"/>
  <anchor x="477" y="960" name="topright"/>
  <outline>
    <contour>
      <point x="-27" y="0" type="line"/>
      <point x="237" y="0" type="line"/>
      <point x="477" y="960" type="line"/>
      <point x="213" y="960" type="line"/>
    </contour>
  </outline>
</glyph>
<glyph name="m" format="2">
  <advance width="1100"/>
  <unicode hex="006D"/>
  <anchor x="478" y="0" name="bottom"/>
  <anchor x="700" y="600" name="top"/>
  <outline>
    <contour>
      <point x="-27" y="0" type="line"/>
      <point x="237" y="0" type="line"/>
      <point x="326" y="358" type="line" smooth="yes"/>
      <point x="335" y="396"/>
      <point x="357" y="416"/>
      <point x="388" y="416" type="curve" smooth="yes"/>
      <point x="425" y="416"/>
      <point x="441" y="388"/>
      <point x="430" y="343" type="curve" smooth="yes"/>
      <point x="346" y="0" type="line"/>
      <point x="610" y="0" type="line"/>
      <point x="699" y="358" type="line" smooth="yes"/>
      <point x="708" y="396"/>
      <point x="730" y="416"/>
      <point x="761" y="416" type="curve" smooth="yes"/>
      <point x="798" y="416"/>
      <point x="815" y="388"/>
      <point x="804" y="343" type="curve" smooth="yes"/>
      <point x="719" y="0" type="line"/>
      <point x="983" y="0" type="line"/>
      <point x="1071" y="355" type="line" smooth="yes"/>
      <point x="1113" y="526"/>
      <point x="1030" y="649"/>
      <point x="872" y="649" type="curve" smooth="yes"/>
      <point x="798" y="649"/>
      <point x="736" y="629"/>
      <point x="674" y="585" type="curve"/>
      <point x="639" y="627"/>
      <point x="586" y="649"/>
      <point x="518" y="649" type="curve" smooth="yes"/>
      <point x="458" y="649"/>
      <point x="397" y="626"/>
      <point x="341" y="581" type="curve"/>
      <point x="352" y="630" type="line"/>
      <point x="130" y="630" type="line"/>
    </contour>
  </outline>
</glyph>
<glyph name="n" format="2">
  <advance width="740"/>
  <unicode hex="006E"/>
  <anchor x="298" y="0" name="bottom"/>
  <anchor x="453" y="630" name="top"/>
  <outline>
    <contour>
      <point x="-27" y="0" type="line"/>
      <point x="237" y="0" type="line"/>
      <point x="326" y="358" type="line" smooth="yes"/>
      <point x="335" y="394"/>
      <point x="361" y="416"/>
      <point x="394" y="416" type="curve" smooth="yes"/>
      <point x="433" y="416"/>
      <point x="454" y="385"/>
      <point x="444" y="343" type="curve" smooth="yes"/>
      <point x="359" y="0" type="line"/>
      <point x="623" y="0" type="line"/>
      <point x="711" y="355" type="line" smooth="yes"/>
      <point x="752" y="522"/>
      <point x="667" y="649"/>
      <point x="512" y="649" type="curve" smooth="yes"/>
      <point x="452" y="649"/>
      <point x="395" y="625"/>
      <point x="338" y="574" type="curve"/>
      <point x="352" y="630" type="line"/>
      <point x="130" y="630" type="line"/>
    </contour>
  </outline>
</glyph>
<glyph name="o" format="2">
  <advance width="740"/>
  <unicode hex="006F"/>
  <anchor x="294" y="0" name="bottom"/>
  <anchor x="373" y="315" name="center"/>
  <anchor x="339" y="0" name="ogonek"/>
  <anchor x="452" y="630" name="top"/>
  <anchor x="592" y="630" name="topright"/>
  <outline>
    <contour>
      <point x="340" y="-20" type="curve" smooth="yes"/>
      <point x="543" y="-20"/>
      <point x="719" y="155"/>
      <point x="719" y="356" type="curve" smooth="yes"/>
      <point x="719" y="524"/>
      <point x="588" y="650"/>
      <point x="410" y="650" type="curve" smooth="yes"/>
      <point x="207" y="650"/>
      <point x="31" y="475"/>
      <point x="31" y="274" type="curve" smooth="yes"/>
      <point x="31" y="106"/>
      <point x="162" y="-20"/>
    </contour>
    <contour>
      <point x="363" y="220" type="curve" smooth="yes"/>
      <point x="315" y="220"/>
      <point x="281" y="254"/>
      <point x="281" y="302" type="curve" smooth="yes"/>
      <point x="281" y="360"/>
      <point x="330" y="410"/>
      <point x="387" y="410" type="curve" smooth="yes"/>
      <point x="435" y="410"/>
      <point x="469" y="376"/>
      <point x="469" y="328" type="curve" smooth="yes"/>
      <point x="469" y="270"/>
      <point x="420" y="220"/>
    </contour>
  </outline>
</glyph>
<glyph name="p" format="2">
  <advance width="760"/>
  <unicode hex="0070"/>
  <anchor x="314" y="0" name="bottom"/>
  <anchor x="472" y="630" name="top"/>
  <outline>
    <contour>
      <point x="-95" y="-270" type="line"/>
      <point x="163" y="-270" type="line"/>
      <point x="235" y="15" type="line"/>
      <point x="271" y="-3"/>
      <point x="318" y="-14"/>
      <point x="368" y="-14" type="curve" smooth="yes"/>
      <point x="571" y="-14"/>
      <point x="742" y="161"/>
      <point x="742" y="362" type="curve" smooth="yes"/>
      <point x="742" y="524"/>
      <point x="630" y="644"/>
      <point x="479" y="644" type="curve" smooth="yes"/>
      <point x="424" y="644"/>
      <point x="381" y="628"/>
      <point x="329" y="586" type="curve"/>
      <point x="340" y="630" type="line"/>
      <point x="130" y="630" type="line"/>
    </contour>
    <contour>
      <point x="384" y="220" type="curve" smooth="yes"/>
      <point x="336" y="220"/>
      <point x="302" y="254"/>
      <point x="302" y="302" type="curve" smooth="yes"/>
      <point x="302" y="360"/>
      <point x="350" y="410"/>
      <point x="407" y="410" type="curve" smooth="yes"/>
      <point x="454" y="410"/>
      <point x="488" y="376"/>
      <point x="488" y="328" type="curve" smooth="yes"/>
      <point x="488" y="269"/>
      <point x="441" y="220"/>
    </contour>
  </outline>
</glyph>
<glyph name="q" format="2">
  <advance width="760"/>
  <unicode hex="0071"/>
  <outline>
    <contour>
      <point x="311" y="-270" type="line"/>
      <point x="569" y="-270" type="line"/>
      <point x="795" y="630" type="line"/>
      <point x="573" y="630" type="line"/>
      <point x="562" y="586" type="line"/>
      <point x="526" y="622"/>
      <point x="463" y="644"/>
      <point x="393" y="644" type="curve" smooth="yes"/>
      <point x="196" y="644"/>
      <point x="25" y="469"/>
      <point x="25" y="268" type="curve" smooth="yes"/>
      <point x="25" y="106"/>
      <point x="137" y="-14"/>
      <point x="288" y="-14" type="curve" smooth="yes"/>
      <point x="321" y="-14"/>
      <point x="351" y="-8"/>
      <point x="380" y="6" type="curve"/>
    </contour>
    <contour>
      <point x="362" y="220" type="curve" smooth="yes"/>
      <point x="314" y="220"/>
      <point x="280" y="254"/>
      <point x="280" y="302" type="curve" smooth="yes"/>
      <point x="280" y="360"/>
      <point x="328" y="410"/>
      <point x="385" y="410" type="curve" smooth="yes"/>
      <point x="432" y="410"/>
      <point x="466" y="376"/>
      <point x="466" y="328" type="curve" smooth="yes"/>
      <point x="466" y="269"/>
      <point x="419" y="220"/>
    </contour>
  </outline>
</glyph>
<glyph name="r" format="2">
  <advance width="480"/>
  <unicode hex="0072"/>
  <anchor x="102" y="0" name="bottom"/>
  <anchor x="365" y="630" name="top"/>
  <outline>
    <contour>
      <point x="-27" y="0" type="line"/>
      <point x="237" y="0" type="line"/>
      <point x="302" y="259" type="line" smooth="yes"/>
      <point x="326" y="354"/>
      <point x="390" y="412"/>
      <point x="461" y="412" type="curve" smooth="yes"/>
      <point x="477" y="412"/>
      <point x="492" y="410"/>
      <point x="506" y="406" type="curve"/>
      <point x="506" y="642" type="line"/>
      <point x="440" y="642"/>
      <point x="380" y="617"/>
      <point x="337" y="570" type="curve"/>
      <point x="352" y="630" type="line"/>
      <point x="130" y="630" type="line"/>
    </contour>
  </outline>
</glyph>
<glyph name="s" format="2">
  <advance width="560"/>
  <unicode hex="0073"/>
  <anchor x="231" y="0" name="bottom"/>
  <anchor x="336" y="630" name="top"/>
  <outline>
    <contour>
      <point x="231" y="-20" type="curve" smooth="yes"/>
      <point x="389" y="-20"/>
      <point x="515" y="86"/>
      <point x="515" y="215" type="curve" smooth="yes"/>
      <point x="515" y="285"/>
      <point x="478" y="332"/>
      <point x="389" y="387" type="curve" smooth="yes"/>
      <point x="323" y="428" type="line" smooth="yes"/>
      <point x="315" y="433"/>
      <point x="309" y="440"/>
      <point x="309" y="446" type="curve" smooth="yes"/>
      <point x="309" y="452"/>
      <point x="315" y="460"/>
      <point x="331" y="460" type="curve" smooth="yes"/>
      <point x="370" y="460"/>
      <point x="449" y="409"/>
      <point x="488" y="361" type="curve"/>
      <point x="588" y="560" type="line"/>
      <point x="524" y="615"/>
      <point x="424" y="650"/>
      <point x="336" y="650" type="curve" smooth="yes"/>
      <point x="183" y="650"/>
      <point x="58" y="544"/>
      <point x="58" y="414" type="curve" smooth="yes"/>
      <point x="58" y="343"/>
      <point x="94" y="292"/>
      <point x="181" y="242" type="curve" smooth="yes"/>
      <point x="250" y="202" type="line" smooth="yes"/>
      <point x="262" y="195"/>
      <point x="265" y="191"/>
      <point x="265" y="186" type="curve" smooth="yes"/>
      <point x="265" y="177"/>
      <point x="257" y="170"/>
      <point x="239" y="170" type="curve" smooth="yes"/>
      <point x="191" y="170"/>
      <point x="111" y="217"/>
      <point x="64" y="270" type="curve"/>
      <point x="-35" y="74" type="line"/>
      <point x="31" y="17"/>
      <point x="138" y="-20"/>
    </contour>
  </outline>
</glyph>
<glyph name="t" format="2">
  <advance width="450"/>
  <unicode hex="0074"/>
  <anchor x="146" y="0" name="bottom"/>
  <anchor x="224" y="300" name="center"/>
  <anchor x="352" y="822" name="top"/>
  <anchor x="512" y="960" name="topright"/>
  <outline>
    <contour>
      <point x="17" y="0" type="line"/>
      <point x="275" y="0" type="line"/>
      <point x="382" y="426" type="line"/>
      <point x="463" y="426" type="line"/>
      <point x="514" y="630" type="line"/>
      <point x="430" y="630" type="line"/>
      <point x="478" y="822" type="line"/>
      <point x="226" y="822" type="line"/>
      <point x="178" y="630" type="line"/>
      <point x="100" y="630" type="line"/>
      <point x="49" y="426" type="line"/>
      <point x="124" y="426" type="line"/>
    </contour>
  </outline>
</glyph>
<glyph name="u" format="2">
  <advance width="740"/>
  <unicode hex="0075"/>
  <anchor x="292" y="0" name="bottom"/>
  <anchor x="506" y="0" name="ogonek"/>
  <anchor x="449" y="630" name="top"/>
  <anchor x="633" y="630" name="topright"/>
  <outline>
    <contour>
      <point x="235" y="-19" type="curve" smooth="yes"/>
      <point x="295" y="-19"/>
      <point x="352" y="5"/>
      <point x="409" y="56" type="curve"/>
      <point x="395" y="0" type="line"/>
      <point x="617" y="0" type="line"/>
      <point x="774" y="630" type="line"/>
      <point x="510" y="630" type="line"/>
      <point x="421" y="272" type="line" smooth="yes"/>
      <point x="412" y="236"/>
      <point x="386" y="214"/>
      <point x="353" y="214" type="curve" smooth="yes"/>
      <point x="314" y="214"/>
      <point x="292" y="245"/>
      <point x="303" y="287" type="curve" smooth="yes"/>
      <point x="388" y="630" type="line"/>
      <point x="124" y="630" type="line"/>
      <point x="36" y="275" type="line" smooth="yes"/>
      <point x="-5" y="108"/>
      <point x="80" y="-19"/>
    </contour>
  </outline>
</glyph>
<glyph name="v" format="2">
  <advance width="730"/>
  <unicode hex="0076"/>
  <outline>
    <contour>
      <point x="215" y="0" type="line"/>
      <point x="363" y="0" type="line"/>
      <point x="824" y="630" type="line"/>
      <point x="521" y="630" type="line"/>
      <point x="452" y="528" type="line" smooth="yes"/>
      <point x="433" y="500"/>
      <point x="412" y="467"/>
      <point x="383" y="417" type="curve"/>
      <point x="381" y="467"/>
      <point x="375" y="500"/>
      <point x="370" y="528" type="curve" smooth="yes"/>
      <point x="353" y="630" type="line"/>
      <point x="70" y="630" type="line"/>
    </contour>
  </outline>
</glyph>
<glyph name="w" format="2">
  <advance width="1060"/>
  <unicode hex="0077"/>
  <anchor x="460" y="0" name="bottom"/>
  <anchor x="618" y="630" name="top"/>
  <outline>
    <contour>
      <point x="190" y="0" type="line"/>
      <point x="342" y="0" type="line"/>
      <point x="426" y="121" type="line" smooth="yes"/>
      <point x="458" y="167"/>
      <point x="482" y="205"/>
      <point x="518" y="269" type="curve"/>
      <point x="524" y="205"/>
      <point x="528" y="167"/>
      <point x="538" y="120" type="curve" smooth="yes"/>
      <point x="564" y="0" type="line"/>
      <point x="718" y="0" type="line"/>
      <point x="1154" y="630" type="line"/>
      <point x="850" y="630" type="line"/>
      <point x="784" y="528" type="line" smooth="yes"/>
      <point x="762" y="494"/>
      <point x="738" y="452"/>
      <point x="702" y="380" type="curve"/>
      <point x="703" y="452"/>
      <point x="696" y="494"/>
      <point x="694" y="528" type="curve" smooth="yes"/>
      <point x="688" y="630" type="line"/>
      <point x="516" y="630" type="line"/>
      <point x="458" y="528" type="line" smooth="yes"/>
      <point x="439" y="494"/>
      <point x="412" y="452"/>
      <point x="376" y="380" type="curve"/>
      <point x="377" y="452"/>
      <point x="373" y="494"/>
      <point x="368" y="528" type="curve" smooth="yes"/>
      <point x="354" y="630" type="line"/>
      <point x="70" y="630" type="line"/>
    </contour>
  </outline>
</glyph>
<glyph name="x" format="2">
  <advance width="730"/>
  <unicode hex="0078"/>
  <outline>
    <contour>
      <point x="-81" y="0" type="line"/>
      <point x="226" y="0" type="line"/>
      <point x="276" y="66" type="line" smooth="yes"/>
      <point x="293" y="89"/>
      <point x="313" y="113"/>
      <point x="335" y="155" type="curve"/>
      <point x="343" y="112"/>
      <point x="351" y="89"/>
      <point x="358" y="65" type="curve" smooth="yes"/>
      <point x="376" y="0" type="line"/>
      <point x="661" y="0" type="line"/>
      <point x="541" y="320" type="line"/>
      <point x="792" y="630" type="line"/>
      <point x="508" y="630" type="line"/>
      <point x="466" y="573" type="line" smooth="yes"/>
      <point x="449" y="549"/>
      <point x="431" y="527"/>
      <point x="407" y="483" type="curve"/>
      <point x="398" y="528"/>
      <point x="391" y="551"/>
      <point x="383" y="574" type="curve" smooth="yes"/>
      <point x="364" y="630" type="line"/>
      <point x="104" y="630" type="line"/>
      <point x="207" y="350" type="line"/>
    </contour>
  </outline>
</glyph>
<glyph name="y" format="2">
  <advance width="730"/>
  <unicode hex="0079"/>
  <anchor x="502" y="30" name="bottom"/>
  <anchor x="437" y="630" name="top"/>
  <outline>
    <contour>
      <point x="-146" y="-270" type="line"/>
      <point x="164" y="-270" type="line"/>
      <point x="824" y="630" type="line"/>
      <point x="520" y="630" type="line"/>
      <point x="452" y="528" type="line" smooth="yes"/>
      <point x="433" y="500"/>
      <point x="413" y="467"/>
      <point x="384" y="417" type="curve"/>
      <point x="382" y="467"/>
      <point x="376" y="500"/>
      <point x="371" y="528" type="curve" smooth="yes"/>
      <point x="353" y="630" type="line"/>
      <point x="70" y="630" type="line"/>
      <point x="182" y="169" type="line"/>
    </contour>
  </outline>
</glyph>
<glyph name="z" format="2">
  <advance width="580"/>
  <unicode hex="007A"/>
  <anchor x="195" y="0" name="bottom"/>
  <anchor x="283" y="304" name="center"/>
  <anchor x="377" y="630" name="top"/>
  <outline>
    <contour>
      <point x="-84" y="0" type="line"/>
      <point x="472" y="0" type="line"/>
      <point x="523" y="204" type="line"/>
      <point x="345" y="204" type="line"/>
      <point x="665" y="628" type="line"/>
      <point x="666" y="630" type="line"/>
      <point x="110" y="630" type="line"/>
      <point x="59" y="426" type="line"/>
      <point x="235" y="426" type="line"/>
      <point x="-83" y="2" type="line"/>
    </contour>
  </outline>
</glyph>
<glyph name="braceleft" format="2">
  <advance width="480"/>
  <unicode hex="007B"/>
  <outline>
    <contour>
      <point x="310" y="-187" type="curve"/>
      <point x="353" y="-13" type="line"/>
      <point x="295" y="-13"/>
      <point x="253" y="31"/>
      <point x="267" y="87" type="curve" smooth="yes"/>
      <point x="278" y="131"/>
      <point x="313" y="197"/>
      <point x="328" y="258" type="curve" smooth="yes"/>
      <point x="347" y="332"/>
      <point x="308" y="378"/>
      <point x="276" y="403" type="curve"/>
      <point x="318" y="420"/>
      <point x="380" y="453"/>
      <point x="399" y="526" type="curve" smooth="yes"/>
      <point x="414" y="587"/>
      <point x="410" y="659"/>
      <point x="421" y="703" type="curve" smooth="yes"/>
      <point x="434" y="756"/>
      <point x="474" y="786"/>
      <point x="554" y="791" type="curve"/>
      <point x="598" y="967" type="line"/>
      <point x="368" y="978"/>
      <point x="232" y="922"/>
      <point x="193" y="768" type="curve" smooth="yes"/>
      <point x="176" y="698"/>
      <point x="183" y="638"/>
      <point x="169" y="581" type="curve" smooth="yes"/>
      <point x="148" y="495"/>
      <point x="109" y="462"/>
      <point x="45" y="433" type="curve"/>
      <point x="94" y="389"/>
      <point x="116" y="348"/>
      <point x="95" y="262" type="curve" smooth="yes"/>
      <point x="81" y="205"/>
      <point x="49" y="150"/>
      <point x="32" y="80" type="curve" smooth="yes"/>
      <point x="-7" y="-71"/>
      <point x="100" y="-187"/>
    </contour>
  </outline>
</glyph>
<glyph name="bar" format="2">
  <advance width="480"/>
  <unicode hex="007C"/>
  <outline>
    <contour>
      <point x="144" y="-180" type="line"/>
      <point x="336" y="-180" type="line"/>
      <point x="336" y="960" type="line"/>
      <point x="144" y="960" type="line"/>
    </contour>
  </outline>
</glyph>
<glyph name="braceright" format="2">
  <advance width="480"/>
  <unicode hex="007D"/>
  <outline>
    <contour>
      <point x="-73" y="-186" type="line"/>
      <point x="157" y="-197"/>
      <point x="293" y="-141"/>
      <point x="332" y="13" type="curve" smooth="yes"/>
      <point x="349" y="83"/>
      <point x="342" y="143"/>
      <point x="356" y="200" type="curve" smooth="yes"/>
      <point x="377" y="286"/>
      <point x="416" y="319"/>
      <point x="480" y="348" type="curve"/>
      <point x="431" y="392"/>
      <point x="409" y="433"/>
      <point x="430" y="519" type="curve" smooth="yes"/>
      <point x="444" y="576"/>
      <point x="476" y="631"/>
      <point x="493" y="701" type="curve" smooth="yes"/>
      <point x="532" y="852"/>
      <point x="425" y="968"/>
      <point x="215" y="968" type="curve"/>
      <point x="172" y="794" type="line"/>
      <point x="230" y="794"/>
      <point x="272" y="750"/>
      <point x="258" y="694" type="curve" smooth="yes"/>
      <point x="247" y="650"/>
      <point x="212" y="584"/>
      <point x="197" y="523" type="curve" smooth="yes"/>
      <point x="178" y="449"/>
      <point x="217" y="403"/>
      <point x="249" y="378" type="curve"/>
      <point x="207" y="361"/>
      <point x="145" y="328"/>
      <point x="126" y="255" type="curve" smooth="yes"/>
      <point x="111" y="194"/>
      <point x="115" y="122"/>
      <point x="104" y="78" type="curve" smooth="yes"/>
      <point x="91" y="25"/>
      <point x="51" y="-5"/>
      <point x="-29" y="-10" type="curve"/>
    </contour>
  </outline>
</glyph>
<glyph name="asciitilde" format="2">
  <advance width="750"/>
  <unicode hex="007E"/>
  <outline>
    <contour>
      <point x="115" y="330" type="line"/>
      <point x="164" y="378"/>
      <point x="202" y="396"/>
      <point x="253" y="396" type="curve" smooth="yes"/>
      <point x="365" y="396"/>
      <point x="414" y="310"/>
      <point x="548" y="310" type="curve" smooth="yes"/>
      <point x="633" y="310"/>
      <point x="705" y="345"/>
      <point x="768" y="411" type="curve"/>
      <point x="711" y="570" type="line"/>
      <point x="662" y="522"/>
      <point x="624" y="504"/>
      <point x="573" y="504" type="curve" smooth="yes"/>
      <point x="461" y="504"/>
      <point x="412" y="590"/>
      <point x="278" y="590" type="curve" smooth="yes"/>
      <point x="193" y="590"/>
      <point x="121" y="555"/>
      <point x="58" y="489" type="curve"/>
    </contour>
  </outline>
</glyph>
<glyph name="exclamdown" format="2">
  <advance width="480"/>
  <unicode hex="00A1"/>
  <outline>
    <contour>
      <point x="-77" y="-270" type="line"/>
      <point x="271" y="-270" type="line"/>
      <point x="353" y="300" type="line"/>
      <point x="125" y="300" type="line"/>
    </contour>
    <contour>
      <point x="275" y="370" type="curve" smooth="yes"/>
      <point x="358" y="370"/>
      <point x="432" y="444"/>
      <point x="432" y="525" type="curve" smooth="yes"/>
      <point x="432" y="599"/>
      <point x="376" y="650"/>
      <point x="309" y="650" type="curve" smooth="yes"/>
      <point x="226" y="650"/>
      <point x="152" y="576"/>
      <point x="152" y="493" type="curve" smooth="yes"/>
      <point x="152" y="423"/>
      <point x="203" y="370"/>
    </contour>
  </outline>
</glyph>
<glyph name="cent" format="2">
  <advance width="750"/>
  <unicode hex="00A2"/>
  <outline>
    <contour>
      <point x="275" y="0" type="line"/>
      <point x="413" y="0" type="line"/>
      <point x="442" y="115" type="line"/>
      <point x="505" y="116"/>
      <point x="566" y="133"/>
      <point x="618" y="170" type="curve"/>
      <point x="619" y="414" type="line"/>
      <point x="574" y="371"/>
      <point x="534" y="355"/>
      <point x="491" y="355" type="curve" smooth="yes"/>
      <point x="429" y="355"/>
      <point x="387" y="389"/>
      <point x="387" y="443" type="curve" smooth="yes"/>
      <point x="387" y="500"/>
      <point x="434" y="544"/>
      <point x="496" y="544" type="curve" smooth="yes"/>
      <point x="538" y="544"/>
      <point x="577" y="525"/>
      <point x="603" y="491" type="curve"/>
      <point x="715" y="716" type="line"/>
      <point x="684" y="740"/>
      <point x="647" y="758"/>
      <point x="605" y="770" type="curve"/>
      <point x="631" y="870" type="line"/>
      <point x="493" y="870" type="line"/>
      <point x="471" y="784" type="line"/>
      <point x="277" y="769"/>
      <point x="116" y="603"/>
      <point x="116" y="413" type="curve" smooth="yes"/>
      <point x="116" y="281"/>
      <point x="193" y="179"/>
      <point x="309" y="136" type="curve"/>
    </contour>
  </outline>
</glyph>
<glyph name="sterling" format="2">
  <advance width="750"/>
  <unicode hex="00A3"/>
  <outline>
    <contour>
      <point x="-2" y="0" type="line"/>
      <point x="627" y="0" type="line"/>
      <point x="683" y="222" type="line"/>
      <point x="395" y="222" type="line"/>
      <point x="407" y="238"/>
      <point x="416" y="257"/>
      <point x="421" y="279" type="curve" smooth="yes"/>
      <point x="425" y="294"/>
      <point x="427" y="308"/>
      <point x="428" y="324" type="curve"/>
      <point x="606" y="324" type="line"/>
      <point x="646" y="486" type="line"/>
      <point x="437" y="486" type="line"/>
      <point x="439" y="502"/>
      <point x="443" y="519"/>
      <point x="447" y="536" type="curve" smooth="yes"/>
      <point x="467" y="617"/>
      <point x="518" y="662"/>
      <point x="585" y="662" type="curve" smooth="yes"/>
      <point x="641" y="662"/>
      <point x="691" y="632"/>
      <point x="719" y="581" type="curve"/>
      <point x="839" y="824" type="line"/>
      <point x="763" y="897"/>
      <point x="670" y="920"/>
      <point x="587" y="920" type="curve" smooth="yes"/>
      <point x="396" y="920"/>
      <point x="230" y="797"/>
      <point x="179" y="593" type="curve" smooth="yes"/>
      <point x="169" y="554"/>
      <point x="165" y="518"/>
      <point x="163" y="486" type="curve"/>
      <point x="76" y="486" type="line"/>
      <point x="36" y="324" type="line"/>
      <point x="165" y="324" type="line"/>
      <point x="164" y="296"/>
      <point x="160" y="268"/>
      <point x="153" y="240" type="curve" smooth="yes"/>
      <point x="130" y="155"/>
      <point x="77" y="75"/>
      <point x="-2" y="2" type="curve"/>
    </contour>
  </outline>
</glyph>
<glyph name="currency" format="2">
  <advance width="750"/>
  <unicode hex="00A4"/>
  <outline>
    <contour>
      <point x="377" y="115" type="curve" smooth="yes"/>
      <point x="437" y="115"/>
      <point x="496" y="130"/>
      <point x="547" y="157" type="curve"/>
      <point x="602" y="84" type="line"/>
      <point x="710" y="170" type="line"/>
      <point x="657" y="241" type="line"/>
      <point x="719" y="308"/>
      <point x="758" y="396"/>
      <point x="758" y="491" type="curve" smooth="yes"/>
      <point x="758" y="540"/>
      <point x="747" y="585"/>
      <point x="727" y="624" type="curve"/>
      <point x="846" y="720" type="line"/>
      <point x="774" y="816" type="line"/>
      <point x="651" y="717" type="line"/>
      <point x="598" y="760"/>
      <point x="527" y="785"/>
      <point x="447" y="785" type="curve" smooth="yes"/>
      <point x="387" y="785"/>
      <point x="330" y="770"/>
      <point x="278" y="744" type="curve"/>
      <point x="224" y="816" type="line"/>
      <point x="116" y="730" type="line"/>
      <point x="169" y="661" type="line"/>
      <point x="105" y="593"/>
      <point x="66" y="504"/>
      <point x="66" y="409" type="curve" smooth="yes"/>
      <point x="66" y="360"/>
      <point x="77" y="314"/>
      <point x="98" y="274" type="curve"/>
      <point x="-20" y="180" type="line"/>
      <point x="52" y="84" type="line"/>
      <point x="174" y="182" type="line"/>
      <point x="227" y="140"/>
      <point x="298" y="115"/>
    </contour>
    <contour>
      <point x="400" y="355" type="curve" smooth="yes"/>
      <point x="352" y="355"/>
      <point x="318" y="389"/>
      <point x="318" y="437" type="curve" smooth="yes"/>
      <point x="318" y="495"/>
      <point x="367" y="545"/>
      <point x="424" y="545" type="curve" smooth="yes"/>
      <point x="472" y="545"/>
      <point x="506" y="511"/>
      <point x="506" y="463" type="curve" smooth="yes"/>
      <point x="506" y="405"/>
      <point x="457" y="355"/>
    </contour>
  </outline>
</glyph>
<glyph name="yen" format="2">
  <advance width="750"/>
  <unicode hex="00A5"/>
  <outline>
    <contour>
      <point x="154" y="0" type="line"/>
      <point x="448" y="0" type="line"/>
      <point x="520" y="288" type="line"/>
      <point x="718" y="288" type="line"/>
      <point x="751" y="420" type="line"/>
      <point x="567" y="420" type="line"/>
      <point x="568" y="426" type="line"/>
      <point x="609" y="480" type="line"/>
      <point x="765" y="480" type="line"/>
      <point x="798" y="612" type="line"/>
      <point x="704" y="612" type="line"/>
      <point x="912" y="900" type="line"/>
      <point x="603" y="900" type="line"/>
      <point x="531" y="792" type="line" smooth="yes"/>
      <point x="511" y="761"/>
      <point x="486" y="725"/>
      <point x="460" y="682" type="curve"/>
      <point x="454" y="724"/>
      <point x="448" y="760"/>
      <point x="443" y="791" type="curve" smooth="yes"/>
      <point x="424" y="900" type="line"/>
      <point x="138" y="900" type="line"/>
      <point x="202" y="612" type="line"/>
      <point x="108" y="612" type="line"/>
      <point x="75" y="480" type="line"/>
      <point x="231" y="480" type="line"/>
      <point x="246" y="426" type="line"/>
      <point x="245" y="420" type="line"/>
      <point x="61" y="420" type="line"/>
      <point x="28" y="288" type="line"/>
      <point x="226" y="288" type="line"/>
    </contour>
  </outline>
</glyph>
<glyph name="brokenbar" format="2">
  <advance width="480"/>
  <unicode hex="00A6"/>
  <outline>
    <contour>
      <point x="166" y="-180" type="line"/>
      <point x="358" y="-180" type="line"/>
      <point x="358" y="300" type="line"/>
      <point x="166" y="300" type="line"/>
    </contour>
    <contour>
      <point x="166" y="480" type="line"/>
      <point x="358" y="480" type="line"/>
      <point x="358" y="960" type="line"/>
      <point x="166" y="960" type="line"/>
    </contour>
  </outline>
</glyph>
<glyph name="section" format="2">
  <advance width="750"/>
  <unicode hex="00A7"/>
  <outline>
    <contour>
      <point x="290" y="-200" type="curve" smooth="yes"/>
      <point x="472" y="-200"/>
      <point x="608" y="-78"/>
      <point x="608" y="84" type="curve" smooth="yes"/>
      <point x="608" y="116"/>
      <point x="601" y="144"/>
      <point x="585" y="173" type="curve"/>
      <point x="683" y="221"/>
      <point x="744" y="312"/>
      <point x="744" y="412" type="curve" smooth="yes"/>
      <point x="744" y="492"/>
      <point x="706" y="563"/>
      <point x="615" y="623" type="curve" smooth="yes"/>
      <point x="477" y="713" type="line" smooth="yes"/>
      <point x="461" y="723"/>
      <point x="454" y="732"/>
      <point x="454" y="741" type="curve" smooth="yes"/>
      <point x="454" y="753"/>
      <point x="466" y="761"/>
      <point x="486" y="761" type="curve" smooth="yes"/>
      <point x="541" y="761"/>
      <point x="623" y="711"/>
      <point x="668" y="651" type="curve"/>
      <point x="783" y="877" type="line"/>
      <point x="709" y="942"/>
      <point x="605" y="980"/>
      <point x="501" y="980" type="curve" smooth="yes"/>
      <point x="324" y="980"/>
      <point x="187" y="857"/>
      <point x="187" y="699" type="curve" smooth="yes"/>
      <point x="187" y="667"/>
      <point x="195" y="638"/>
      <point x="210" y="607" type="curve"/>
      <point x="114" y="560"/>
      <point x="51" y="467"/>
      <point x="51" y="369" type="curve" smooth="yes"/>
      <point x="51" y="286"/>
      <point x="96" y="209"/>
      <point x="186" y="153" type="curve" smooth="yes"/>
      <point x="313" y="73" type="line" smooth="yes"/>
      <point x="331" y="62"/>
      <point x="341" y="51"/>
      <point x="341" y="41" type="curve" smooth="yes"/>
      <point x="341" y="26"/>
      <point x="330" y="19"/>
      <point x="307" y="19" type="curve" smooth="yes"/>
      <point x="241" y="19"/>
      <point x="153" y="74"/>
      <point x="102" y="144" type="curve"/>
      <point x="-16" y="-87" type="line"/>
      <point x="53" y="-154"/>
      <point x="175" y="-200"/>
    </contour>
    <contour>
      <point x="415" y="334" type="curve" smooth="yes"/>
      <point x="407" y="334"/>
      <point x="396" y="336"/>
      <point x="389" y="339" type="curve" smooth="yes"/>
      <point x="379" y="344"/>
      <point x="365" y="351"/>
      <point x="355" y="358" type="curve" smooth="yes"/>
      <point x="335" y="371"/>
      <point x="324" y="386"/>
      <point x="324" y="403" type="curve" smooth="yes"/>
      <point x="324" y="429"/>
      <point x="348" y="448"/>
      <point x="380" y="448" type="curve" smooth="yes"/>
      <point x="390" y="448"/>
      <point x="400" y="446"/>
      <point x="406" y="443" type="curve" smooth="yes"/>
      <point x="419" y="437"/>
      <point x="431" y="430"/>
      <point x="439" y="424" type="curve" smooth="yes"/>
      <point x="464" y="405"/>
      <point x="471" y="396"/>
      <point x="471" y="382" type="curve" smooth="yes"/>
      <point x="471" y="355"/>
      <point x="446" y="334"/>
    </contour>
  </outline>
</glyph>
<glyph name="copyright" format="2">
  <advance width="1260"/>
  <unicode hex="00A9"/>
  <outline>
    <contour>
      <point x="604" y="-102" type="curve" smooth="yes"/>
      <point x="939" y="-102"/>
      <point x="1231" y="183"/>
      <point x="1231" y="511" type="curve" smooth="yes"/>
      <point x="1231" y="793"/>
      <point x="1016" y="1002"/>
      <point x="730" y="1002" type="curve" smooth="yes"/>
      <point x="395" y="1002"/>
      <point x="103" y="717"/>
      <point x="103" y="389" type="curve" smooth="yes"/>
      <point x="103" y="107"/>
      <point x="318" y="-102"/>
    </contour>
    <contour>
      <point x="623" y="73" type="curve" smooth="yes"/>
      <point x="430" y="73"/>
      <point x="290" y="213"/>
      <point x="290" y="405" type="curve" smooth="yes"/>
      <point x="290" y="632"/>
      <point x="484" y="827"/>
      <point x="711" y="827" type="curve" smooth="yes"/>
      <point x="904" y="827"/>
      <point x="1044" y="687"/>
      <point x="1044" y="495" type="curve" smooth="yes"/>
      <point x="1044" y="268"/>
      <point x="850" y="73"/>
    </contour>
    <contour>
      <point x="666" y="168" type="curve" smooth="yes"/>
      <point x="722" y="168"/>
      <point x="776" y="181"/>
      <point x="821" y="214" type="curve"/>
      <point x="822" y="420" type="line"/>
      <point x="784" y="383"/>
      <point x="750" y="370"/>
      <point x="714" y="370" type="curve" smooth="yes"/>
      <point x="662" y="370"/>
      <point x="627" y="399"/>
      <point x="627" y="444" type="curve" smooth="yes"/>
      <point x="627" y="492"/>
      <point x="666" y="529"/>
      <point x="718" y="529" type="curve" smooth="yes"/>
      <point x="754" y="529"/>
      <point x="786" y="513"/>
      <point x="808" y="485" type="curve"/>
      <point x="903" y="674" type="line"/>
      <point x="855" y="710"/>
      <point x="788" y="732"/>
      <point x="721" y="732" type="curve" smooth="yes"/>
      <point x="547" y="732"/>
      <point x="398" y="586"/>
      <point x="398" y="419" type="curve" smooth="yes"/>
      <point x="398" y="272"/>
      <point x="511" y="168"/>
    </contour>
  </outline>
</glyph>
<glyph name="ordfeminine" format="2">
  <advance width="540"/>
  <unicode hex="00AA"/>
  <outline>
    <contour>
      <point x="275" y="348" type="curve" smooth="yes"/>
      <point x="312" y="348"/>
      <point x="347" y="360"/>
      <point x="380" y="387" type="curve"/>
      <point x="374" y="360" type="line"/>
      <point x="519" y="360" type="line"/>
      <point x="623" y="780" type="line"/>
      <point x="466" y="780" type="line"/>
      <point x="459" y="750" type="line"/>
      <point x="432" y="774"/>
      <point x="393" y="792"/>
      <point x="346" y="792" type="curve" smooth="yes"/>
      <point x="211" y="792"/>
      <point x="95" y="674"/>
      <point x="95" y="538" type="curve" smooth="yes"/>
      <point x="95" y="429"/>
      <point x="171" y="348"/>
    </contour>
    <contour>
      <point x="328" y="506" type="curve" smooth="yes"/>
      <point x="295" y="506"/>
      <point x="272" y="529"/>
      <point x="272" y="561" type="curve" smooth="yes"/>
      <point x="272" y="600"/>
      <point x="305" y="634"/>
      <point x="343" y="634" type="curve" smooth="yes"/>
      <point x="375" y="634"/>
      <point x="398" y="611"/>
      <point x="398" y="579" type="curve" smooth="yes"/>
      <point x="398" y="539"/>
      <point x="366" y="506"/>
    </contour>
  </outline>
</glyph>
<glyph name="logicalnot" format="2">
  <advance width="750"/>
  <unicode hex="00AC"/>
  <outline>
    <contour>
      <point x="467" y="190" type="line"/>
      <point x="653" y="190" type="line"/>
      <point x="743" y="552" type="line"/>
      <point x="103" y="552" type="line"/>
      <point x="53" y="352" type="line"/>
      <point x="507" y="352" type="line"/>
    </contour>
  </outline>
</glyph>
<glyph name="registered" format="2">
  <advance width="660"/>
  <unicode hex="00AE"/>
  <outline>
    <contour>
      <point x="355" y="378" type="curve" smooth="yes"/>
      <point x="523" y="378"/>
      <point x="675" y="527"/>
      <point x="675" y="694" type="curve" smooth="yes"/>
      <point x="675" y="834"/>
      <point x="567" y="942"/>
      <point x="422" y="942" type="curve" smooth="yes"/>
      <point x="251" y="942"/>
      <point x="101" y="794"/>
      <point x="101" y="628" type="curve" smooth="yes"/>
      <point x="101" y="482"/>
      <point x="216" y="378"/>
    </contour>
    <contour>
      <point x="367" y="478" type="curve" smooth="yes"/>
      <point x="273" y="478"/>
      <point x="206" y="547"/>
      <point x="206" y="638" type="curve" smooth="yes"/>
      <point x="206" y="745"/>
      <point x="298" y="842"/>
      <point x="409" y="842" type="curve" smooth="yes"/>
      <point x="503" y="842"/>
      <point x="570" y="772"/>
      <point x="570" y="682" type="curve" smooth="yes"/>
      <point x="570" y="576"/>
      <point x="478" y="478"/>
    </contour>
    <contour>
      <point x="238" y="546" type="line"/>
      <point x="340" y="546" type="line"/>
      <point x="355" y="606" type="line"/>
      <point x="375" y="606" type="line"/>
      <point x="395" y="546" type="line"/>
      <point x="506" y="546" type="line"/>
      <point x="480" y="617" type="line"/>
      <point x="514" y="634"/>
      <point x="539" y="670"/>
      <point x="539" y="706" type="curve" smooth="yes"/>
      <point x="539" y="750"/>
      <point x="503" y="786"/>
      <point x="456" y="786" type="curve" smooth="yes"/>
      <point x="297" y="786" type="line"/>
    </contour>
    <contour>
      <point x="371" y="668" type="line"/>
      <point x="384" y="718" type="line"/>
      <point x="398" y="718" type="line" smooth="yes"/>
      <point x="414" y="718"/>
      <point x="424" y="709"/>
      <point x="424" y="696" type="curve" smooth="yes"/>
      <point x="424" y="681"/>
      <point x="410" y="668"/>
      <point x="392" y="668" type="curve" smooth="yes"/>
    </contour>
  </outline>
</glyph>
<glyph name="degree" format="2">
  <advance width="480"/>
  <unicode hex="00B0"/>
  <outline>
    <contour>
      <point x="319" y="498" type="curve" smooth="yes"/>
      <point x="446" y="498"/>
      <point x="555" y="606"/>
      <point x="555" y="730" type="curve" smooth="yes"/>
      <point x="555" y="835"/>
      <point x="475" y="912"/>
      <point x="363" y="912" type="curve" smooth="yes"/>
      <point x="236" y="912"/>
      <point x="127" y="804"/>
      <point x="127" y="680" type="curve" smooth="yes"/>
      <point x="127" y="575"/>
      <point x="207" y="498"/>
    </contour>
    <contour>
      <point x="334" y="646" type="curve" smooth="yes"/>
      <point x="304" y="646"/>
      <point x="282" y="668"/>
      <point x="282" y="697" type="curve" smooth="yes"/>
      <point x="282" y="733"/>
      <point x="313" y="764"/>
      <point x="348" y="764" type="curve" smooth="yes"/>
      <point x="378" y="764"/>
      <point x="400" y="742"/>
      <point x="400" y="713" type="curve" smooth="yes"/>
      <point x="400" y="677"/>
      <point x="369" y="646"/>
    </contour>
  </outline>
</glyph>
<glyph name="plusminus" format="2">
  <advance width="750"/>
  <unicode hex="00B1"/>
  <outline>
    <contour>
      <point x="257" y="222" type="line"/>
      <point x="455" y="222" type="line"/>
      <point x="502" y="412" type="line"/>
      <point x="738" y="412" type="line"/>
      <point x="787" y="608" type="line"/>
      <point x="551" y="608" type="line"/>
      <point x="605" y="823" type="line"/>
      <point x="407" y="823" type="line"/>
      <point x="353" y="608" type="line"/>
      <point x="117" y="608" type="line"/>
      <point x="68" y="412" type="line"/>
      <point x="304" y="412" type="line"/>
    </contour>
    <contour>
      <point x="-15" y="0" type="line"/>
      <point x="615" y="0" type="line"/>
      <point x="656" y="162" type="line"/>
      <point x="26" y="162" type="line"/>
    </contour>
  </outline>
</glyph>
<glyph name="micro" format="2">
  <advance width="770"/>
  <unicode hex="00B5"/>
  <unicode hex="03BC"/>
  <outline>
    <contour>
      <point x="-94" y="-270" type="line"/>
      <point x="164" y="-270" type="line"/>
      <point x="231" y="1" type="line"/>
      <point x="248" y="-10"/>
      <point x="276" y="-20"/>
      <point x="317" y="-20" type="curve" smooth="yes"/>
      <point x="379" y="-20"/>
      <point x="432" y="-1"/>
      <point x="477" y="37" type="curve"/>
      <point x="512" y="7"/>
      <point x="561" y="-13"/>
      <point x="619" y="-20" type="curve"/>
      <point x="729" y="210" type="line"/>
      <point x="697" y="214"/>
      <point x="682" y="239"/>
      <point x="690" y="271" type="curve" smooth="yes"/>
      <point x="780" y="630" type="line"/>
      <point x="516" y="630" type="line"/>
      <point x="427" y="272" type="line" smooth="yes"/>
      <point x="418" y="236"/>
      <point x="392" y="214"/>
      <point x="359" y="214" type="curve" smooth="yes"/>
      <point x="320" y="214"/>
      <point x="299" y="245"/>
      <point x="309" y="287" type="curve" smooth="yes"/>
      <point x="394" y="630" type="line"/>
      <point x="130" y="630" type="line"/>
    </contour>
  </outline>
</glyph>
<glyph name="paragraph" format="2">
  <advance width="750"/>
  <unicode hex="00B6"/>
  <outline>
    <contour>
      <point x="115" y="-180" type="line"/>
      <point x="313" y="-180" type="line"/>
      <point x="557" y="798" type="line"/>
      <point x="629" y="798" type="line"/>
      <point x="385" y="-180" type="line"/>
      <point x="583" y="-180" type="line"/>
      <point x="867" y="960" type="line"/>
      <point x="507" y="960" type="line" smooth="yes"/>
      <point x="254" y="960"/>
      <point x="104" y="791"/>
      <point x="104" y="600" type="curve" smooth="yes"/>
      <point x="104" y="492"/>
      <point x="160" y="401"/>
      <point x="250" y="361" type="curve"/>
    </contour>
  </outline>
</glyph>
<glyph name="ordmasculine" format="2">
  <advance width="540"/>
  <unicode hex="00BA"/>
  <outline>
    <contour>
      <point x="313" y="342" type="curve" smooth="yes"/>
      <point x="454" y="342"/>
      <point x="577" y="460"/>
      <point x="577" y="598" type="curve" smooth="yes"/>
      <point x="577" y="713"/>
      <point x="486" y="798"/>
      <point x="361" y="798" type="curve" smooth="yes"/>
      <point x="220" y="798"/>
      <point x="97" y="680"/>
      <point x="97" y="542" type="curve" smooth="yes"/>
      <point x="97" y="427"/>
      <point x="188" y="342"/>
    </contour>
    <contour>
      <point x="329" y="506" type="curve" smooth="yes"/>
      <point x="297" y="506"/>
      <point x="274" y="529"/>
      <point x="274" y="561" type="curve" smooth="yes"/>
      <point x="274" y="601"/>
      <point x="307" y="634"/>
      <point x="345" y="634" type="curve" smooth="yes"/>
      <point x="377" y="634"/>
      <point x="400" y="611"/>
      <point x="400" y="579" type="curve" smooth="yes"/>
      <point x="400" y="539"/>
      <point x="367" y="506"/>
    </contour>
  </outline>
</glyph>
<glyph name="questiondown" format="2">
  <advance width="480"/>
  <unicode hex="00BF"/>
  <outline>
    <contour>
      <point x="158" y="-290" type="curve" smooth="yes"/>
      <point x="227" y="-290"/>
      <point x="274" y="-274"/>
      <point x="320" y="-253" type="curve"/>
      <point x="381" y="-9" type="line"/>
      <point x="341" y="-38"/>
      <point x="291" y="-62"/>
      <point x="251" y="-62" type="curve" smooth="yes"/>
      <point x="218" y="-62"/>
      <point x="199" y="-46"/>
      <point x="199" y="-25" type="curve" smooth="yes"/>
      <point x="199" y="26"/>
      <point x="304" y="87"/>
      <point x="354" y="300" type="curve"/>
      <point x="122" y="300" type="line"/>
      <point x="76" y="161"/>
      <point x="-95" y="83"/>
      <point x="-95" y="-88" type="curve" smooth="yes"/>
      <point x="-95" y="-233"/>
      <point x="28" y="-290"/>
    </contour>
    <contour>
      <point x="275" y="370" type="curve" smooth="yes"/>
      <point x="358" y="370"/>
      <point x="432" y="444"/>
      <point x="432" y="525" type="curve" smooth="yes"/>
      <point x="432" y="599"/>
      <point x="376" y="650"/>
      <point x="309" y="650" type="curve" smooth="yes"/>
      <point x="226" y="650"/>
      <point x="152" y="576"/>
      <point x="152" y="493" type="curve" smooth="yes"/>
      <point x="152" y="423"/>
      <point x="203" y="370"/>
    </contour>
  </outline>
</glyph>
<glyph name="AE" format="2">
  <advance width="1060"/>
  <unicode hex="00C6"/>
  <anchor x="359" y="0" name="bottom"/>
  <anchor x="704" y="900" name="top"/>
  <outline>
    <contour>
      <point x="-91" y="0" type="line"/>
      <point x="215" y="0" type="line"/>
      <point x="265" y="75" type="line"/>
      <point x="507" y="75" type="line"/>
      <point x="521" y="0" type="line"/>
      <point x="1001" y="0" type="line"/>
      <point x="960" y="240" type="line"/>
      <point x="752" y="240" type="line"/>
      <point x="726" y="378" type="line"/>
      <point x="935" y="378" type="line"/>
      <point x="903" y="570" type="line"/>
      <point x="695" y="570" type="line"/>
      <point x="678" y="666" type="line"/>
      <point x="945" y="666" type="line"/>
      <point x="905" y="900" type="line"/>
      <point x="502" y="900" type="line"/>
    </contour>
    <contour>
      <point x="363" y="237" type="line"/>
      <point x="381" y="266" type="line" smooth="yes"/>
      <point x="417" y="324"/>
      <point x="439" y="362"/>
      <point x="475" y="431" type="curve"/>
      <point x="476" y="362"/>
      <point x="479" y="322"/>
      <point x="487" y="266" type="curve" smooth="yes"/>
      <point x="491" y="237" type="line"/>
    </contour>
  </outline>
</glyph>
<glyph name="Ccedilla" format="2">
  <advance width="830"/>
  <unicode hex="00C7"/>
  <outline>
    <contour>
      <point x="163" y="-220" type="line"/>
      <point x="529" y="-220" type="line"/>
      <point x="650" y="-1" type="line"/>
      <point x="694" y="11"/>
      <point x="737" y="28"/>
      <point x="779" y="51" type="curve"/>
      <point x="779" y="373" type="line"/>
      <point x="713" y="305"/>
      <point x="638" y="268"/>
      <point x="565" y="268" type="curve" smooth="yes"/>
      <point x="466" y="268"/>
      <point x="394" y="335"/>
      <point x="394" y="429" type="curve" smooth="yes"/>
      <point x="394" y="537"/>
      <point x="491" y="631"/>
      <point x="604" y="631" type="curve" smooth="yes"/>
      <point x="675" y="631"/>
      <point x="739" y="594"/>
      <point x="777" y="531" type="curve"/>
      <point x="918" y="818" type="line"/>
      <point x="841" y="882"/>
      <point x="727" y="920"/>
      <point x="610" y="920" type="curve" smooth="yes"/>
      <point x="324" y="920"/>
      <point x="77" y="677"/>
      <point x="77" y="396" type="curve" smooth="yes"/>
      <point x="77" y="204"/>
      <point x="196" y="52"/>
      <point x="373" y="0" type="curve"/>
    </contour>
  </outline>
</glyph>
<glyph name="Eth" format="2">
  <advance width="980"/>
  <unicode hex="00D0"/>
  <outline>
    <contour>
      <point x="31" y="0" type="line"/>
      <point x="451" y="0" type="line" smooth="yes"/>
      <point x="752" y="0"/>
      <point x="984" y="224"/>
      <point x="984" y="505" type="curve" smooth="yes"/>
      <point x="984" y="730"/>
      <point x="804" y="900"/>
      <point x="565" y="900" type="curve" smooth="yes"/>
      <point x="255" y="900" type="line"/>
      <point x="165" y="540" type="line"/>
      <point x="90" y="540" type="line"/>
      <point x="48" y="372" type="line"/>
      <point x="124" y="372" type="line"/>
    </contour>
    <contour>
      <point x="388" y="276" type="line"/>
      <point x="412" y="372" type="line"/>
      <point x="528" y="372" type="line"/>
      <point x="570" y="540" type="line"/>
      <point x="453" y="540" type="line"/>
      <point x="474" y="624" type="line"/>
      <point x="528" y="624" type="line" smooth="yes"/>
      <point x="626" y="624"/>
      <point x="688" y="560"/>
      <point x="688" y="474" type="curve" smooth="yes"/>
      <point x="688" y="367"/>
      <point x="600" y="276"/>
      <point x="484" y="276" type="curve" smooth="yes"/>
    </contour>
  </outline>
</glyph>
<glyph name="multiply" format="2">
  <advance width="750"/>
  <unicode hex="00D7"/>
  <outline>
    <contour>
      <point x="173" y="137" type="line"/>
      <point x="388" y="309" type="line"/>
      <point x="519" y="137" type="line"/>
      <point x="681" y="267" type="line"/>
      <point x="550" y="439" type="line"/>
      <point x="765" y="611" type="line"/>
      <point x="651" y="763" type="line"/>
      <point x="436" y="591" type="line"/>
      <point x="305" y="763" type="line"/>
      <point x="143" y="633" type="line"/>
      <point x="274" y="461" type="line"/>
      <point x="59" y="289" type="line"/>
    </contour>
  </outline>
</glyph>
<glyph name="Oslash" format="2">
  <advance width="1040"/>
  <unicode hex="00D8"/>
  <anchor x="445" y="0" name="bottom"/>
  <anchor x="670" y="900" name="top"/>
  <outline>
    <contour>
      <point x="504" y="-17" type="curve" smooth="yes"/>
      <point x="790" y="-17"/>
      <point x="1038" y="226"/>
      <point x="1038" y="503" type="curve" smooth="yes"/>
      <point x="1038" y="602"/>
      <point x="1007" y="690"/>
      <point x="953" y="759" type="curve"/>
      <point x="1022" y="832" type="line"/>
      <point x="916" y="931" type="line"/>
      <point x="844" y="855" type="line"/>
      <point x="778" y="895"/>
      <point x="699" y="917"/>
      <point x="612" y="917" type="curve" smooth="yes"/>
      <point x="326" y="917"/>
      <point x="77" y="675"/>
      <point x="77" y="397" type="curve" smooth="yes"/>
      <point x="77" y="299"/>
      <point x="108" y="212"/>
      <point x="161" y="143" type="curve"/>
      <point x="91" y="69" type="line"/>
      <point x="197" y="-31" type="line"/>
      <point x="270" y="46" type="line"/>
      <point x="336" y="6"/>
      <point x="416" y="-17"/>
    </contour>
    <contour>
      <point x="368" y="357" type="line"/>
      <point x="359" y="378"/>
      <point x="355" y="402"/>
      <point x="355" y="426" type="curve" smooth="yes"/>
      <point x="355" y="545"/>
      <point x="460" y="650"/>
      <point x="580" y="650" type="curve" smooth="yes"/>
      <point x="601" y="650"/>
      <point x="621" y="647"/>
      <point x="638" y="641" type="curve"/>
    </contour>
    <contour>
      <point x="535" y="250" type="curve" smooth="yes"/>
      <point x="513" y="250"/>
      <point x="493" y="253"/>
      <point x="474" y="259" type="curve"/>
      <point x="746" y="544" type="line"/>
      <point x="756" y="522"/>
      <point x="760" y="499"/>
      <point x="760" y="474" type="curve" smooth="yes"/>
      <point x="760" y="355"/>
      <point x="654" y="250"/>
    </contour>
  </outline>
</glyph>
<glyph name="Thorn" format="2">
  <advance width="800"/>
  <unicode hex="00DE"/>
  <outline>
    <contour>
      <point x="-15" y="0" type="line"/>
      <point x="273" y="0" type="line"/>
      <point x="307" y="138" type="line"/>
      <point x="446" y="138" type="line" smooth="yes"/>
      <point x="673" y="138"/>
      <point x="820" y="313"/>
      <point x="820" y="495" type="curve" smooth="yes"/>
      <point x="820" y="648"/>
      <point x="719" y="780"/>
      <point x="525" y="780" type="curve" smooth="yes"/>
      <point x="467" y="780" type="line"/>
      <point x="497" y="900" type="line"/>
      <point x="209" y="900" type="line"/>
    </contour>
    <contour>
      <point x="362" y="360" type="line"/>
      <point x="409" y="546" type="line"/>
      <point x="451" y="546" type="line" smooth="yes"/>
      <point x="501" y="546"/>
      <point x="533" y="515"/>
      <point x="533" y="467" type="curve" smooth="yes"/>
      <point x="533" y="411"/>
      <point x="489" y="360"/>
      <point x="428" y="360" type="curve" smooth="yes"/>
    </contour>
  </outline>
</glyph>
<glyph name="germandbls" format="2">
  <advance width="740"/>
  <unicode hex="00DF"/>
  <outline>
    <contour>
      <point x="311" y="-12" type="line"/>
      <point x="537" y="-12"/>
      <point x="728" y="170"/>
      <point x="728" y="386" type="curve" smooth="yes"/>
      <point x="728" y="448"/>
      <point x="711" y="500"/>
      <point x="672" y="553" type="curve"/>
      <point x="728" y="596"/>
      <point x="763" y="670"/>
      <point x="763" y="747" type="curve" smooth="yes"/>
      <point x="763" y="879"/>
      <point x="648" y="972"/>
      <point x="486" y="972" type="curve" smooth="yes"/>
      <point x="321" y="972"/>
      <point x="190" y="870"/>
      <point x="150" y="709" type="curve" smooth="yes"/>
      <point x="-27" y="0" type="line"/>
      <point x="231" y="0" type="line"/>
      <point x="406" y="701" type="line" smooth="yes"/>
      <point x="414" y="734"/>
      <point x="439" y="756"/>
      <point x="468" y="756" type="curve" smooth="yes"/>
      <point x="496" y="756"/>
      <point x="515" y="735"/>
      <point x="515" y="704" type="curve" smooth="yes"/>
      <point x="515" y="656"/>
      <point x="473" y="606"/>
      <point x="390" y="542" type="curve"/>
      <point x="390" y="540" type="line"/>
      <point x="443" y="483"/>
      <point x="470" y="437"/>
      <point x="470" y="385" type="curve" smooth="yes"/>
      <point x="470" y="297"/>
      <point x="406" y="231"/>
      <point x="311" y="222" type="curve"/>
    </contour>
  </outline>
</glyph>
<glyph name="ae" format="2">
  <advance width="1100"/>
  <unicode hex="00E6"/>
  <anchor x="475" y="0" name="bottom"/>
  <anchor x="633" y="630" name="top"/>
  <outline>
    <contour>
      <point x="232" y="-20" type="curve" smooth="yes"/>
      <point x="328" y="-20"/>
      <point x="428" y="16"/>
      <point x="498" y="78" type="curve"/>
      <point x="552" y="15"/>
      <point x="638" y="-20"/>
      <point x="747" y="-20" type="curve" smooth="yes"/>
      <point x="821" y="-20"/>
      <point x="901" y="0"/>
      <point x="944" y="26" type="curve"/>
      <point x="944" y="225" type="line"/>
      <point x="909" y="198"/>
      <point x="861" y="181"/>
      <point x="799" y="181" type="curve" smooth="yes"/>
      <point x="727" y="181"/>
      <point x="662" y="212"/>
      <point x="645" y="253" type="curve"/>
      <point x="673" y="249"/>
      <point x="701" y="247"/>
      <point x="725" y="247" type="curve" smooth="yes"/>
      <point x="1066" y="247" type="line"/>
      <point x="1078" y="295" type="line" smooth="yes"/>
      <point x="1129" y="501"/>
      <point x="1012" y="650"/>
      <point x="799" y="650" type="curve" smooth="yes"/>
      <point x="720" y="650"/>
      <point x="645" y="626"/>
      <point x="583" y="586" type="curve"/>
      <point x="526" y="627"/>
      <point x="442" y="650"/>
      <point x="335" y="650" type="curve" smooth="yes"/>
      <point x="257" y="650"/>
      <point x="187" y="638"/>
      <point x="121" y="615" type="curve"/>
      <point x="121" y="414" type="line"/>
      <point x="163" y="436"/>
      <point x="211" y="446"/>
      <point x="264" y="446" type="curve" smooth="yes"/>
      <point x="368" y="446"/>
      <point x="442" y="407"/>
      <point x="434" y="359" type="curve"/>
      <point x="434" y="357"/>
      <point x="433" y="355"/>
      <point x="433" y="353" type="curve"/>
      <point x="383" y="379"/>
      <point x="324" y="396"/>
      <point x="256" y="396" type="curve" smooth="yes"/>
      <point x="100" y="396"/>
      <point x="-8" y="305"/>
      <point x="-8" y="171" type="curve" smooth="yes"/>
      <point x="-8" y="52"/>
      <point x="83" y="-20"/>
    </contour>
    <contour>
      <point x="281" y="151" type="curve" smooth="yes"/>
      <point x="245" y="151"/>
      <point x="221" y="170"/>
      <point x="221" y="197" type="curve" smooth="yes"/>
      <point x="221" y="227"/>
      <point x="249" y="252"/>
      <point x="295" y="252" type="curve" smooth="yes"/>
      <point x="329" y="252"/>
      <point x="365" y="240"/>
      <point x="394" y="221" type="curve"/>
      <point x="394" y="219" type="line"/>
      <point x="378" y="182"/>
      <point x="328" y="151"/>
    </contour>
    <contour>
      <point x="672" y="385" type="curve"/>
      <point x="693" y="434"/>
      <point x="731" y="460"/>
      <point x="780" y="460" type="curve" smooth="yes"/>
      <point x="825" y="460"/>
      <point x="857" y="431"/>
      <point x="861" y="385" type="curve"/>
      <point x="835" y="388"/>
      <point x="800" y="391"/>
      <point x="781" y="391" type="curve" smooth="yes"/>
      <point x="753" y="391" type="line" smooth="yes"/>
      <point x="736" y="391"/>
      <point x="714" y="389"/>
    </contour>
  </outline>
</glyph>
<glyph name="ccedilla" format="2">
  <advance width="600"/>
  <unicode hex="00E7"/>
  <outline>
    <contour>
      <point x="38" y="-220" type="line"/>
      <point x="328" y="-220" type="line"/>
      <point x="456" y="-4" type="line"/>
      <point x="483" y="5"/>
      <point x="509" y="18"/>
      <point x="533" y="35" type="curve"/>
      <point x="534" y="279" type="line"/>
      <point x="489" y="236"/>
      <point x="449" y="220"/>
      <point x="406" y="220" type="curve" smooth="yes"/>
      <point x="344" y="220"/>
      <point x="302" y="254"/>
      <point x="302" y="308" type="curve" smooth="yes"/>
      <point x="302" y="365"/>
      <point x="349" y="409"/>
      <point x="411" y="409" type="curve" smooth="yes"/>
      <point x="453" y="409"/>
      <point x="492" y="390"/>
      <point x="518" y="356" type="curve"/>
      <point x="630" y="581" type="line"/>
      <point x="574" y="624"/>
      <point x="494" y="650"/>
      <point x="414" y="650" type="curve" smooth="yes"/>
      <point x="208" y="650"/>
      <point x="31" y="477"/>
      <point x="31" y="278" type="curve" smooth="yes"/>
      <point x="31" y="142"/>
      <point x="113" y="36"/>
      <point x="237" y="-3" type="curve"/>
    </contour>
  </outline>
</glyph>
<glyph name="eth" format="2">
  <advance width="740"/>
  <unicode hex="00F0"/>
  <outline>
    <contour>
      <point x="332" y="-18" type="curve" smooth="yes"/>
      <point x="557" y="-18"/>
      <point x="727" y="174"/>
      <point x="727" y="416" type="curve" smooth="yes"/>
      <point x="727" y="474"/>
      <point x="717" y="536"/>
      <point x="698" y="600" type="curve" smooth="yes"/>
      <point x="679" y="663"/>
      <point x="653" y="729"/>
      <point x="618" y="798" type="curve"/>
      <point x="749" y="854" type="line"/>
      <point x="709" y="949" type="line"/>
      <point x="566" y="890" type="line"/>
      <point x="552" y="913"/>
      <point x="537" y="936"/>
      <point x="521" y="960" type="curve"/>
      <point x="240" y="960" type="line"/>
      <point x="274" y="911"/>
      <point x="304" y="864"/>
      <point x="330" y="819" type="curve"/>
      <point x="170" y="753" type="line"/>
      <point x="212" y="656" type="line"/>
      <point x="381" y="727" type="line"/>
      <point x="397" y="696"/>
      <point x="411" y="665"/>
      <point x="423" y="636" type="curve"/>
      <point x="408" y="635"/>
      <point x="393" y="635"/>
      <point x="378" y="633" type="curve" smooth="yes"/>
      <point x="182" y="615"/>
      <point x="30" y="455"/>
      <point x="30" y="270" type="curve" smooth="yes"/>
      <point x="30" y="101"/>
      <point x="155" y="-18"/>
    </contour>
    <contour>
      <point x="363" y="220" type="curve" smooth="yes"/>
      <point x="315" y="220"/>
      <point x="281" y="254"/>
      <point x="281" y="302" type="curve" smooth="yes"/>
      <point x="281" y="360"/>
      <point x="330" y="410"/>
      <point x="387" y="410" type="curve" smooth="yes"/>
      <point x="435" y="410"/>
      <point x="469" y="376"/>
      <point x="469" y="328" type="curve" smooth="yes"/>
      <point x="469" y="270"/>
      <point x="420" y="220"/>
    </contour>
  </outline>
</glyph>
<glyph name="divide" format="2">
  <advance width="750"/>
  <unicode hex="00F7"/>
  <outline>
    <contour>
      <point x="54" y="352" type="line"/>
      <point x="724" y="352" type="line"/>
      <point x="772" y="548" type="line"/>
      <point x="102" y="548" type="line"/>
    </contour>
    <contour>
      <point x="336" y="84" type="curve" smooth="yes"/>
      <point x="405" y="84"/>
      <point x="466" y="145"/>
      <point x="466" y="214" type="curve" smooth="yes"/>
      <point x="466" y="273"/>
      <point x="421" y="316"/>
      <point x="364" y="316" type="curve" smooth="yes"/>
      <point x="295" y="316"/>
      <point x="234" y="255"/>
      <point x="234" y="186" type="curve" smooth="yes"/>
      <point x="234" y="129"/>
      <point x="278" y="84"/>
    </contour>
    <contour>
      <point x="461" y="584" type="curve" smooth="yes"/>
      <point x="530" y="584"/>
      <point x="591" y="645"/>
      <point x="591" y="714" type="curve" smooth="yes"/>
      <point x="591" y="773"/>
      <point x="546" y="816"/>
      <point x="489" y="816" type="curve" smooth="yes"/>
      <point x="420" y="816"/>
      <point x="359" y="755"/>
      <point x="359" y="686" type="curve" smooth="yes"/>
      <point x="359" y="629"/>
      <point x="403" y="584"/>
    </contour>
  </outline>
</glyph>
<glyph name="oslash" format="2">
  <advance width="740"/>
  <unicode hex="00F8"/>
  <anchor x="452" y="630" name="top"/>
  <outline>
    <contour>
      <point x="340" y="-18" type="curve" smooth="yes"/>
      <point x="543" y="-18"/>
      <point x="719" y="155"/>
      <point x="719" y="356" type="curve" smooth="yes"/>
      <point x="719" y="408"/>
      <point x="707" y="455"/>
      <point x="684" y="496" type="curve"/>
      <point x="743" y="546" type="line"/>
      <point x="662" y="645" type="line"/>
      <point x="599" y="592" type="line"/>
      <point x="547" y="627"/>
      <point x="483" y="648"/>
      <point x="410" y="648" type="curve" smooth="yes"/>
      <point x="207" y="648"/>
      <point x="31" y="475"/>
      <point x="31" y="274" type="curve" smooth="yes"/>
      <point x="31" y="225"/>
      <point x="42" y="180"/>
      <point x="62" y="141" type="curve"/>
      <point x="3" y="91" type="line"/>
      <point x="84" y="-8" type="line"/>
      <point x="145" y="43" type="line"/>
      <point x="197" y="4"/>
      <point x="264" y="-18"/>
    </contour>
    <contour>
      <point x="251" y="288" type="line"/>
      <point x="250" y="293"/>
      <point x="250" y="299"/>
      <point x="250" y="304" type="curve" smooth="yes"/>
      <point x="253" y="378"/>
      <point x="317" y="441"/>
      <point x="391" y="441" type="curve" smooth="yes"/>
      <point x="404" y="441"/>
      <point x="414" y="439"/>
      <point x="426" y="435" type="curve"/>
    </contour>
    <contour>
      <point x="359" y="189" type="curve" smooth="yes"/>
      <point x="343" y="189"/>
      <point x="327" y="193"/>
      <point x="314" y="197" type="curve"/>
      <point x="499" y="352" type="line"/>
      <point x="500" y="346"/>
      <point x="500" y="339"/>
      <point x="500" y="332" type="curve" smooth="yes"/>
      <point x="500" y="255"/>
      <point x="435" y="189"/>
    </contour>
  </outline>
</glyph>
<glyph name="Aogonek" format="2">
  <advance width="860"/>
  <unicode hex="0104"/>
  <outline>
    <contour>
      <point x="671" y="-290" type="curve"/>
      <point x="751" y="-124" type="line"/>
      <point x="716" y="-122"/>
      <point x="696" y="-107"/>
      <point x="696" y="-83" type="curve" smooth="yes"/>
      <point x="696" y="-45"/>
      <point x="738" y="-14"/>
      <point x="801" y="0" type="curve"/>
      <point x="654" y="900" type="line"/>
      <point x="502" y="900" type="line"/>
      <point x="-91" y="0" type="line"/>
      <point x="215" y="0" type="line"/>
      <point x="265" y="75" type="line"/>
      <point x="507" y="75" type="line"/>
      <point x="521" y="0" type="line"/>
      <point x="463" y="-33"/>
      <point x="420" y="-87"/>
      <point x="420" y="-144" type="curve" smooth="yes"/>
      <point x="420" y="-229"/>
      <point x="509" y="-290"/>
    </contour>
    <contour>
      <point x="363" y="237" type="line"/>
      <point x="381" y="266" type="line" smooth="yes"/>
      <point x="418" y="324"/>
      <point x="439" y="362"/>
      <point x="475" y="431" type="curve"/>
      <point x="476" y="362"/>
      <point x="479" y="322"/>
      <point x="487" y="266" type="curve" smooth="yes"/>
      <point x="491" y="237" type="line"/>
    </contour>
  </outline>
</glyph>
<glyph name="aogonek" format="2">
  <advance width="760"/>
  <unicode hex="0105"/>
  <outline>
    <contour>
      <point x="536" y="-290" type="curve"/>
      <point x="619" y="-112" type="line"/>
      <point x="587" y="-111"/>
      <point x="561" y="-106"/>
      <point x="561" y="-84" type="curve" smooth="yes"/>
      <point x="561" y="-49"/>
      <point x="605" y="-19"/>
      <point x="637" y="0" type="curve"/>
      <point x="795" y="630" type="line"/>
      <point x="573" y="630" type="line"/>
      <point x="562" y="586" type="line"/>
      <point x="526" y="622"/>
      <point x="463" y="644"/>
      <point x="393" y="644" type="curve" smooth="yes"/>
      <point x="196" y="644"/>
      <point x="25" y="469"/>
      <point x="25" y="268" type="curve" smooth="yes"/>
      <point x="25" y="106"/>
      <point x="137" y="-14"/>
      <point x="288" y="-14" type="curve" smooth="yes"/>
      <point x="343" y="-14"/>
      <point x="386" y="2"/>
      <point x="438" y="44" type="curve"/>
      <point x="427" y="0" type="line"/>
      <point x="373" y="-39"/>
      <point x="318" y="-92"/>
      <point x="318" y="-158" type="curve" smooth="yes"/>
      <point x="318" y="-240"/>
      <point x="404" y="-290"/>
    </contour>
    <contour>
      <point x="362" y="220" type="curve" smooth="yes"/>
      <point x="314" y="220"/>
      <point x="280" y="254"/>
      <point x="280" y="302" type="curve" smooth="yes"/>
      <point x="280" y="360"/>
      <point x="328" y="410"/>
      <point x="385" y="410" type="curve" smooth="yes"/>
      <point x="432" y="410"/>
      <point x="466" y="376"/>
      <point x="466" y="328" type="curve" smooth="yes"/>
      <point x="466" y="269"/>
      <point x="419" y="220"/>
    </contour>
  </outline>
</glyph>
<glyph name="dcroat" format="2">
  <advance width="760"/>
  <unicode hex="0111"/>
  <outline>
    <contour>
      <point x="288" y="-14" type="curve" smooth="yes"/>
      <point x="343" y="-14"/>
      <point x="386" y="2"/>
      <point x="438" y="44" type="curve"/>
      <point x="427" y="0" type="line"/>
      <point x="637" y="0" type="line"/>
      <point x="814" y="707" type="line"/>
      <point x="862" y="707" type="line"/>
      <point x="898" y="853" type="line"/>
      <point x="850" y="853" type="line"/>
      <point x="877" y="960" type="line"/>
      <point x="631" y="960" type="line"/>
      <point x="604" y="853" type="line"/>
      <point x="450" y="853" type="line"/>
      <point x="414" y="707" type="line"/>
      <point x="567" y="707" type="line"/>
      <point x="541" y="604" type="line"/>
      <point x="505" y="628"/>
      <point x="452" y="644"/>
      <point x="393" y="644" type="curve" smooth="yes"/>
      <point x="196" y="644"/>
      <point x="25" y="469"/>
      <point x="25" y="268" type="curve" smooth="yes"/>
      <point x="25" y="106"/>
      <point x="137" y="-14"/>
    </contour>
    <contour>
      <point x="362" y="220" type="curve" smooth="yes"/>
      <point x="314" y="220"/>
      <point x="280" y="254"/>
      <point x="280" y="302" type="curve" smooth="yes"/>
      <point x="280" y="360"/>
      <point x="328" y="410"/>
      <point x="385" y="410" type="curve" smooth="yes"/>
      <point x="432" y="410"/>
      <point x="466" y="376"/>
      <point x="466" y="328" type="curve" smooth="yes"/>
      <point x="466" y="269"/>
      <point x="419" y="220"/>
    </contour>
  </outline>
</glyph>
<glyph name="Eogonek" format="2">
  <advance width="660"/>
  <unicode hex="0118"/>
  <anchor x="330" y="900" name="top"/>
  <outline>
    <contour>
      <point x="448" y="-290" type="curve"/>
      <point x="528" y="-124" type="line"/>
      <point x="493" y="-122"/>
      <point x="473" y="-107"/>
      <point x="473" y="-83" type="curve" smooth="yes"/>
      <point x="473" y="-53"/>
      <point x="504" y="-18"/>
      <point x="543" y="0" type="curve"/>
      <point x="603" y="240" type="line"/>
      <point x="327" y="240" type="line"/>
      <point x="361" y="378" type="line"/>
      <point x="595" y="378" type="line"/>
      <point x="643" y="570" type="line"/>
      <point x="409" y="570" type="line"/>
      <point x="433" y="666" type="line"/>
      <point x="709" y="666" type="line"/>
      <point x="767" y="900" type="line"/>
      <point x="209" y="900" type="line"/>
      <point x="-15" y="0" type="line"/>
      <point x="333" y="0" type="line"/>
      <point x="276" y="-37"/>
      <point x="219" y="-86"/>
      <point x="219" y="-153" type="curve" smooth="yes"/>
      <point x="219" y="-234"/>
      <point x="301" y="-290"/>
    </contour>
  </outline>
</glyph>
<glyph name="eogonek" format="2">
  <advance width="720"/>
  <unicode hex="0119"/>
  <anchor x="360" y="630" name="top"/>
  <outline>
    <contour>
      <point x="451" y="-290" type="curve"/>
      <point x="531" y="-124" type="line"/>
      <point x="496" y="-122"/>
      <point x="476" y="-107"/>
      <point x="476" y="-83" type="curve" smooth="yes"/>
      <point x="476" y="-44"/>
      <point x="515" y="-6"/>
      <point x="564" y="26" type="curve"/>
      <point x="564" y="225" type="line"/>
      <point x="529" y="198"/>
      <point x="481" y="181"/>
      <point x="419" y="181" type="curve" smooth="yes"/>
      <point x="347" y="181"/>
      <point x="282" y="212"/>
      <point x="265" y="253" type="curve"/>
      <point x="293" y="249"/>
      <point x="321" y="247"/>
      <point x="345" y="247" type="curve" smooth="yes"/>
      <point x="686" y="247" type="line"/>
      <point x="698" y="295" type="line" smooth="yes"/>
      <point x="749" y="501"/>
      <point x="632" y="650"/>
      <point x="419" y="650" type="curve" smooth="yes"/>
      <point x="208" y="650"/>
      <point x="33" y="483"/>
      <point x="33" y="280" type="curve" smooth="yes"/>
      <point x="33" y="123"/>
      <point x="140" y="13"/>
      <point x="300" y="-14" type="curve" smooth="yes"/>
      <point x="304" y="-15"/>
      <point x="308" y="-15"/>
      <point x="312" y="-16" type="curve"/>
      <point x="264" y="-50"/>
      <point x="222" y="-96"/>
      <point x="222" y="-153" type="curve" smooth="yes"/>
      <point x="222" y="-234"/>
      <point x="304" y="-290"/>
    </contour>
    <contour>
      <point x="292" y="385" type="curve"/>
      <point x="313" y="434"/>
      <point x="351" y="460"/>
      <point x="400" y="460" type="curve" smooth="yes"/>
      <point x="445" y="460"/>
      <point x="477" y="431"/>
      <point x="481" y="385" type="curve"/>
      <point x="455" y="388"/>
      <point x="420" y="391"/>
      <point x="401" y="391" type="curve" smooth="yes"/>
      <point x="373" y="391" type="line" smooth="yes"/>
      <point x="356" y="391"/>
      <point x="334" y="389"/>
    </contour>
  </outline>
</glyph>
<glyph name="Hbar" format="2">
  <advance width="900"/>
  <unicode hex="0126"/>
  <outline>
    <contour>
      <point x="-15" y="0" type="line"/>
      <point x="279" y="0" type="line"/>
      <point x="361" y="330" type="line"/>
      <point x="553" y="330" type="line"/>
      <point x="471" y="0" type="line"/>
      <point x="765" y="0" type="line"/>
      <point x="935" y="681" type="line"/>
      <point x="983" y="681" type="line"/>
      <point x="1017" y="819" type="line"/>
      <point x="969" y="819" type="line"/>
      <point x="989" y="900" type="line"/>
      <point x="707" y="900" type="line"/>
      <point x="687" y="819" type="line"/>
      <point x="471" y="819" type="line"/>
      <point x="491" y="900" type="line"/>
      <point x="209" y="900" type="line"/>
      <point x="189" y="819" type="line"/>
      <point x="141" y="819" type="line"/>
      <point x="107" y="681" type="line"/>
      <point x="155" y="681" type="line"/>
    </contour>
    <contour>
      <point x="409" y="570" type="line"/>
      <point x="437" y="681" type="line"/>
      <point x="653" y="681" type="line"/>
      <point x="625" y="570" type="line"/>
    </contour>
  </outline>
</glyph>
<glyph name="hbar" format="2">
  <advance width="740"/>
  <unicode hex="0127"/>
  <outline>
    <contour>
      <point x="-27" y="0" type="line"/>
      <point x="237" y="0" type="line"/>
      <point x="326" y="358" type="line" smooth="yes"/>
      <point x="335" y="394"/>
      <point x="361" y="416"/>
      <point x="394" y="416" type="curve" smooth="yes"/>
      <point x="433" y="416"/>
      <point x="454" y="385"/>
      <point x="444" y="343" type="curve" smooth="yes"/>
      <point x="359" y="0" type="line"/>
      <point x="623" y="0" type="line"/>
      <point x="711" y="355" type="line" smooth="yes"/>
      <point x="752" y="522"/>
      <point x="667" y="649"/>
      <point x="512" y="649" type="curve" smooth="yes"/>
      <point x="463" y="649"/>
      <point x="415" y="633"/>
      <point x="368" y="599" type="curve"/>
      <point x="396" y="707" type="line"/>
      <point x="554" y="707" type="line"/>
      <point x="590" y="853" type="line"/>
      <point x="432" y="853" type="line"/>
      <point x="459" y="960" type="line"/>
      <point x="213" y="960" type="line"/>
      <point x="186" y="853" type="line"/>
      <point x="138" y="853" type="line"/>
      <point x="102" y="707" type="line"/>
      <point x="150" y="707" type="line"/>
    </contour>
  </outline>
</glyph>
<glyph name="Iogonek" format="2">
  <advance width="420"/>
  <unicode hex="012E"/>
  <outline>
    <contour>
      <point x="164" y="-290" type="curve"/>
      <point x="244" y="-124" type="line"/>
      <point x="209" y="-122"/>
      <point x="189" y="-106"/>
      <point x="189" y="-83" type="curve" smooth="yes"/>
      <point x="189" y="-45"/>
      <point x="235" y="-16"/>
      <point x="285" y="0" type="curve"/>
      <point x="509" y="900" type="line"/>
      <point x="209" y="900" type="line"/>
      <point x="-15" y="0" type="line"/>
      <point x="-45" y="-34"/>
      <point x="-87" y="-88"/>
      <point x="-87" y="-144" type="curve" smooth="yes"/>
      <point x="-87" y="-229"/>
      <point x="2" y="-290"/>
    </contour>
  </outline>
</glyph>
<glyph name="idotless" format="2">
  <advance width="360"/>
  <unicode hex="0131"/>
  <anchor x="105" y="0" name="bottom"/>
  <anchor x="105" y="0" name="ogonek"/>
  <anchor x="263" y="630" name="top"/>
  <outline>
    <contour>
      <point x="-27" y="0" type="line"/>
      <point x="237" y="0" type="line"/>
      <point x="395" y="630" type="line"/>
      <point x="131" y="630" type="line"/>
    </contour>
  </outline>
</glyph>
<glyph name="kgreenlandic" format="2">
  <advance width="740"/>
  <unicode hex="0138"/>
  <anchor x="309" y="0" name="bottom"/>
  <anchor x="455" y="630" name="top"/>
  <outline>
    <contour>
      <point x="401" y="0" type="line"/>
      <point x="681" y="0" type="line"/>
      <point x="568" y="355" type="line"/>
      <point x="791" y="630" type="line"/>
      <point x="503" y="630" type="line"/>
      <point x="296" y="366" type="line"/>
    </contour>
    <contour>
      <point x="-27" y="0" type="line"/>
      <point x="237" y="0" type="line"/>
      <point x="394" y="630" type="line"/>
      <point x="130" y="630" type="line"/>
    </contour>
  </outline>
</glyph>
<glyph name="Lslash" format="2">
  <advance width="680"/>
  <unicode hex="0141"/>
  <outline>
    <contour>
      <point x="31" y="0" type="line"/>
      <point x="565" y="0" type="line"/>
      <point x="628" y="252" type="line"/>
      <point x="388" y="252" type="line"/>
      <point x="430" y="421" type="line"/>
      <point x="650" y="483" type="line"/>
      <point x="605" y="629" type="line"/>
      <point x="472" y="592" type="line"/>
      <point x="549" y="900" type="line"/>
      <point x="255" y="900" type="line"/>
      <point x="156" y="503" type="line"/>
      <point x="12" y="463" type="line"/>
      <point x="58" y="317" type="line"/>
      <point x="114" y="333" type="line"/>
    </contour>
  </outline>
</glyph>
<glyph name="lslash" format="2">
  <advance width="460"/>
  <unicode hex="0142"/>
  <outline>
    <contour>
      <point x="23" y="0" type="line"/>
      <point x="287" y="0" type="line"/>
      <point x="402" y="460" type="line"/>
      <point x="534" y="507" type="line"/>
      <point x="495" y="623" type="line"/>
      <point x="438" y="603" type="line"/>
      <point x="527" y="960" type="line"/>
      <point x="263" y="960" type="line"/>
      <point x="148" y="501" type="line"/>
      <point x="16" y="454" type="line"/>
      <point x="55" y="338" type="line"/>
      <point x="113" y="358" type="line"/>
    </contour>
  </outline>
</glyph>
<glyph name="Eng" format="2">
  <advance width="920"/>
  <unicode hex="014A"/>
  <anchor x="385" y="0" name="bottom"/>
  <anchor x="609" y="900" name="top"/>
  <outline>
    <contour>
      <point x="475" y="-200" type="curve" smooth="yes"/>
      <point x="634" y="-200"/>
      <point x="762" y="-92"/>
      <point x="804" y="76" type="curve" smooth="yes"/>
      <point x="1009" y="900" type="line"/>
      <point x="727" y="900" type="line"/>
      <point x="633" y="521" type="line"/>
      <point x="371" y="900" type="line"/>
      <point x="209" y="900" type="line"/>
      <point x="-15" y="0" type="line"/>
      <point x="267" y="0" type="line"/>
      <point x="362" y="381" type="line"/>
      <point x="533" y="130" type="line"/>
      <point x="532" y="124" type="line" smooth="yes"/>
      <point x="525" y="85"/>
      <point x="493" y="58"/>
      <point x="453" y="58" type="curve" smooth="yes"/>
      <point x="423" y="58"/>
      <point x="394" y="73"/>
      <point x="374" y="101" type="curve"/>
      <point x="252" y="-125" type="line"/>
      <point x="298" y="-169"/>
      <point x="390" y="-200"/>
    </contour>
  </outline>
</glyph>
<glyph name="eng" format="2">
  <advance width="740"/>
  <unicode hex="014B"/>
  <outline>
    <contour>
      <point x="284" y="-290" type="line"/>
      <point x="445" y="-290"/>
      <point x="575" y="-193"/>
      <point x="612" y="-44" type="curve" smooth="yes"/>
      <point x="711" y="355" type="line" smooth="yes"/>
      <point x="752" y="522"/>
      <point x="667" y="649"/>
      <point x="512" y="649" type="curve" smooth="yes"/>
      <point x="452" y="649"/>
      <point x="395" y="625"/>
      <point x="338" y="574" type="curve"/>
      <point x="352" y="630" type="line"/>
      <point x="130" y="630" type="line"/>
      <point x="-27" y="0" type="line"/>
      <point x="237" y="0" type="line"/>
      <point x="326" y="358" type="line" smooth="yes"/>
      <point x="335" y="394"/>
      <point x="361" y="416"/>
      <point x="394" y="416" type="curve" smooth="yes"/>
      <point x="433" y="416"/>
      <point x="454" y="385"/>
      <point x="444" y="343" type="curve" smooth="yes"/>
      <point x="357" y="-7" type="line" smooth="yes"/>
      <point x="347" y="-43"/>
      <point x="323" y="-62"/>
      <point x="286" y="-62" type="curve"/>
    </contour>
  </outline>
</glyph>
<glyph name="OE" format="2">
  <advance width="1320"/>
  <unicode hex="0152"/>
  <anchor x="770" y="0" name="bottom"/>
  <anchor x="770" y="900" name="top"/>
  <outline>
    <contour>
      <point x="486" y="-17" type="curve" smooth="yes"/>
      <point x="581" y="-17"/>
      <point x="672" y="12"/>
      <point x="750" y="62" type="curve"/>
      <point x="735" y="0" type="line"/>
      <point x="1203" y="0" type="line"/>
      <point x="1263" y="240" type="line"/>
      <point x="987" y="240" type="line"/>
      <point x="1021" y="378" type="line"/>
      <point x="1255" y="378" type="line"/>
      <point x="1303" y="570" type="line"/>
      <point x="1069" y="570" type="line"/>
      <point x="1093" y="666" type="line"/>
      <point x="1369" y="666" type="line"/>
      <point x="1427" y="900" type="line"/>
      <point x="869" y="900" type="line"/>
      <point x="856" y="848" type="line"/>
      <point x="788" y="892"/>
      <point x="704" y="917"/>
      <point x="612" y="917" type="curve" smooth="yes"/>
      <point x="326" y="917"/>
      <point x="77" y="675"/>
      <point x="77" y="397" type="curve" smooth="yes"/>
      <point x="77" y="159"/>
      <point x="252" y="-17"/>
    </contour>
    <contour>
      <point x="537" y="268" type="curve" smooth="yes"/>
      <point x="443" y="268"/>
      <point x="373" y="336"/>
      <point x="373" y="428" type="curve" smooth="yes"/>
      <point x="373" y="536"/>
      <point x="469" y="632"/>
      <point x="578" y="632" type="curve" smooth="yes"/>
      <point x="672" y="632"/>
      <point x="742" y="564"/>
      <point x="742" y="472" type="curve" smooth="yes"/>
      <point x="742" y="364"/>
      <point x="645" y="268"/>
    </contour>
  </outline>
</glyph>
<glyph name="oe" format="2">
  <advance width="1130"/>
  <unicode hex="0153"/>
  <anchor x="502" y="0" name="bottom"/>
  <anchor x="657" y="630" name="top"/>
  <outline>
    <contour>
      <point x="340" y="-20" type="curve" smooth="yes"/>
      <point x="418" y="-20"/>
      <point x="491" y="7"/>
      <point x="552" y="49" type="curve"/>
      <point x="610" y="5"/>
      <point x="687" y="-20"/>
      <point x="777" y="-20" type="curve" smooth="yes"/>
      <point x="851" y="-20"/>
      <point x="931" y="0"/>
      <point x="974" y="26" type="curve"/>
      <point x="974" y="225" type="line"/>
      <point x="939" y="198"/>
      <point x="891" y="181"/>
      <point x="829" y="181" type="curve" smooth="yes"/>
      <point x="757" y="181"/>
      <point x="692" y="212"/>
      <point x="675" y="253" type="curve"/>
      <point x="703" y="249"/>
      <point x="731" y="247"/>
      <point x="755" y="247" type="curve" smooth="yes"/>
      <point x="1096" y="247" type="line"/>
      <point x="1108" y="295" type="line" smooth="yes"/>
      <point x="1159" y="501"/>
      <point x="1042" y="650"/>
      <point x="829" y="650" type="curve" smooth="yes"/>
      <point x="748" y="650"/>
      <point x="672" y="625"/>
      <point x="610" y="583" type="curve"/>
      <point x="557" y="624"/>
      <point x="487" y="650"/>
      <point x="410" y="650" type="curve" smooth="yes"/>
      <point x="207" y="650"/>
      <point x="31" y="475"/>
      <point x="31" y="274" type="curve" smooth="yes"/>
      <point x="31" y="106"/>
      <point x="162" y="-20"/>
    </contour>
    <contour>
      <point x="363" y="220" type="curve" smooth="yes"/>
      <point x="315" y="220"/>
      <point x="281" y="254"/>
      <point x="281" y="302" type="curve" smooth="yes"/>
      <point x="281" y="360"/>
      <point x="330" y="410"/>
      <point x="387" y="410" type="curve" smooth="yes"/>
      <point x="435" y="410"/>
      <point x="469" y="376"/>
      <point x="469" y="328" type="curve" smooth="yes"/>
      <point x="469" y="270"/>
      <point x="420" y="220"/>
    </contour>
    <contour>
      <point x="702" y="385" type="curve"/>
      <point x="723" y="434"/>
      <point x="761" y="460"/>
      <point x="810" y="460" type="curve" smooth="yes"/>
      <point x="855" y="460"/>
      <point x="887" y="431"/>
      <point x="891" y="385" type="curve"/>
      <point x="865" y="388"/>
      <point x="830" y="391"/>
      <point x="811" y="391" type="curve" smooth="yes"/>
      <point x="783" y="391" type="line" smooth="yes"/>
      <point x="766" y="391"/>
      <point x="744" y="389"/>
    </contour>
  </outline>
</glyph>
<glyph name="Scedilla" format="2">
  <advance width="700"/>
  <unicode hex="015E"/>
  <outline>
    <contour>
      <point x="-25" y="-220" type="line"/>
      <point x="341" y="-220" type="line"/>
      <point x="461" y="4" type="line"/>
      <point x="586" y="51"/>
      <point x="672" y="162"/>
      <point x="672" y="299" type="curve" smooth="yes"/>
      <point x="672" y="397"/>
      <point x="628" y="480"/>
      <point x="536" y="543" type="curve" smooth="yes"/>
      <point x="431" y="615" type="line" smooth="yes"/>
      <point x="409" y="630"/>
      <point x="398" y="641"/>
      <point x="398" y="651" type="curve" smooth="yes"/>
      <point x="398" y="663"/>
      <point x="414" y="673"/>
      <point x="439" y="673" type="curve" smooth="yes"/>
      <point x="500" y="673"/>
      <point x="598" y="615"/>
      <point x="649" y="552" type="curve"/>
      <point x="775" y="806" type="line"/>
      <point x="679" y="887"/>
      <point x="578" y="920"/>
      <point x="479" y="920" type="curve" smooth="yes"/>
      <point x="257" y="920"/>
      <point x="126" y="752"/>
      <point x="126" y="599" type="curve" smooth="yes"/>
      <point x="126" y="504"/>
      <point x="177" y="423"/>
      <point x="280" y="351" type="curve" smooth="yes"/>
      <point x="360" y="295" type="line" smooth="yes"/>
      <point x="387" y="276"/>
      <point x="401" y="265"/>
      <point x="401" y="251" type="curve" smooth="yes"/>
      <point x="401" y="237"/>
      <point x="386" y="228"/>
      <point x="358" y="228" type="curve" smooth="yes"/>
      <point x="284" y="228"/>
      <point x="179" y="290"/>
      <point x="126" y="378" type="curve"/>
      <point x="-9" y="112" type="line"/>
      <point x="37" y="62"/>
      <point x="107" y="24"/>
      <point x="180" y="2" type="curve"/>
    </contour>
  </outline>
</glyph>
<glyph name="scedilla" format="2">
  <advance width="560"/>
  <unicode hex="015F"/>
  <outline>
    <contour>
      <point x="-80" y="-220" type="line"/>
      <point x="210" y="-220" type="line"/>
      <point x="338" y="-3" type="line"/>
      <point x="442" y="32"/>
      <point x="515" y="117"/>
      <point x="515" y="215" type="curve" smooth="yes"/>
      <point x="515" y="285"/>
      <point x="478" y="331"/>
      <point x="389" y="385" type="curve" smooth="yes"/>
      <point x="323" y="425" type="line" smooth="yes"/>
      <point x="313" y="431"/>
      <point x="309" y="438"/>
      <point x="309" y="444" type="curve" smooth="yes"/>
      <point x="309" y="452"/>
      <point x="317" y="460"/>
      <point x="332" y="460" type="curve" smooth="yes"/>
      <point x="371" y="460"/>
      <point x="449" y="409"/>
      <point x="488" y="361" type="curve"/>
      <point x="588" y="560" type="line"/>
      <point x="524" y="615"/>
      <point x="424" y="650"/>
      <point x="336" y="650" type="curve" smooth="yes"/>
      <point x="183" y="650"/>
      <point x="58" y="544"/>
      <point x="58" y="414" type="curve" smooth="yes"/>
      <point x="58" y="343"/>
      <point x="94" y="293"/>
      <point x="181" y="244" type="curve" smooth="yes"/>
      <point x="250" y="205" type="line" smooth="yes"/>
      <point x="261" y="199"/>
      <point x="265" y="194"/>
      <point x="265" y="186" type="curve" smooth="yes"/>
      <point x="265" y="176"/>
      <point x="257" y="170"/>
      <point x="240" y="170" type="curve" smooth="yes"/>
      <point x="191" y="170"/>
      <point x="111" y="217"/>
      <point x="64" y="270" type="curve"/>
      <point x="-35" y="74" type="line"/>
      <point x="5" y="39"/>
      <point x="60" y="12"/>
      <point x="118" y="-4" type="curve"/>
    </contour>
  </outline>
</glyph>
<glyph name="Tcedilla" format="2">
  <advance width="730"/>
  <unicode hex="0162"/>
  <outline>
    <contour>
      <point x="-61" y="-220" type="line"/>
      <point x="311" y="-220" type="line"/>
      <point x="441" y="0" type="line"/>
      <point x="602" y="648" type="line"/>
      <point x="781" y="648" type="line"/>
      <point x="844" y="900" type="line"/>
      <point x="186" y="900" type="line"/>
      <point x="123" y="648" type="line"/>
      <point x="302" y="648" type="line"/>
      <point x="141" y="0" type="line"/>
    </contour>
  </outline>
</glyph>
<glyph name="tcedilla" format="2">
  <advance width="450"/>
  <unicode hex="0163"/>
  <outline>
    <contour>
      <point x="-181" y="-220" type="line"/>
      <point x="101" y="-220" type="line"/>
      <point x="276" y="0" type="line"/>
      <point x="382" y="426" type="line"/>
      <point x="463" y="426" type="line"/>
      <point x="514" y="630" type="line"/>
      <point x="430" y="630" type="line"/>
      <point x="478" y="822" type="line"/>
      <point x="226" y="822" type="line"/>
      <point x="178" y="630" type="line"/>
      <point x="100" y="630" type="line"/>
      <point x="49" y="426" type="line"/>
      <point x="124" y="426" type="line"/>
      <point x="18" y="0" type="line"/>
    </contour>
  </outline>
</glyph>
<glyph name="Tbar" format="2">
  <advance width="730"/>
  <unicode hex="0166"/>
  <outline>
    <contour>
      <point x="141" y="0" type="line"/>
      <point x="441" y="0" type="line"/>
      <point x="530" y="356" type="line"/>
      <point x="631" y="356" type="line"/>
      <point x="674" y="530" type="line"/>
      <point x="573" y="530" type="line"/>
      <point x="602" y="648" type="line"/>
      <point x="781" y="648" type="line"/>
      <point x="844" y="900" type="line"/>
      <point x="186" y="900" type="line"/>
      <point x="123" y="648" type="line"/>
      <point x="302" y="648" type="line"/>
      <point x="273" y="530" type="line"/>
      <point x="172" y="530" type="line"/>
      <point x="129" y="356" type="line"/>
      <point x="230" y="356" type="line"/>
    </contour>
  </outline>
</glyph>
<glyph name="tbar" format="2">
  <advance width="450"/>
  <unicode hex="0167"/>
  <outline>
    <contour>
      <point x="17" y="0" type="line"/>
      <point x="275" y="0" type="line"/>
      <point x="332" y="227" type="line"/>
      <point x="403" y="227" type="line"/>
      <point x="440" y="373" type="line"/>
      <point x="369" y="373" type="line"/>
      <point x="385" y="438" type="line"/>
      <point x="466" y="438" type="line"/>
      <point x="514" y="630" type="line"/>
      <point x="430" y="630" type="line"/>
      <point x="478" y="822" type="line"/>
      <point x="226" y="822" type="line"/>
      <point x="178" y="630" type="line"/>
      <point x="100" y="630" type="line"/>
      <point x="52" y="438" type="line"/>
      <point x="127" y="438" type="line"/>
      <point x="111" y="373" type="line"/>
      <point x="46" y="373" type="line"/>
      <point x="9" y="227" type="line"/>
      <point x="74" y="227" type="line"/>
    </contour>
  </outline>
</glyph>
<glyph name="Uogonek" format="2">
  <advance width="860"/>
  <unicode hex="0172"/>
  <outline>
    <contour>
      <point x="420" y="-290" type="curve"/>
      <point x="500" y="-124" type="line"/>
      <point x="465" y="-122"/>
      <point x="445" y="-107"/>
      <point x="445" y="-83" type="curve" smooth="yes"/>
      <point x="445" y="-58"/>
      <point x="467" y="-28"/>
      <point x="498" y="-9" type="curve"/>
      <point x="654" y="16"/>
      <point x="762" y="119"/>
      <point x="804" y="287" type="curve" smooth="yes"/>
      <point x="958" y="900" type="line"/>
      <point x="670" y="900" type="line"/>
      <point x="533" y="353" type="line" smooth="yes"/>
      <point x="517" y="291"/>
      <point x="482" y="256"/>
      <point x="434" y="256" type="curve" smooth="yes"/>
      <point x="374" y="256"/>
      <point x="346" y="302"/>
      <point x="364" y="374" type="curve" smooth="yes"/>
      <point x="496" y="900" type="line"/>
      <point x="202" y="900" type="line"/>
      <point x="71" y="378" type="line" smooth="yes"/>
      <point x="21" y="179"/>
      <point x="110" y="38"/>
      <point x="300" y="-3" type="curve"/>
      <point x="245" y="-40"/>
      <point x="191" y="-88"/>
      <point x="191" y="-153" type="curve" smooth="yes"/>
      <point x="191" y="-234"/>
      <point x="273" y="-290"/>
    </contour>
  </outline>
</glyph>
<glyph name="uogonek" format="2">
  <advance width="740"/>
  <unicode hex="0173"/>
  <outline>
    <contour>
      <point x="516" y="-290" type="curve"/>
      <point x="596" y="-124" type="line"/>
      <point x="561" y="-122"/>
      <point x="541" y="-106"/>
      <point x="541" y="-83" type="curve" smooth="yes"/>
      <point x="541" y="-53"/>
      <point x="572" y="-18"/>
      <point x="617" y="0" type="curve"/>
      <point x="774" y="630" type="line"/>
      <point x="510" y="630" type="line"/>
      <point x="421" y="272" type="line" smooth="yes"/>
      <point x="412" y="236"/>
      <point x="386" y="214"/>
      <point x="353" y="214" type="curve" smooth="yes"/>
      <point x="314" y="214"/>
      <point x="292" y="245"/>
      <point x="303" y="287" type="curve" smooth="yes"/>
      <point x="388" y="630" type="line"/>
      <point x="124" y="630" type="line"/>
      <point x="36" y="275" type="line" smooth="yes"/>
      <point x="-5" y="108"/>
      <point x="80" y="-19"/>
      <point x="235" y="-19" type="curve" smooth="yes"/>
      <point x="295" y="-19"/>
      <point x="352" y="5"/>
      <point x="409" y="56" type="curve"/>
      <point x="395" y="0" type="line"/>
      <point x="323" y="-51"/>
      <point x="286" y="-102"/>
      <point x="286" y="-158" type="curve" smooth="yes"/>
      <point x="286" y="-233"/>
      <point x="368" y="-290"/>
    </contour>
  </outline>
</glyph>
<glyph name="Schwa" format="2">
  <advance width="1040"/>
  <unicode hex="018F"/>
  <outline>
    <contour>
      <point x="496" y="-20" type="curve" smooth="yes"/>
      <point x="784" y="-20"/>
      <point x="1037" y="227"/>
      <point x="1037" y="506" type="curve" smooth="yes"/>
      <point x="1037" y="746"/>
      <point x="851" y="920"/>
      <point x="599" y="920" type="curve" smooth="yes"/>
      <point x="513" y="920"/>
      <point x="426" y="900"/>
      <point x="346" y="862" type="curve"/>
      <point x="346" y="607" type="line"/>
      <point x="407" y="645"/>
      <point x="472" y="664"/>
      <point x="538" y="664" type="curve" smooth="yes"/>
      <point x="640" y="664"/>
      <point x="715" y="615"/>
      <point x="735" y="537" type="curve"/>
      <point x="689" y="542"/>
      <point x="655" y="544"/>
      <point x="621" y="544" type="curve" smooth="yes"/>
      <point x="86" y="544" type="line"/>
      <point x="71" y="497"/>
      <point x="62" y="443"/>
      <point x="62" y="392" type="curve" smooth="yes"/>
      <point x="62" y="159"/>
      <point x="250" y="-20"/>
    </contour>
    <contour>
      <point x="513" y="236" type="curve" smooth="yes"/>
      <point x="431" y="236"/>
      <point x="370" y="287"/>
      <point x="356" y="362" type="curve"/>
      <point x="583" y="362" type="line" smooth="yes"/>
      <point x="623" y="362"/>
      <point x="670" y="365"/>
      <point x="718" y="370" type="curve"/>
      <point x="678" y="289"/>
      <point x="596" y="236"/>
    </contour>
  </outline>
</glyph>
<glyph name="florin" format="2">
  <advance width="750"/>
  <unicode hex="0192"/>
  <outline>
    <contour>
      <point x="164" y="-201" type="curve" smooth="yes"/>
      <point x="305" y="-201"/>
      <point x="403" y="-129"/>
      <point x="436" y="4" type="curve" smooth="yes"/>
      <point x="522" y="348" type="line"/>
      <point x="714" y="348" type="line"/>
      <point x="765" y="552" type="line"/>
      <point x="570" y="552" type="line"/>
      <point x="611" y="716" type="line" smooth="yes"/>
      <point x="617" y="741"/>
      <point x="634" y="756"/>
      <point x="656" y="756" type="curve" smooth="yes"/>
      <point x="671" y="756"/>
      <point x="684" y="749"/>
      <point x="692" y="738" type="curve"/>
      <point x="788" y="931" type="line"/>
      <point x="742" y="959"/>
      <point x="691" y="972"/>
      <point x="629" y="972" type="curve" smooth="yes"/>
      <point x="490" y="972"/>
      <point x="392" y="900"/>
      <point x="359" y="767" type="curve" smooth="yes"/>
      <point x="306" y="552" type="line"/>
      <point x="111" y="552" type="line"/>
      <point x="60" y="348" type="line"/>
      <point x="252" y="348" type="line"/>
      <point x="179" y="55" type="line" smooth="yes"/>
      <point x="173" y="30"/>
      <point x="156" y="15"/>
      <point x="134" y="15" type="curve" smooth="yes"/>
      <point x="119" y="15"/>
      <point x="106" y="22"/>
      <point x="95" y="33" type="curve"/>
      <point x="0" y="-160" type="line"/>
      <point x="51" y="-188"/>
      <point x="102" y="-201"/>
    </contour>
  </outline>
</glyph>
<glyph name="Ohorn" format="2">
  <advance width="1050"/>
  <unicode hex="01A0"/>
  <anchor x="449" y="0" name="bottom"/>
  <anchor x="673" y="900" name="top"/>
  <outline>
    <contour>
      <point x="504" y="-17" type="curve" smooth="yes"/>
      <point x="790" y="-17"/>
      <point x="1038" y="226"/>
      <point x="1038" y="503" type="curve" smooth="yes"/>
      <point x="1038" y="561"/>
      <point x="1027" y="616"/>
      <point x="1007" y="665" type="curve"/>
      <point x="1110" y="696"/>
      <point x="1191" y="800"/>
      <point x="1191" y="914" type="curve" smooth="yes"/>
      <point x="1191" y="932"/>
      <point x="1189" y="945"/>
      <point x="1184" y="960" type="curve"/>
      <point x="987" y="960" type="line"/>
      <point x="991" y="945"/>
      <point x="993" y="930"/>
      <point x="993" y="916" type="curve" smooth="yes"/>
      <point x="993" y="854"/>
      <point x="959" y="811"/>
      <point x="909" y="806" type="curve"/>
      <point x="834" y="876"/>
      <point x="730" y="917"/>
      <point x="612" y="917" type="curve" smooth="yes"/>
      <point x="326" y="917"/>
      <point x="77" y="675"/>
      <point x="77" y="397" type="curve" smooth="yes"/>
      <point x="77" y="159"/>
      <point x="260" y="-17"/>
    </contour>
    <contour>
      <point x="537" y="268" type="curve" smooth="yes"/>
      <point x="443" y="268"/>
      <point x="373" y="336"/>
      <point x="373" y="428" type="curve" smooth="yes"/>
      <point x="373" y="536"/>
      <point x="469" y="632"/>
      <point x="578" y="632" type="curve" smooth="yes"/>
      <point x="672" y="632"/>
      <point x="742" y="564"/>
      <point x="742" y="472" type="curve" smooth="yes"/>
      <point x="742" y="364"/>
      <point x="645" y="268"/>
    </contour>
  </outline>
</glyph>
<glyph name="ohorn" format="2">
  <advance width="810"/>
  <unicode hex="01A1"/>
  <anchor x="295" y="0" name="bottom"/>
  <anchor x="453" y="630" name="top"/>
  <outline>
    <contour>
      <point x="340" y="-18" type="curve" smooth="yes"/>
      <point x="543" y="-18"/>
      <point x="719" y="155"/>
      <point x="719" y="356" type="curve" smooth="yes"/>
      <point x="719" y="370"/>
      <point x="718" y="383"/>
      <point x="716" y="396" type="curve"/>
      <point x="818" y="429"/>
      <point x="897" y="531"/>
      <point x="897" y="644" type="curve" smooth="yes"/>
      <point x="897" y="662"/>
      <point x="895" y="675"/>
      <point x="890" y="690" type="curve"/>
      <point x="693" y="690" type="line"/>
      <point x="697" y="675"/>
      <point x="699" y="660"/>
      <point x="699" y="646" type="curve" smooth="yes"/>
      <point x="699" y="593"/>
      <point x="679" y="555"/>
      <point x="650" y="545" type="curve"/>
      <point x="595" y="609"/>
      <point x="510" y="648"/>
      <point x="410" y="648" type="curve" smooth="yes"/>
      <point x="207" y="648"/>
      <point x="31" y="475"/>
      <point x="31" y="274" type="curve" smooth="yes"/>
      <point x="31" y="106"/>
      <point x="162" y="-18"/>
    </contour>
    <contour>
      <point x="363" y="220" type="curve" smooth="yes"/>
      <point x="315" y="220"/>
      <point x="281" y="254"/>
      <point x="281" y="302" type="curve" smooth="yes"/>
      <point x="281" y="360"/>
      <point x="330" y="410"/>
      <point x="387" y="410" type="curve" smooth="yes"/>
      <point x="435" y="410"/>
      <point x="469" y="376"/>
      <point x="469" y="328" type="curve" smooth="yes"/>
      <point x="469" y="270"/>
      <point x="420" y="220"/>
    </contour>
  </outline>
</glyph>
<glyph name="Uhorn" format="2">
  <advance width="1060"/>
  <unicode hex="01AF"/>
  <anchor x="358" y="0" name="bottom"/>
  <anchor x="582" y="900" name="top"/>
  <outline>
    <contour>
      <point x="412" y="-15" type="curve" smooth="yes"/>
      <point x="620" y="-15"/>
      <point x="754" y="88"/>
      <point x="804" y="287" type="curve" smooth="yes"/>
      <point x="898" y="664" type="line"/>
      <point x="913" y="659"/>
      <point x="934" y="656"/>
      <point x="954" y="656" type="curve" smooth="yes"/>
      <point x="1085" y="656"/>
      <point x="1201" y="777"/>
      <point x="1201" y="914" type="curve" smooth="yes"/>
      <point x="1201" y="932"/>
      <point x="1199" y="945"/>
      <point x="1194" y="960" type="curve"/>
      <point x="997" y="960" type="line"/>
      <point x="1001" y="945"/>
      <point x="1003" y="930"/>
      <point x="1003" y="916" type="curve" smooth="yes"/>
      <point x="1003" y="855"/>
      <point x="977" y="813"/>
      <point x="940" y="813" type="curve" smooth="yes"/>
      <point x="932" y="813"/>
      <point x="928" y="813"/>
      <point x="924" y="814" type="curve"/>
      <point x="946" y="900" type="line"/>
      <point x="670" y="900" type="line"/>
      <point x="533" y="353" type="line" smooth="yes"/>
      <point x="517" y="290"/>
      <point x="482" y="256"/>
      <point x="433" y="256" type="curve" smooth="yes"/>
      <point x="374" y="256"/>
      <point x="346" y="303"/>
      <point x="364" y="374" type="curve" smooth="yes"/>
      <point x="496" y="900" type="line"/>
      <point x="202" y="900" type="line"/>
      <point x="71" y="378" type="line" smooth="yes"/>
      <point x="12" y="145"/>
      <point x="151" y="-15"/>
    </contour>
  </outline>
</glyph>
<glyph name="uhorn" format="2">
  <advance width="930"/>
  <unicode hex="01B0"/>
  <anchor x="291" y="0" name="bottom"/>
  <anchor x="449" y="630" name="top"/>
  <outline>
    <contour>
      <point x="215" y="-20" type="curve" smooth="yes"/>
      <point x="282" y="-20"/>
      <point x="349" y="5"/>
      <point x="407" y="56" type="curve"/>
      <point x="393" y="0" type="line"/>
      <point x="616" y="0" type="line"/>
      <point x="715" y="394" type="line"/>
      <point x="729" y="389"/>
      <point x="750" y="386"/>
      <point x="770" y="386" type="curve" smooth="yes"/>
      <point x="901" y="386"/>
      <point x="1017" y="507"/>
      <point x="1017" y="644" type="curve" smooth="yes"/>
      <point x="1017" y="662"/>
      <point x="1015" y="675"/>
      <point x="1010" y="690" type="curve"/>
      <point x="813" y="690" type="line"/>
      <point x="817" y="675"/>
      <point x="819" y="660"/>
      <point x="819" y="646" type="curve" smooth="yes"/>
      <point x="819" y="585"/>
      <point x="793" y="543"/>
      <point x="756" y="543" type="curve" smooth="yes"/>
      <point x="748" y="543"/>
      <point x="744" y="543"/>
      <point x="740" y="544" type="curve"/>
      <point x="762" y="630" type="line"/>
      <point x="510" y="630" type="line"/>
      <point x="422" y="278" type="line" smooth="yes"/>
      <point x="412" y="240"/>
      <point x="380" y="214"/>
      <point x="345" y="214" type="curve" smooth="yes"/>
      <point x="311" y="214"/>
      <point x="290" y="240"/>
      <point x="300" y="278" type="curve" smooth="yes"/>
      <point x="388" y="630" type="line"/>
      <point x="124" y="630" type="line"/>
      <point x="28" y="247" type="line" smooth="yes"/>
      <point x="-15" y="74"/>
      <point x="86" y="-20"/>
    </contour>
  </outline>
</glyph>
<glyph name="Ezh" format="2">
  <advance width="710"/>
  <unicode hex="01B7"/>
  <anchor x="218" y="0" name="bottom"/>
  <anchor x="517" y="900" name="top"/>
  <outline>
    <contour>
      <point x="292" y="-20" type="curve" smooth="yes"/>
      <point x="512" y="-20"/>
      <point x="693" y="147"/>
      <point x="693" y="349" type="curve" smooth="yes"/>
      <point x="693" y="443"/>
      <point x="654" y="520"/>
      <point x="579" y="570" type="curve"/>
      <point x="836" y="898" type="line"/>
      <point x="836" y="900" type="line"/>
      <point x="197" y="900" type="line"/>
      <point x="141" y="678" type="line"/>
      <point x="390" y="678" type="line"/>
      <point x="183" y="401" type="line"/>
      <point x="184" y="399" type="line"/>
      <point x="205" y="404"/>
      <point x="236" y="407"/>
      <point x="268" y="407" type="curve" smooth="yes"/>
      <point x="367" y="407"/>
      <point x="421" y="375"/>
      <point x="421" y="317" type="curve" smooth="yes"/>
      <point x="421" y="263"/>
      <point x="374" y="226"/>
      <point x="306" y="226" type="curve" smooth="yes"/>
      <point x="236" y="226"/>
      <point x="180" y="265"/>
      <point x="138" y="342" type="curve"/>
      <point x="-27" y="122" type="line"/>
      <point x="38" y="36"/>
      <point x="164" y="-20"/>
    </contour>
  </outline>
</glyph>
<glyph name="Gstroke" format="2">
  <advance width="910"/>
  <unicode hex="01E4"/>
  <outline>
    <contour>
      <point x="526" y="-20" type="curve" smooth="yes"/>
      <point x="626" y="-20"/>
      <point x="721" y="5"/>
      <point x="796" y="52" type="curve"/>
      <point x="860" y="306" type="line"/>
      <point x="911" y="306" type="line"/>
      <point x="953" y="474" type="line"/>
      <point x="902" y="474" type="line"/>
      <point x="914" y="524" type="line"/>
      <point x="665" y="524" type="line"/>
      <point x="653" y="474" type="line"/>
      <point x="533" y="474" type="line"/>
      <point x="491" y="306" type="line"/>
      <point x="614" y="306" type="line"/>
      <point x="601" y="248" type="line"/>
      <point x="580" y="241"/>
      <point x="563" y="238"/>
      <point x="543" y="238" type="curve" smooth="yes"/>
      <point x="441" y="238"/>
      <point x="368" y="311"/>
      <point x="368" y="413" type="curve" smooth="yes"/>
      <point x="368" y="547"/>
      <point x="479" y="656"/>
      <point x="617" y="656" type="curve" smooth="yes"/>
      <point x="703" y="656"/>
      <point x="786" y="616"/>
      <point x="840" y="548" type="curve"/>
      <point x="968" y="806" type="line"/>
      <point x="887" y="877"/>
      <point x="756" y="920"/>
      <point x="623" y="920" type="curve" smooth="yes"/>
      <point x="325" y="920"/>
      <point x="77" y="682"/>
      <point x="77" y="395" type="curve" smooth="yes"/>
      <point x="77" y="153"/>
      <point x="264" y="-20"/>
    </contour>
  </outline>
</glyph>
<glyph name="gstroke" format="2">
  <advance width="760"/>
  <unicode hex="01E5"/>
  <outline>
    <contour>
      <point x="261" y="-290" type="curve" smooth="yes"/>
      <point x="449" y="-290"/>
      <point x="594" y="-177"/>
      <point x="640" y="7" type="curve" smooth="yes"/>
      <point x="698" y="242" type="line"/>
      <point x="728" y="242" type="line"/>
      <point x="764" y="388" type="line"/>
      <point x="735" y="388" type="line"/>
      <point x="795" y="630" type="line"/>
      <point x="572" y="630" type="line"/>
      <point x="561" y="586" type="line"/>
      <point x="525" y="622"/>
      <point x="462" y="644"/>
      <point x="392" y="644" type="curve" smooth="yes"/>
      <point x="196" y="644"/>
      <point x="25" y="469"/>
      <point x="25" y="268" type="curve" smooth="yes"/>
      <point x="25" y="106"/>
      <point x="137" y="-8"/>
      <point x="288" y="-8" type="curve" smooth="yes"/>
      <point x="343" y="-8"/>
      <point x="386" y="8"/>
      <point x="438" y="44" type="curve"/>
      <point x="435" y="31" type="line" smooth="yes"/>
      <point x="423" y="-20"/>
      <point x="356" y="-67"/>
      <point x="274" y="-67" type="curve" smooth="yes"/>
      <point x="209" y="-67"/>
      <point x="120" y="-44"/>
      <point x="60" y="27" type="curve"/>
      <point x="-43" y="-182" type="line"/>
      <point x="40" y="-263"/>
      <point x="176" y="-290"/>
    </contour>
    <contour>
      <point x="389" y="190" type="curve" smooth="yes"/>
      <point x="325" y="190"/>
      <point x="280" y="235"/>
      <point x="280" y="298" type="curve" smooth="yes"/>
      <point x="280" y="374"/>
      <point x="344" y="440"/>
      <point x="419" y="440" type="curve" smooth="yes"/>
      <point x="460" y="440"/>
      <point x="494" y="420"/>
      <point x="512" y="388" type="curve"/>
      <point x="346" y="388" type="line"/>
      <point x="310" y="242" type="line"/>
      <point x="495" y="242" type="line"/>
      <point x="469" y="210"/>
      <point x="431" y="190"/>
    </contour>
  </outline>
</glyph>
<glyph name="Oogonek" format="2">
  <advance width="1040"/>
  <unicode hex="01EA"/>
  <anchor x="669" y="900" name="top"/>
  <outline>
    <contour>
      <point x="528" y="-290" type="curve"/>
      <point x="608" y="-124" type="line"/>
      <point x="573" y="-122"/>
      <point x="553" y="-105"/>
      <point x="553" y="-82" type="curve" smooth="yes"/>
      <point x="553" y="-44"/>
      <point x="595" y="-15"/>
      <point x="642" y="2" type="curve"/>
      <point x="865" y="64"/>
      <point x="1038" y="272"/>
      <point x="1038" y="503" type="curve" smooth="yes"/>
      <point x="1038" y="741"/>
      <point x="856" y="917"/>
      <point x="612" y="917" type="curve" smooth="yes"/>
      <point x="326" y="917"/>
      <point x="77" y="675"/>
      <point x="77" y="397" type="curve" smooth="yes"/>
      <point x="77" y="211"/>
      <point x="188" y="63"/>
      <point x="354" y="7" type="curve"/>
      <point x="316" y="-38"/>
      <point x="277" y="-90"/>
      <point x="277" y="-144" type="curve" smooth="yes"/>
      <point x="277" y="-229"/>
      <point x="366" y="-290"/>
    </contour>
    <contour>
      <point x="537" y="268" type="curve" smooth="yes"/>
      <point x="443" y="268"/>
      <point x="373" y="336"/>
      <point x="373" y="428" type="curve" smooth="yes"/>
      <point x="373" y="536"/>
      <point x="469" y="632"/>
      <point x="578" y="632" type="curve" smooth="yes"/>
      <point x="672" y="632"/>
      <point x="742" y="564"/>
      <point x="742" y="472" type="curve" smooth="yes"/>
      <point x="742" y="364"/>
      <point x="645" y="268"/>
    </contour>
  </outline>
</glyph>
<glyph name="oogonek" format="2">
  <advance width="740"/>
  <unicode hex="01EB"/>
  <anchor x="452" y="630" name="top"/>
  <outline>
    <contour>
      <point x="349" y="-290" type="curve"/>
      <point x="429" y="-124" type="line"/>
      <point x="394" y="-122"/>
      <point x="374" y="-107"/>
      <point x="374" y="-83" type="curve" smooth="yes"/>
      <point x="374" y="-56"/>
      <point x="399" y="-25"/>
      <point x="433" y="-6" type="curve"/>
      <point x="594" y="37"/>
      <point x="719" y="186"/>
      <point x="719" y="356" type="curve" smooth="yes"/>
      <point x="719" y="524"/>
      <point x="588" y="648"/>
      <point x="410" y="648" type="curve" smooth="yes"/>
      <point x="207" y="648"/>
      <point x="31" y="475"/>
      <point x="31" y="274" type="curve" smooth="yes"/>
      <point x="31" y="142"/>
      <point x="111" y="38"/>
      <point x="232" y="-1" type="curve"/>
      <point x="176" y="-38"/>
      <point x="120" y="-87"/>
      <point x="120" y="-153" type="curve" smooth="yes"/>
      <point x="120" y="-234"/>
      <point x="202" y="-290"/>
    </contour>
    <contour>
      <point x="363" y="220" type="curve" smooth="yes"/>
      <point x="315" y="220"/>
      <point x="281" y="254"/>
      <point x="281" y="302" type="curve" smooth="yes"/>
      <point x="281" y="360"/>
      <point x="330" y="410"/>
      <point x="387" y="410" type="curve" smooth="yes"/>
      <point x="435" y="410"/>
      <point x="469" y="376"/>
      <point x="469" y="328" type="curve" smooth="yes"/>
      <point x="469" y="270"/>
      <point x="420" y="220"/>
    </contour>
  </outline>
</glyph>
<glyph name="Aringacute" format="2">
  <advance width="860"/>
  <unicode hex="01FA"/>
  <outline>
    <contour>
      <point x="-91" y="0" type="line"/>
      <point x="215" y="0" type="line"/>
      <point x="265" y="75" type="line"/>
      <point x="507" y="75" type="line"/>
      <point x="521" y="0" type="line"/>
      <point x="801" y="0" type="line"/>
      <point x="667" y="823" type="line"/>
      <point x="735" y="857"/>
      <point x="786" y="928"/>
      <point x="786" y="1006" type="curve" smooth="yes"/>
      <point x="786" y="1096"/>
      <point x="715" y="1166"/>
      <point x="622" y="1166" type="curve" smooth="yes"/>
      <point x="511" y="1166"/>
      <point x="414" y="1071"/>
      <point x="414" y="963" type="curve" smooth="yes"/>
      <point x="414" y="914"/>
      <point x="434" y="873"/>
      <point x="465" y="844" type="curve"/>
    </contour>
    <contour>
      <point x="363" y="237" type="line"/>
      <point x="381" y="266" type="line" smooth="yes"/>
      <point x="418" y="324"/>
      <point x="439" y="362"/>
      <point x="475" y="431" type="curve"/>
      <point x="476" y="362"/>
      <point x="479" y="322"/>
      <point x="487" y="266" type="curve" smooth="yes"/>
      <point x="491" y="237" type="line"/>
    </contour>
    <contour>
      <point x="595" y="930" type="curve" smooth="yes"/>
      <point x="566" y="930"/>
      <point x="546" y="950"/>
      <point x="546" y="979" type="curve" smooth="yes"/>
      <point x="546" y="1009"/>
      <point x="574" y="1038"/>
      <point x="605" y="1038" type="curve" smooth="yes"/>
      <point x="634" y="1038"/>
      <point x="654" y="1017"/>
      <point x="654" y="989" type="curve" smooth="yes"/>
      <point x="654" y="959"/>
      <point x="626" y="930"/>
    </contour>
    <contour>
      <point x="559" y="1202" type="line"/>
      <point x="735" y="1202" type="line"/>
      <point x="909" y="1376" type="line"/>
      <point x="673" y="1376" type="line"/>
    </contour>
  </outline>
</glyph>
<glyph name="jdotless" format="2">
  <advance width="360"/>
  <unicode hex="0237"/>
  <anchor x="30" y="-300" name="bottom"/>
  <anchor x="262" y="630" name="top"/>
  <outline>
    <contour>
      <point x="-102" y="-290" type="line"/>
      <point x="59" y="-290"/>
      <point x="189" y="-193"/>
      <point x="226" y="-44" type="curve" smooth="yes"/>
      <point x="394" y="630" type="line"/>
      <point x="130" y="630" type="line"/>
      <point x="-29" y="-7" type="line" smooth="yes"/>
      <point x="-39" y="-43"/>
      <point x="-63" y="-62"/>
      <point x="-100" y="-62" type="curve"/>
    </contour>
  </outline>
</glyph>
<glyph name="schwa" format="2">
  <advance width="720"/>
  <unicode hex="0259"/>
  <outline>
    <contour>
      <point x="308" y="-20" type="curve" smooth="yes"/>
      <point x="519" y="-20"/>
      <point x="694" y="147"/>
      <point x="694" y="350" type="curve" smooth="yes"/>
      <point x="694" y="528"/>
      <point x="558" y="650"/>
      <point x="360" y="650" type="curve" smooth="yes"/>
      <point x="286" y="650"/>
      <point x="206" y="630"/>
      <point x="163" y="604" type="curve"/>
      <point x="163" y="405" type="line"/>
      <point x="198" y="432"/>
      <point x="246" y="449"/>
      <point x="308" y="449" type="curve" smooth="yes"/>
      <point x="380" y="449"/>
      <point x="445" y="418"/>
      <point x="462" y="377" type="curve"/>
      <point x="434" y="381"/>
      <point x="406" y="383"/>
      <point x="382" y="383" type="curve" smooth="yes"/>
      <point x="41" y="383" type="line"/>
      <point x="29" y="335" type="line" smooth="yes"/>
      <point x="-22" y="129"/>
      <point x="95" y="-20"/>
    </contour>
    <contour>
      <point x="327" y="170" type="curve" smooth="yes"/>
      <point x="282" y="170"/>
      <point x="250" y="199"/>
      <point x="246" y="245" type="curve"/>
      <point x="272" y="242"/>
      <point x="307" y="239"/>
      <point x="326" y="239" type="curve" smooth="yes"/>
      <point x="354" y="239" type="line" smooth="yes"/>
      <point x="371" y="239"/>
      <point x="393" y="241"/>
      <point x="435" y="245" type="curve"/>
      <point x="414" y="196"/>
      <point x="376" y="170"/>
    </contour>
  </outline>
</glyph>
<glyph name="ezh" format="2">
  <advance width="660"/>
  <unicode hex="0292"/>
  <anchor x="178" y="-282" name="bottom"/>
  <anchor x="449" y="630" name="top"/>
  <outline>
    <contour>
      <point x="184" y="-282" type="curve" smooth="yes"/>
      <point x="397" y="-282"/>
      <point x="572" y="-126"/>
      <point x="572" y="64" type="curve" smooth="yes"/>
      <point x="572" y="157"/>
      <point x="530" y="235"/>
      <point x="453" y="283" type="curve"/>
      <point x="722" y="628" type="line"/>
      <point x="722" y="630" type="line"/>
      <point x="113" y="630" type="line"/>
      <point x="58" y="414" type="line"/>
      <point x="310" y="414" type="line"/>
      <point x="95" y="128" type="line"/>
      <point x="96" y="126" type="line"/>
      <point x="112" y="128"/>
      <point x="132" y="129"/>
      <point x="150" y="129" type="curve" smooth="yes"/>
      <point x="245" y="129"/>
      <point x="296" y="98"/>
      <point x="296" y="40" type="curve" smooth="yes"/>
      <point x="296" y="-13"/>
      <point x="252" y="-50"/>
      <point x="187" y="-50" type="curve" smooth="yes"/>
      <point x="125" y="-50"/>
      <point x="74" y="-15"/>
      <point x="36" y="51" type="curve"/>
      <point x="-111" y="-144" type="line"/>
      <point x="-43" y="-232"/>
      <point x="64" y="-282"/>
    </contour>
  </outline>
</glyph>
<glyph name="gravecomb" format="2">
  <unicode hex="0300"/>
  <anchor x="478" y="630" name="_top"/>
  <anchor x="425" y="912" name="top"/>
  <outline>
    <contour>
      <point x="406" y="692" type="line"/>
      <point x="600" y="692" type="line"/>
      <point x="558" y="912" type="line"/>
      <point x="292" y="912" type="line"/>
    </contour>
  </outline>
</glyph>
<glyph name="acutecomb" format="2">
  <unicode hex="0301"/>
  <anchor x="380" y="630" name="_top"/>
  <anchor x="560" y="912" name="top"/>
  <outline>
    <contour>
      <point x="269" y="692" type="line"/>
      <point x="491" y="692" type="line"/>
      <point x="701" y="912" type="line"/>
      <point x="413" y="912" type="line"/>
    </contour>
  </outline>
</glyph>
<glyph name="circumflexcomb" format="2">
  <unicode hex="0302"/>
  <anchor x="442" y="630" name="_top"/>
  <anchor x="496" y="912" name="top"/>
  <outline>
    <contour>
      <point x="161" y="692" type="line"/>
      <point x="398" y="692" type="line"/>
      <point x="423" y="714"/>
      <point x="453" y="746"/>
      <point x="475" y="771" type="curve"/>
      <point x="485" y="746"/>
      <point x="499" y="714"/>
      <point x="514" y="692" type="curve"/>
      <point x="725" y="692" type="line"/>
      <point x="602" y="912" type="line"/>
      <point x="392" y="912" type="line"/>
    </contour>
  </outline>
</glyph>
<glyph name="tildecomb" format="2">
  <unicode hex="0303"/>
  <anchor x="442" y="630" name="_top"/>
  <anchor x="512" y="909" name="top"/>
  <outline>
    <contour>
      <point x="279" y="672" type="line"/>
      <point x="298" y="710"/>
      <point x="331" y="729"/>
      <point x="376" y="729" type="curve" smooth="yes"/>
      <point x="436" y="729"/>
      <point x="514" y="675"/>
      <point x="589" y="675" type="curve" smooth="yes"/>
      <point x="651" y="675"/>
      <point x="707" y="708"/>
      <point x="735" y="766" type="curve"/>
      <point x="687" y="912" type="line"/>
      <point x="668" y="874"/>
      <point x="638" y="855"/>
      <point x="593" y="855" type="curve" smooth="yes"/>
      <point x="533" y="855"/>
      <point x="455" y="909"/>
      <point x="380" y="909" type="curve" smooth="yes"/>
      <point x="318" y="909"/>
      <point x="259" y="876"/>
      <point x="231" y="818" type="curve"/>
    </contour>
  </outline>
</glyph>
<glyph name="macroncomb" format="2">
  <unicode hex="0304"/>
  <anchor x="442" y="630" name="_top"/>
  <anchor x="507" y="893" name="top"/>
  <outline>
    <contour>
      <point x="231" y="699" type="line"/>
      <point x="687" y="699" type="line"/>
      <point x="733" y="885" type="line"/>
      <point x="277" y="885" type="line"/>
    </contour>
  </outline>
</glyph>
<glyph name="brevecomb" format="2">
  <unicode hex="0306"/>
  <anchor x="442" y="630" name="_top"/>
  <anchor x="509" y="900" name="top"/>
  <outline>
    <contour>
      <point x="477" y="680" type="curve" smooth="yes"/>
      <point x="611" y="680"/>
      <point x="708" y="758"/>
      <point x="740" y="888" type="curve"/>
      <point x="562" y="888" type="line"/>
      <point x="557" y="855"/>
      <point x="526" y="829"/>
      <point x="493" y="829" type="curve" smooth="yes"/>
      <point x="460" y="829"/>
      <point x="437" y="855"/>
      <point x="439" y="888" type="curve"/>
      <point x="272" y="888" type="line"/>
      <point x="258" y="773"/>
      <point x="339" y="680"/>
    </contour>
  </outline>
</glyph>
<glyph name="dotaccentcomb" format="2">
  <unicode hex="0307"/>
  <anchor x="442" y="630" name="_top"/>
  <anchor x="517" y="930" name="top"/>
  <outline>
    <contour>
      <point x="471" y="672" type="curve" smooth="yes"/>
      <point x="547" y="672"/>
      <point x="615" y="740"/>
      <point x="615" y="816" type="curve" smooth="yes"/>
      <point x="615" y="880"/>
      <point x="566" y="930"/>
      <point x="501" y="930" type="curve" smooth="yes"/>
      <point x="425" y="930"/>
      <point x="357" y="862"/>
      <point x="357" y="786" type="curve" smooth="yes"/>
      <point x="357" y="719"/>
      <point x="408" y="672"/>
    </contour>
  </outline>
</glyph>
<glyph name="hookabovecomb" format="2">
  <unicode hex="0309"/>
  <anchor x="475" y="630" name="_top"/>
  <anchor x="525" y="950" name="top"/>
  <outline>
    <contour>
      <point x="394" y="692" type="curve"/>
      <point x="588" y="692" type="line"/>
      <point x="623" y="729"/>
      <point x="656" y="774"/>
      <point x="656" y="822" type="curve" smooth="yes"/>
      <point x="656" y="886"/>
      <point x="597" y="950"/>
      <point x="494" y="950" type="curve" smooth="yes"/>
      <point x="431" y="950"/>
      <point x="374" y="937"/>
      <point x="328" y="911" type="curve"/>
      <point x="328" y="766" type="line"/>
      <point x="352" y="781"/>
      <point x="379" y="790"/>
      <point x="403" y="790" type="curve" smooth="yes"/>
      <point x="426" y="790"/>
      <point x="439" y="779"/>
      <point x="439" y="763" type="curve" smooth="yes"/>
      <point x="439" y="745"/>
      <point x="424" y="722"/>
    </contour>
  </outline>
</glyph>
<glyph name="ringcomb" format="2">
  <unicode hex="030A"/>
  <anchor x="442" y="630" name="_top"/>
  <anchor x="526" y="965" name="top"/>
  <outline>
    <contour>
      <point x="473" y="671" type="curve" smooth="yes"/>
      <point x="565" y="671"/>
      <point x="645" y="749"/>
      <point x="645" y="839" type="curve" smooth="yes"/>
      <point x="645" y="915"/>
      <point x="586" y="971"/>
      <point x="505" y="971" type="curve" smooth="yes"/>
      <point x="413" y="971"/>
      <point x="333" y="893"/>
      <point x="333" y="803" type="curve" smooth="yes"/>
      <point x="333" y="727"/>
      <point x="392" y="671"/>
    </contour>
    <contour>
      <point x="484" y="779" type="curve" smooth="yes"/>
      <point x="463" y="779"/>
      <point x="447" y="795"/>
      <point x="447" y="815" type="curve" smooth="yes"/>
      <point x="447" y="841"/>
      <point x="469" y="863"/>
      <point x="494" y="863" type="curve" smooth="yes"/>
      <point x="515" y="863"/>
      <point x="531" y="847"/>
      <point x="531" y="827" type="curve" smooth="yes"/>
      <point x="531" y="801"/>
      <point x="509" y="779"/>
    </contour>
  </outline>
</glyph>
<glyph name="hungarumlautcomb" format="2">
  <unicode hex="030B"/>
  <anchor x="383" y="630" name="_top"/>
  <anchor x="536" y="900" name="top"/>
  <outline>
    <contour>
      <point x="451" y="692" type="line"/>
      <point x="630" y="692" type="line"/>
      <point x="796" y="900" type="line"/>
      <point x="553" y="900" type="line"/>
    </contour>
    <contour>
      <point x="172" y="692" type="line"/>
      <point x="351" y="692" type="line"/>
      <point x="517" y="900" type="line"/>
      <point x="274" y="900" type="line"/>
    </contour>
  </outline>
</glyph>
<glyph name="caroncomb" format="2">
  <unicode hex="030C"/>
  <anchor x="442" y="630" name="_top"/>
  <anchor x="496" y="912" name="top"/>
  <outline>
    <contour>
      <point x="352" y="692" type="line"/>
      <point x="564" y="692" type="line"/>
      <point x="795" y="912" type="line"/>
      <point x="556" y="912" type="line"/>
      <point x="531" y="890"/>
      <point x="501" y="858"/>
      <point x="479" y="833" type="curve"/>
      <point x="469" y="858"/>
      <point x="455" y="890"/>
      <point x="440" y="912" type="curve"/>
      <point x="229" y="912" type="line"/>
    </contour>
  </outline>
</glyph>
<glyph name="dblgravecomb" format="2">
  <unicode hex="030F"/>
  <anchor x="503" y="630" name="_top"/>
  <anchor x="471" y="912" name="top"/>
  <outline>
    <contour>
      <point x="567" y="692" type="line"/>
      <point x="722" y="692" type="line"/>
      <point x="710" y="912" type="line"/>
      <point x="483" y="912" type="line"/>
    </contour>
    <contour>
      <point x="316" y="692" type="line"/>
      <point x="471" y="692" type="line"/>
      <point x="459" y="912" type="line"/>
      <point x="232" y="912" type="line"/>
    </contour>
  </outline>
</glyph>
<glyph name="breveinvertedcomb" format="2">
  <unicode hex="0311"/>
  <anchor x="442" y="630" name="_top"/>
  <anchor x="514" y="920" name="top"/>
  <outline>
    <contour>
      <point x="223" y="692" type="curve"/>
      <point x="401" y="692" type="line"/>
      <point x="406" y="725"/>
      <point x="437" y="751"/>
      <point x="470" y="751" type="curve" smooth="yes"/>
      <point x="503" y="751"/>
      <point x="526" y="725"/>
      <point x="524" y="692" type="curve"/>
      <point x="691" y="692" type="line"/>
      <point x="705" y="807"/>
      <point x="624" y="900"/>
      <point x="486" y="900" type="curve" smooth="yes"/>
      <point x="352" y="900"/>
      <point x="255" y="822"/>
    </contour>
  </outline>
</glyph>
<glyph name="commaturnedabovecomb" format="2">
  <unicode hex="0312"/>
  <anchor x="387" y="630" name="_top"/>
  <anchor x="562" y="930" name="top"/>
  <outline>
    <contour>
      <point x="274" y="692" type="curve"/>
      <point x="532" y="692" type="line"/>
      <point x="562" y="780"/>
      <point x="609" y="852"/>
      <point x="676" y="912" type="curve"/>
      <point x="401" y="912" type="line"/>
      <point x="342" y="847"/>
      <point x="300" y="773"/>
    </contour>
  </outline>
</glyph>
<glyph name="horncomb" format="2">
  <unicode hex="031B"/>
  <anchor x="314" y="630" name="_topright"/>
  <outline>
    <contour>
      <point x="324" y="386" type="curve" smooth="yes"/>
      <point x="455" y="386"/>
      <point x="571" y="507"/>
      <point x="571" y="644" type="curve" smooth="yes"/>
      <point x="571" y="662"/>
      <point x="569" y="675"/>
      <point x="564" y="690" type="curve"/>
      <point x="367" y="690" type="line"/>
      <point x="371" y="675"/>
      <point x="373" y="660"/>
      <point x="373" y="646" type="curve" smooth="yes"/>
      <point x="373" y="585"/>
      <point x="347" y="543"/>
      <point x="310" y="543" type="curve" smooth="yes"/>
      <point x="302" y="543"/>
      <point x="298" y="543"/>
      <point x="292" y="544" type="curve"/>
      <point x="256" y="399" type="line"/>
      <point x="274" y="391"/>
      <point x="299" y="386"/>
    </contour>
  </outline>
</glyph>
<glyph name="dotbelowcomb" format="2">
  <unicode hex="0323"/>
  <anchor x="285" y="0" name="_bottom"/>
  <anchor x="210" y="-300" name="bottom"/>
  <outline>
    <contour>
      <point x="226" y="-300" type="curve" smooth="yes"/>
      <point x="302" y="-300"/>
      <point x="370" y="-232"/>
      <point x="370" y="-156" type="curve" smooth="yes"/>
      <point x="370" y="-89"/>
      <point x="319" y="-42"/>
      <point x="256" y="-42" type="curve" smooth="yes"/>
      <point x="180" y="-42"/>
      <point x="112" y="-110"/>
      <point x="112" y="-186" type="curve" smooth="yes"/>
      <point x="112" y="-250"/>
      <point x="161" y="-300"/>
    </contour>
  </outline>
</glyph>
<glyph name="dieresisbelowcomb" format="2">
  <unicode hex="0324"/>
  <anchor x="285" y="0" name="_bottom"/>
  <anchor x="360" y="-282" name="bottom"/>
  <outline>
    <contour>
      <point x="378" y="-282" type="curve" smooth="yes"/>
      <point x="449" y="-282"/>
      <point x="512" y="-219"/>
      <point x="512" y="-148" type="curve" smooth="yes"/>
      <point x="512" y="-86"/>
      <point x="465" y="-42"/>
      <point x="406" y="-42" type="curve" smooth="yes"/>
      <point x="335" y="-42"/>
      <point x="272" y="-105"/>
      <point x="272" y="-176" type="curve" smooth="yes"/>
      <point x="272" y="-235"/>
      <point x="318" y="-282"/>
    </contour>
    <contour>
      <point x="82" y="-282" type="curve" smooth="yes"/>
      <point x="153" y="-282"/>
      <point x="216" y="-219"/>
      <point x="216" y="-148" type="curve" smooth="yes"/>
      <point x="216" y="-86"/>
      <point x="169" y="-42"/>
      <point x="110" y="-42" type="curve" smooth="yes"/>
      <point x="39" y="-42"/>
      <point x="-24" y="-105"/>
      <point x="-24" y="-176" type="curve" smooth="yes"/>
      <point x="-24" y="-235"/>
      <point x="22" y="-282"/>
    </contour>
  </outline>
</glyph>
<glyph name="commaaccentcomb" format="2">
  <unicode hex="0326"/>
  <anchor x="285" y="0" name="_bottom"/>
  <anchor x="134" y="-282" name="bottom"/>
  <outline>
    <contour>
      <point x="-4" y="-282" type="curve"/>
      <point x="271" y="-282" type="line"/>
      <point x="330" y="-217"/>
      <point x="372" y="-143"/>
      <point x="398" y="-62" type="curve"/>
      <point x="140" y="-62" type="line"/>
      <point x="110" y="-150"/>
      <point x="63" y="-222"/>
    </contour>
  </outline>
</glyph>
<glyph name="cedillacomb" format="2">
  <unicode hex="0327"/>
  <anchor x="285" y="0" name="_bottom"/>
  <anchor x="119" y="-220" name="bottom"/>
  <outline>
    <contour>
      <point x="-26" y="-220" type="line"/>
      <point x="264" y="-220" type="line"/>
      <point x="394" y="0" type="line"/>
      <point x="176" y="0" type="line"/>
    </contour>
  </outline>
</glyph>
<glyph name="ogonekcomb" format="2">
  <unicode hex="0328"/>
  <anchor x="317" y="0" name="_ogonek"/>
  <outline>
    <contour>
      <point x="327" y="-290" type="curve"/>
      <point x="407" y="-124" type="line"/>
      <point x="372" y="-122"/>
      <point x="352" y="-107"/>
      <point x="352" y="-83" type="curve" smooth="yes"/>
      <point x="352" y="-53"/>
      <point x="383" y="-18"/>
      <point x="422" y="0" type="curve"/>
      <point x="212" y="0" type="line"/>
      <point x="155" y="-37"/>
      <point x="98" y="-86"/>
      <point x="98" y="-153" type="curve" smooth="yes"/>
      <point x="98" y="-234"/>
      <point x="180" y="-290"/>
    </contour>
  </outline>
</glyph>
<glyph name="brevebelowcomb" format="2">
  <unicode hex="032E"/>
  <anchor x="285" y="0" name="_bottom"/>
  <anchor x="218" y="-270" name="bottom"/>
  <outline>
    <contour>
      <point x="241" y="-270" type="curve" smooth="yes"/>
      <point x="375" y="-270"/>
      <point x="472" y="-192"/>
      <point x="504" y="-62" type="curve"/>
      <point x="326" y="-62" type="line"/>
      <point x="321" y="-95"/>
      <point x="290" y="-121"/>
      <point x="257" y="-121" type="curve" smooth="yes"/>
      <point x="224" y="-121"/>
      <point x="201" y="-95"/>
      <point x="203" y="-62" type="curve"/>
      <point x="36" y="-62" type="line"/>
      <point x="22" y="-177"/>
      <point x="103" y="-270"/>
    </contour>
  </outline>
</glyph>
<glyph name="macronbelowcomb" format="2">
  <unicode hex="0331"/>
  <anchor x="285" y="0" name="_bottom"/>
  <anchor x="222" y="-255" name="bottom"/>
  <outline>
    <contour>
      <point x="-6" y="-255" type="line"/>
      <point x="450" y="-255" type="line"/>
      <point x="496" y="-69" type="line"/>
      <point x="40" y="-69" type="line"/>
    </contour>
  </outline>
</glyph>
<glyph name="strokelongcomb" format="2">
  <unicode hex="0336"/>
  <anchor x="496" y="450" name="_center"/>
  <outline>
    <contour>
      <point x="32" y="381" type="line"/>
      <point x="928" y="381" type="line"/>
      <point x="962" y="519" type="line"/>
      <point x="66" y="519" type="line"/>
    </contour>
  </outline>
</glyph>
<glyph name="slashshortcomb" format="2">
  <unicode hex="0337"/>
  <anchor x="275" y="300" name="_center"/>
  <outline>
    <contour>
      <point x="16" y="274" type="line"/>
      <point x="55" y="158" type="line"/>
      <point x="534" y="327" type="line"/>
      <point x="495" y="443" type="line"/>
    </contour>
  </outline>
</glyph>
<glyph name="slashlongcomb" format="2">
  <unicode hex="0338"/>
  <anchor x="275" y="315" name="_center"/>
  <outline>
    <contour>
      <point x="-14" y="-8" type="line"/>
      <point x="645" y="546" type="line"/>
      <point x="564" y="645" type="line"/>
      <point x="-95" y="91" type="line"/>
    </contour>
  </outline>
</glyph>
<glyph name="pi" format="2">
  <advance width="740"/>
  <unicode hex="03C0"/>
  <outline>
    <contour>
      <point x="-27" y="0" type="line"/>
      <point x="237" y="0" type="line"/>
      <point x="341" y="414" type="line"/>
      <point x="457" y="414" type="line"/>
      <point x="353" y="0" type="line"/>
      <point x="617" y="0" type="line"/>
      <point x="775" y="630" type="line"/>
      <point x="131" y="630" type="line"/>
    </contour>
  </outline>
</glyph>
<glyph name="baht" format="2">
  <advance width="750"/>
  <unicode hex="0E3F"/>
  <outline>
    <contour>
      <point x="196" y="-120" type="line"/>
      <point x="334" y="-120" type="line"/>
      <point x="365" y="0" type="line"/>
      <point x="580" y="4"/>
      <point x="720" y="130"/>
      <point x="720" y="322" type="curve" smooth="yes"/>
      <point x="720" y="379"/>
      <point x="697" y="431"/>
      <point x="657" y="473" type="curve"/>
      <point x="728" y="519"/>
      <point x="769" y="588"/>
      <point x="769" y="670" type="curve" smooth="yes"/>
      <point x="769" y="785"/>
      <point x="704" y="861"/>
      <point x="586" y="889" type="curve"/>
      <point x="612" y="990" type="line"/>
      <point x="474" y="990" type="line"/>
      <point x="451" y="900" type="line"/>
      <point x="210" y="900" type="line"/>
      <point x="-15" y="0" type="line"/>
      <point x="226" y="0" type="line"/>
    </contour>
    <contour>
      <point x="299" y="222" type="line"/>
      <point x="342" y="396" type="line"/>
      <point x="395" y="396" type="line" smooth="yes"/>
      <point x="442" y="396"/>
      <point x="471" y="367"/>
      <point x="471" y="322" type="curve" smooth="yes"/>
      <point x="471" y="267"/>
      <point x="427" y="222"/>
      <point x="373" y="222" type="curve" smooth="yes"/>
    </contour>
    <contour>
      <point x="384" y="564" type="line"/>
      <point x="420" y="708" type="line"/>
      <point x="469" y="708" type="line" smooth="yes"/>
      <point x="508" y="708"/>
      <point x="532" y="684"/>
      <point x="532" y="647" type="curve" smooth="yes"/>
      <point x="532" y="601"/>
      <point x="495" y="564"/>
      <point x="451" y="564" type="curve" smooth="yes"/>
    </contour>
  </outline>
</glyph>
